<?xml version="1.0" encoding="utf-8"?>
<!-- Generator: Adobe Illustrator 15.0.0, SVG Export Plug-In . SVG Version: 6.00 Build 0)  -->
<!DOCTYPE svg PUBLIC "-//W3C//DTD SVG 1.1//EN" "http://www.w3.org/Graphics/SVG/1.1/DTD/svg11.dtd">
<svg version="1.1" id="レイヤー_1" xmlns="http://www.w3.org/2000/svg" xmlns:xlink="http://www.w3.org/1999/xlink" x="0px"
	 y="0px" width="46px" height="48px" viewBox="0 0 46 48" enable-background="new 0 0 46 48" xml:space="preserve">
<g>
	<g>
		<g>
			<g>
				<defs>
					<path id="SVGID_1_" d="M42.5,24.596c0,2.796-8.585,15.4-19.175,15.4S4.15,27.392,4.15,24.596s8.585-5.064,19.175-5.064
						S42.5,21.799,42.5,24.596z"/>
				</defs>
				<use xlink:href="#SVGID_1_"  overflow="visible" fill="#E6E7E8"/>
				<clipPath id="SVGID_2_">
					<use xlink:href="#SVGID_1_"  overflow="visible"/>
				</clipPath>
				<path clip-path="url(#SVGID_2_)" fill="#C7C8C9" d="M35.876,19.155c0,0-16.205-0.631-21.298,7.014
					c-4.126,6.193-2.999,9.54-2.999,9.54S-0.1,29.337,1.951,23.462C4.002,17.589,35.876,19.155,35.876,19.155z"/>
			</g>
			<path fill="#FFFFFF" d="M23.325,19.155c-8.984,0-16.546,1.826-18.789,4.307c0.059,0.252,0.2,0.499,0.416,0.738
				c1.432-2.346,9.112-4.137,18.374-4.137c9.261,0,16.942,1.791,18.373,4.137c0.215-0.239,0.356-0.486,0.416-0.738
				C39.871,20.981,32.31,19.155,23.325,19.155z"/>
		</g>
		<g>
			<path fill="#C95B11" d="M24.018,35.296c0,0,1.233,0.844,3.463-0.444c4.208-2.431,3.699-4.287,4.785-5.071
				c0,0-0.159,0.593,0.298,1.657c0.458,1.063-0.119,2.112-1.993,3.742c-1.873,1.631-2.468,2.405-3.938,2.263
				C25.517,37.336,24.018,35.296,24.018,35.296z"/>
		</g>
		<g>
			<g>
				<defs>
					<path id="SVGID_3_" d="M39.756,28.695c0,6.589-7.359,11.929-16.438,11.929c-9.079,0-16.438-5.34-16.438-11.929
						c0-6.588,3.439-18.336,16.444-18.336S39.756,22.106,39.756,28.695z"/>
				</defs>
				<use xlink:href="#SVGID_3_"  overflow="visible" fill="#FF8D8C"/>
				<clipPath id="SVGID_4_">
					<use xlink:href="#SVGID_3_"  overflow="visible"/>
				</clipPath>
			</g>
		</g>
		<g>
			<g>
				<defs>
					<path id="SVGID_5_" d="M23.325,30.619c-10.036,0-18.607-2.617-19.175-6.023l3.196,19.185C7.742,46.157,14.889,48,23.325,48
						c8.437,0,15.583-1.843,15.979-4.219L42.5,24.596C41.933,28.002,33.361,30.619,23.325,30.619z"/>
				</defs>
				<use xlink:href="#SVGID_5_"  overflow="visible" fill="#FAF082"/>
				<clipPath id="SVGID_6_">
					<use xlink:href="#SVGID_5_"  overflow="visible"/>
				</clipPath>
				<path clip-path="url(#SVGID_6_)" fill="#D8D8D8" d="M44.595,24.643c-0.29,4.252-9.811,7.615-21.27,7.615
					S2.346,28.895,2.055,24.643c-0.298-4.374,9.221-8.01,21.271-8.01S44.894,20.27,44.595,24.643z"/>
			</g>
			<path fill="#FFFFFF" d="M41.698,24.201c0.158,0.259,0.241,0.523,0.241,0.793c0,2.723-8.334,4.93-18.614,4.93
				s-18.614-2.207-18.614-4.93c0-0.27,0.083-0.534,0.24-0.793c-0.215-0.239-0.356-0.486-0.416-0.738
				c-0.44,0.488-0.678,1.002-0.678,1.531c0,3.224,8.715,5.838,19.467,5.838c10.751,0,19.466-2.614,19.466-5.838
				c0-0.529-0.236-1.043-0.677-1.531C42.055,23.715,41.914,23.961,41.698,24.201z"/>
		</g>
		<path fill="#FFFFFF" d="M15.714,25.207c-0.167,0-0.335-0.059-0.469-0.179c-0.289-0.258-0.313-0.7-0.054-0.987l7.533-8.349
			c0.132-0.147,0.321-0.231,0.52-0.232c0.001,0,0.002,0,0.003,0c0.197,0,0.385,0.083,0.518,0.227l7.674,8.349
			c0.262,0.285,0.242,0.727-0.044,0.988c-0.286,0.26-0.729,0.242-0.992-0.044l-7.151-7.78l-7.015,7.775
			C16.099,25.128,15.907,25.207,15.714,25.207z"/>
	</g>
	<g>
		<g>
			<g>
				<defs>
					<path id="SVGID_7_" d="M42.5,24.596c0,2.796-8.585,15.4-19.175,15.4S4.15,27.392,4.15,24.596s8.585-5.064,19.175-5.064
						S42.5,21.799,42.5,24.596z"/>
				</defs>
				<clipPath id="SVGID_8_">
					<use xlink:href="#SVGID_7_"  overflow="visible"/>
				</clipPath>
			</g>
		</g>
		<g>
			<g>
				<defs>
					<path id="SVGID_9_" d="M39.756,28.695c0,6.589-7.359,11.929-16.438,11.929c-9.079,0-16.438-5.34-16.438-11.929
						c0-6.588,3.439-18.336,16.444-18.336S39.756,22.106,39.756,28.695z"/>
				</defs>
				<clipPath id="SVGID_10_">
					<use xlink:href="#SVGID_9_"  overflow="visible"/>
				</clipPath>
			</g>
		</g>
		<g>
			<g>
				<defs>
					<path id="SVGID_11_" d="M23.325,30.619c-10.036,0-18.607-2.617-19.175-6.023l3.196,19.185C7.742,46.157,14.889,48,23.325,48
						c8.437,0,15.583-1.843,15.979-4.219L42.5,24.596C41.933,28.002,33.361,30.619,23.325,30.619z"/>
				</defs>
				<clipPath id="SVGID_12_">
					<use xlink:href="#SVGID_11_"  overflow="visible"/>
				</clipPath>
			</g>
		</g>
	</g>
	<g>
		<g>
			<g>
				<defs>
					<path id="SVGID_13_" d="M42.5,24.596c0,2.796-8.585,15.4-19.175,15.4S4.15,27.392,4.15,24.596s8.585-5.064,19.175-5.064
						S42.5,21.799,42.5,24.596z"/>
				</defs>
				<clipPath id="SVGID_14_">
					<use xlink:href="#SVGID_13_"  overflow="visible"/>
				</clipPath>
			</g>
		</g>
		<g>
			<g>
				<defs>
					<path id="SVGID_15_" d="M39.756,28.695c0,6.589-7.359,11.929-16.438,11.929c-9.079,0-16.438-5.34-16.438-11.929
						c0-6.588,3.439-18.336,16.444-18.336S39.756,22.106,39.756,28.695z"/>
				</defs>
				<clipPath id="SVGID_16_">
					<use xlink:href="#SVGID_15_"  overflow="visible"/>
				</clipPath>
			</g>
		</g>
		<g>
			<g>
				<defs>
					<path id="SVGID_17_" d="M23.325,30.619c-10.036,0-18.607-2.617-19.175-6.023l3.196,19.185C7.742,46.157,14.889,48,23.325,48
						c8.437,0,15.583-1.843,15.979-4.219L42.5,24.596C41.933,28.002,33.361,30.619,23.325,30.619z"/>
				</defs>
				<clipPath id="SVGID_18_">
					<use xlink:href="#SVGID_17_"  overflow="visible"/>
				</clipPath>
			</g>
		</g>
	</g>
</g>
<g>
	<g>
		<path fill="#E8453F" d="M4.625,6.586c0.476-0.094,0.903-0.054,1.277,0.109C6.277,6.857,6.577,7.14,6.808,7.533
			c0.229,0.389,0.33,0.785,0.315,1.188C7.109,9.123,6.979,9.504,6.741,9.872c-0.239,0.368-0.577,0.702-1.017,1.018
			c-0.334,0.239-0.665,0.486-0.991,0.741c0.346,0.447,0.69,0.893,1.036,1.339c-0.354,0.276-0.704,0.563-1.048,0.857
			c-1.326-1.558-2.653-3.116-3.979-4.674c0.781-0.668,1.583-1.297,2.405-1.886C3.652,6.903,4.149,6.678,4.625,6.586z M5.658,9.188
			C5.747,8.907,5.702,8.624,5.517,8.34c-0.189-0.29-0.433-0.446-0.736-0.464C4.478,7.859,4.129,7.984,3.748,8.259
			c-0.346,0.25-0.688,0.506-1.027,0.77c0.435,0.562,0.869,1.124,1.304,1.686c0.317-0.247,0.638-0.488,0.962-0.721
			C5.345,9.736,5.568,9.472,5.658,9.188z"/>
		<path fill="#E8453F" d="M12.332,7.702c-0.842,0.335-1.673,0.71-2.489,1.126c0.042,0.47,0.091,0.939,0.148,1.406
			c-0.397,0.21-0.789,0.43-1.177,0.66c-0.308-2.197-0.445-4.451-0.408-6.74c0.47-0.225,0.944-0.438,1.421-0.642
			c1.73,1.49,3.311,3.093,4.732,4.785c-0.43,0.139-0.856,0.289-1.281,0.449C12.97,8.394,12.654,8.046,12.332,7.702z M11.524,6.864
			c-0.595-0.601-1.212-1.189-1.848-1.762C9.681,5.96,9.711,6.813,9.763,7.66C10.344,7.375,10.931,7.11,11.524,6.864z"/>
		<path fill="#E8453F" d="M17.988,4.188c0.426-0.075,0.854-0.14,1.282-0.197c0.109,0.825,0.217,1.649,0.327,2.473
			c-0.271,0.29-0.59,0.531-0.959,0.73s-0.745,0.339-1.136,0.422c-0.561,0.119-1.091,0.109-1.611-0.033
			c-0.52-0.141-0.981-0.397-1.387-0.777c-0.406-0.379-0.71-0.853-0.899-1.432c-0.188-0.579-0.217-1.145-0.067-1.697
			c0.148-0.552,0.457-1.038,0.927-1.447c0.47-0.408,1.059-0.694,1.75-0.84c0.578-0.122,1.123-0.129,1.623-0.028
			c0.501,0.103,0.931,0.308,1.289,0.61c-0.284,0.32-0.56,0.644-0.828,0.97c-0.52-0.386-1.117-0.517-1.761-0.382
			c-0.406,0.085-0.749,0.249-1.021,0.483c-0.273,0.236-0.455,0.522-0.547,0.856c-0.093,0.333-0.084,0.687,0.018,1.059
			c0.101,0.368,0.272,0.672,0.508,0.917c0.235,0.246,0.511,0.415,0.827,0.509s0.648,0.104,1.001,0.03
			c0.375-0.079,0.698-0.229,0.972-0.455C18.193,5.37,18.09,4.779,17.988,4.188z"/>
		<path fill="#E8453F" d="M24.95,5.779c-0.019,0.38-0.038,0.76-0.057,1.14c-1.422-0.07-2.85-0.035-4.268,0.106
			c-0.202-2.039-0.403-4.078-0.605-6.116c1.679-0.167,3.367-0.211,5.05-0.135c-0.017,0.38-0.034,0.76-0.052,1.141
			c-1.133-0.052-2.268-0.046-3.401,0.016c0.024,0.444,0.048,0.888,0.073,1.333c0.961-0.053,1.924-0.063,2.886-0.03
			c-0.013,0.368-0.025,0.737-0.037,1.105c-0.93-0.032-1.86-0.021-2.788,0.029c0.026,0.474,0.052,0.948,0.078,1.421
			C22.869,5.731,23.91,5.729,24.95,5.779z"/>
		<path fill="#E8453F" d="M29.703,2.474c-0.681-0.127-1.364-0.233-2.05-0.318c0.047-0.383,0.095-0.767,0.143-1.15
			c1.931,0.24,3.847,0.642,5.725,1.205c-0.111,0.37-0.221,0.74-0.332,1.111c-0.667-0.2-1.339-0.379-2.014-0.537
			c-0.377,1.619-0.754,3.237-1.131,4.856c-0.417-0.097-0.835-0.185-1.255-0.264C29.093,5.743,29.398,4.109,29.703,2.474z"/>
		<path fill="#E8453F" d="M33.375,8.309c-0.35-0.418-0.584-0.896-0.701-1.439c-0.117-0.543-0.099-1.104,0.076-1.682
			c0.174-0.577,0.471-1.055,0.909-1.422c0.437-0.368,0.966-0.593,1.586-0.661c0.62-0.069,1.267,0.033,1.92,0.311
			c0.653,0.277,1.178,0.673,1.563,1.168c0.384,0.496,0.599,1.037,0.647,1.612c0.047,0.574-0.084,1.124-0.376,1.65
			c-0.292,0.528-0.685,0.928-1.162,1.219s-0.987,0.45-1.532,0.488c-0.545,0.039-1.076-0.056-1.61-0.283
			C34.16,9.043,33.726,8.729,33.375,8.309z M36.125,8.305c0.324-0.034,0.625-0.146,0.903-0.343c0.278-0.195,0.504-0.461,0.673-0.802
			c0.169-0.34,0.243-0.683,0.216-1.029c-0.026-0.345-0.146-0.661-0.36-0.944c-0.215-0.283-0.503-0.503-0.862-0.655
			c-0.358-0.152-0.716-0.206-1.066-0.164c-0.35,0.043-0.657,0.178-0.922,0.4c-0.264,0.221-0.456,0.514-0.583,0.873
			c-0.126,0.358-0.161,0.707-0.109,1.042c0.051,0.337,0.177,0.631,0.377,0.888s0.457,0.45,0.773,0.585
			C35.483,8.289,35.799,8.339,36.125,8.305z"/>
		<path fill="#E8453F" d="M44.926,8.449c0.247,0.426,0.355,0.85,0.328,1.261c-0.027,0.413-0.193,0.791-0.488,1.138
			c-0.292,0.342-0.635,0.565-1.024,0.678c-0.388,0.114-0.795,0.111-1.223,0c-0.429-0.111-0.857-0.326-1.299-0.642
			c-0.333-0.239-0.672-0.471-1.012-0.695c-0.309,0.473-0.617,0.945-0.925,1.418c-0.37-0.243-0.746-0.478-1.124-0.702
			c1.038-1.764,2.076-3.529,3.115-5.293c0.858,0.509,1.699,1.058,2.521,1.647C44.3,7.621,44.678,8.022,44.926,8.449z M42.803,10.271
			c0.296-0.005,0.55-0.139,0.757-0.406c0.211-0.273,0.278-0.558,0.194-0.853c-0.083-0.295-0.317-0.586-0.7-0.86
			c-0.347-0.247-0.698-0.487-1.051-0.719c-0.388,0.595-0.776,1.19-1.164,1.786c0.332,0.218,0.66,0.442,0.985,0.674
			C42.183,10.148,42.506,10.276,42.803,10.271z"/>
	</g>
</g>
</svg>
