<?xml version="1.0" encoding="utf-8"?>
<!-- Generator: Adobe Illustrator 15.0.0, SVG Export Plug-In . SVG Version: 6.00 Build 0)  -->
<!DOCTYPE svg PUBLIC "-//W3C//DTD SVG 1.1//EN" "http://www.w3.org/Graphics/SVG/1.1/DTD/svg11.dtd">
<svg version="1.1" id="_x32_" xmlns="http://www.w3.org/2000/svg" xmlns:xlink="http://www.w3.org/1999/xlink" x="0px" y="0px"
	 width="48.376px" height="50px" viewBox="273.452 395.945 48.376 50" enable-background="new 273.452 395.945 48.376 50"
	 xml:space="preserve">
<g>
	<path fill="#4B4B4B" d="M314.251,395.945c-0.911,0-1.709,0.617-1.937,1.5l-1.98,7.673h-34.883c-0.627,0-1.22,0.297-1.597,0.798
		c-0.379,0.504-0.499,1.152-0.323,1.757l5.744,19.935c0.246,0.855,1.031,1.447,1.923,1.447h22.959l-0.864,3.351h-21.922v3.527
		h23.104c0.912,0,1.709-0.618,1.937-1.501l9.022-34.959h6.394v-3.527H314.251L314.251,395.945z M306.813,418.763l-1.745,6.763
		h-4.409v-6.763H306.813L306.813,418.763z M309.424,408.646l-1.702,6.588h-7.063v-6.588H309.424z M297.132,418.763v6.763h-7.527
		v-6.763H297.132L297.132,418.763z M297.132,408.646v6.588h-7.527v-6.588H297.132z M286.639,408.646v6.588h-7.261l-1.897-6.588
		H286.639z M286.639,418.763v6.763h-4.293l-1.95-6.763H286.639L286.639,418.763z"/>
	<path fill="#4B4B4B" d="M284.741,438.59c-1.975,0-3.577,1.601-3.577,3.577s1.603,3.577,3.577,3.577
		c1.978,0,3.577-1.601,3.577-3.577S286.719,438.59,284.741,438.59z"/>
	<path fill="#4B4B4B" d="M301.906,438.788c-1.978,0-3.578,1.603-3.578,3.577c0,1.977,1.601,3.58,3.578,3.58
		c1.976,0,3.577-1.604,3.577-3.58C305.484,440.391,303.882,438.788,301.906,438.788z"/>
</g>
</svg>
