<?xml version="1.0" encoding="utf-8"?>
<!-- Generator: Adobe Illustrator 15.0.0, SVG Export Plug-In . SVG Version: 6.00 Build 0)  -->
<!DOCTYPE svg PUBLIC "-//W3C//DTD SVG 1.1//EN" "http://www.w3.org/Graphics/SVG/1.1/DTD/svg11.dtd">
<svg version="1.1" id="_x32_" xmlns="http://www.w3.org/2000/svg" xmlns:xlink="http://www.w3.org/1999/xlink" x="0px" y="0px"
	 width="48.377px" height="50px" viewBox="273.452 395.945 48.377 50" enable-background="new 273.452 395.945 48.377 50"
	 xml:space="preserve">
<g>
	<path fill="#FFFFFF" d="M314.25,395.945c-0.91,0-1.709,0.617-1.936,1.5l-1.98,7.673h-34.883c-0.627,0-1.221,0.297-1.598,0.798
		c-0.379,0.504-0.499,1.152-0.322,1.757l5.743,19.936c0.246,0.854,1.031,1.446,1.923,1.446h22.959l-0.863,3.352h-21.922v3.526
		h23.104c0.912,0,1.709-0.617,1.938-1.501l9.021-34.959h6.395v-3.527H314.25L314.25,395.945z M306.813,418.764l-1.744,6.763h-4.41
		v-6.763H306.813L306.813,418.764z M309.424,408.646l-1.703,6.588h-7.063v-6.588H309.424z M297.131,418.764v6.763h-7.526v-6.763
		H297.131L297.131,418.764z M297.131,408.646v6.588h-7.526v-6.588H297.131z M286.639,408.646v6.588h-7.262l-1.896-6.588H286.639z
		 M286.639,418.764v6.763h-4.293l-1.95-6.763H286.639L286.639,418.764z"/>
	<path fill="#FFFFFF" d="M284.741,438.59c-1.975,0-3.576,1.602-3.576,3.577s1.603,3.577,3.576,3.577
		c1.979,0,3.577-1.602,3.577-3.577S286.719,438.59,284.741,438.59z"/>
	<path fill="#FFFFFF" d="M301.907,438.788c-1.979,0-3.578,1.603-3.578,3.577c0,1.977,1.6,3.58,3.578,3.58
		c1.975,0,3.576-1.604,3.576-3.58C305.485,440.391,303.881,438.788,301.907,438.788z"/>
</g>
</svg>
