<?xml version="1.0" encoding="utf-8"?>
<!-- Generator: Adobe Illustrator 15.0.0, SVG Export Plug-In . SVG Version: 6.00 Build 0)  -->
<!DOCTYPE svg PUBLIC "-//W3C//DTD SVG 1.1//EN" "http://www.w3.org/Graphics/SVG/1.1/DTD/svg11.dtd">
<svg version="1.1" id="_x32_" xmlns="http://www.w3.org/2000/svg" xmlns:xlink="http://www.w3.org/1999/xlink" x="0px" y="0px"
	 width="150px" height="134.822px" viewBox="222.641 186.837 150 134.822" enable-background="new 222.641 186.837 150 134.822"
	 xml:space="preserve">
<g>
	<g>
		<path fill="#E8435F" d="M240.95,319.67c-5.814,0-11.232-3.128-14.14-8.163c-2.908-5.037-2.908-11.294,0-16.33l56.692-98.186
			c2.905-5.037,8.323-8.166,14.137-8.166c5.817,0,11.236,3.129,14.146,8.166l56.688,98.191c2.908,5.031,2.909,11.287,0,16.324
			c-2.902,5.035-8.32,8.164-14.14,8.164H240.95L240.95,319.67z"/>
		<path fill="#E8435F" d="M297.639,190.814c5.109,0,9.869,2.748,12.423,7.171l56.688,98.19c2.555,4.419,2.555,9.912,0.001,14.336
			c-2.55,4.424-7.312,7.17-12.418,7.17H240.95c-5.105,0-9.863-2.746-12.417-7.17s-2.554-9.917,0-14.341l56.692-98.186
			C287.777,193.563,292.532,190.814,297.639,190.814 M297.639,186.837c-6.522,0-12.6,3.51-15.86,9.161l-56.691,98.185
			c-3.263,5.649-3.263,12.668,0,18.318c3.261,5.649,9.339,9.158,15.861,9.158h113.383c6.527,0,12.606-3.511,15.863-9.161
			c3.262-5.649,3.261-12.667-0.003-18.313l-56.687-98.188C310.244,190.347,304.165,186.837,297.639,186.837L297.639,186.837z"/>
		<path fill="#FFFFFF" d="M297.639,194.792c3.692,0,7.133,1.986,8.979,5.183l56.688,98.192c1.846,3.192,1.846,7.16-0.002,10.359
			c-1.841,3.195-5.279,5.18-8.972,5.18H240.95c-3.689,0-7.128-1.985-8.973-5.182c-1.846-3.197-1.846-7.168,0-10.364l56.693-98.187
			C290.513,196.777,293.951,194.792,297.639,194.792 M297.639,190.814c-5.107,0-9.863,2.748-12.415,7.171l-56.692,98.187
			c-2.554,4.423-2.554,9.916,0,14.34s7.312,7.17,12.417,7.17h113.383c5.105,0,9.868-2.746,12.418-7.17
			c2.554-4.424,2.554-9.917-0.001-14.336l-56.688-98.19C307.508,193.563,302.749,190.814,297.639,190.814L297.639,190.814z"/>
	</g>
	<path fill="#FFFFFF" d="M297.642,306.788c-5.446,0-9.868-4.417-9.868-9.865c0-5.447,4.422-9.863,9.868-9.863
		s9.864,4.416,9.864,9.863C307.506,302.371,303.088,306.788,297.642,306.788z"/>
	<path fill="#FFFFFF" d="M303.72,275.213c0,3.356-2.724,6.075-6.078,6.075c-3.359,0-6.078-2.718-6.078-6.075l-3.79-44.614
		c0-5.449,4.422-9.865,9.868-9.865s9.864,4.417,9.864,9.865L303.72,275.213z"/>
</g>
</svg>
