<?xml version="1.0" encoding="utf-8"?>
<!-- Generator: Adobe Illustrator 15.0.0, SVG Export Plug-In . SVG Version: 6.00 Build 0)  -->
<!DOCTYPE svg PUBLIC "-//W3C//DTD SVG 1.1//EN" "http://www.w3.org/Graphics/SVG/1.1/DTD/svg11.dtd">
<svg version="1.1" id="レイヤー_1" xmlns="http://www.w3.org/2000/svg" xmlns:xlink="http://www.w3.org/1999/xlink" x="0px"
	 y="0px" width="261.098px" height="236.596px" viewBox="0 0 261.098 236.596" enable-background="new 0 0 261.098 236.596"
	 xml:space="preserve">
<g>
	<g>
		<g>
			<defs>
				<path id="XMLID_101_" d="M241.791,89.491c0,17.577-53.717,96.799-119.982,96.799c-66.265,0-119.983-79.222-119.983-96.799
					c0-17.578,53.718-31.827,119.983-31.827C188.074,57.664,241.791,71.913,241.791,89.491z"/>
			</defs>
			<use xlink:href="#XMLID_101_"  overflow="visible" fill="#E6E7E8"/>
			<clipPath id="XMLID_2_">
				<use xlink:href="#XMLID_101_"  overflow="visible"/>
			</clipPath>
			<path clip-path="url(#XMLID_2_)" fill="#C7C8C9" d="M200.348,55.3c0,0-101.402-3.962-133.269,44.081
				c-25.816,38.924-18.763,59.96-18.763,59.96s-73.084-40.054-60.252-76.971C0.897,45.455,200.348,55.3,200.348,55.3z"/>
		</g>
		<path fill="#FFFFFF" d="M121.809,55.3C65.59,55.3,18.276,66.774,4.242,82.37c0.368,1.587,1.253,3.137,2.601,4.642
			c8.959-14.744,57.017-26.003,114.966-26.003c57.949,0,106.008,11.259,114.965,26.003c1.348-1.505,2.232-3.055,2.602-4.642
			C225.34,66.774,178.026,55.3,121.809,55.3z"/>
	</g>
	<g>
		<defs>
			<path id="XMLID_100_" d="M165.672,109.706l83.664-79.289c2.791-2.722,14.113,8.888,11.322,11.609l-81.365,81.646
				c4.896,7.486,4.598,18.256-2.047,24.736l-19.036,18.563c-7.551,7.364-19.642,7.212-27.005-0.339l-9.688-9.935
				c-7.364-7.55-7.212-19.641,0.339-27.005l19.036-18.563C147.537,104.65,158.312,104.623,165.672,109.706z"/>
		</defs>
		<use xlink:href="#XMLID_100_"  overflow="visible" fill="#2B3340"/>
		<clipPath id="XMLID_3_">
			<use xlink:href="#XMLID_100_"  overflow="visible"/>
		</clipPath>
		<path clip-path="url(#XMLID_3_)" fill="#C95B11" d="M126.146,156.75c0,0,7.719,5.308,21.67-2.789
			c26.328-15.279,23.145-26.943,29.94-31.873c0,0-0.994,3.73,1.867,10.416c2.861,6.687-0.747,13.273-12.469,23.521
			c-11.721,10.245-15.441,15.111-24.642,14.22C135.525,169.567,126.146,156.75,126.146,156.75z"/>
	</g>
	<g>
		<g>
			<defs>
				<path id="XMLID_27_" d="M224.617,115.259c0,41.413-46.049,74.974-102.852,74.974c-56.806,0-102.854-33.561-102.854-74.974
					c0-41.412,21.52-115.255,102.896-115.255C203.182,0.004,224.617,73.847,224.617,115.259z"/>
			</defs>
			<use xlink:href="#XMLID_27_"  overflow="visible" fill="#FF8D8C"/>
			<clipPath id="XMLID_4_">
				<use xlink:href="#XMLID_27_"  overflow="visible"/>
			</clipPath>
			<path clip-path="url(#XMLID_4_)" fill="#F16C77" d="M112.854,80.355c-1.962,0.316-14.756,9.408-15.827,7.045
				c-0.782-1.728,10.568-12.542,10.501-15.531c-7.017-0.126-12.634,10.403-23.064,8.938c1.939-6.402,15.762-6.009,17.992-12.241
				c-6.899-1.879-1.508-4.243-8.154-1.013c-4.785,3.661,0.32-6.111-0.285-5.248c-10.051-4.706-10.843,8.09-17.482,10.155
				c0.39,1.061,6.578,0.63,7.556-0.057c-1.348,2.595-3.085,4.904-5.21,6.924c-0.292-0.83,1.724-6.271-3.15-2.172
				c1.605-1.349,1.226,7.243,1.218,7.288c6.193-10.985,10.76,6.168,4.498,9.451c-2.901,1.52-13.164-15.525-16.241-2.488
				c-4.49-9.398-3.627-0.354-14.217-0.033c-2.721,0.082-5.343-6.135-7.292-6.019c-2.991,0.18-16.234,29.401-16.409,34.399
				c1.703-1.813,3.688-3.123,5.958-3.929c-3.388,12.583,5.941-4.342,7.089-6.332c3.822-6.617-2.747-3.485-2.659-7.115
				c10.859-3.996,12.029-1.461,20.358,2.966c-7.24,7.032-8.351-5.129-11.862-3.23c4.083,3.802-1.683,6.218-1.081,10.825
				c5.572-10.898,17.201,6.687,22.827-2.182c-1.303-0.097-2.579,0.03-3.828,0.379c-5.085-7.737,5.894-10.657,5.085-10.575
				c7.147-0.725,31.122,1.032,32.76-10.422c-0.314,2.143-0.395,4.297-0.243,6.457c4.391-2.398,4.015-9.486,8.733-12.143
				c-4.052,2.283-3.201,9.088-5.181,12.824c8.767,8.065,15.427-9.757,18.152-14.206C119.734,81.23,115.82,79.88,112.854,80.355z
				 M43.979,87.501C43.703,87.175,44.245,87.816,43.979,87.501L43.979,87.501z M58.466,100.957c-0.53,0.434,2.578-7.305,2.57-2.676
				C60.409,102.241,59.554,103.133,58.466,100.957z M67.959,95.815c0.121-1.591,0.241-3.182,0.363-4.772
				C71.867,94.701,71.746,96.291,67.959,95.815z M85.5,87.095c4.303-1.348,8.331-3.273,12.083-5.773
				c-1.63,3.839-5.197,7.654-6.436,9.957C89.192,89.982,87.311,88.588,85.5,87.095z M110.517,94.434
				c-2.059-0.886-1.958-1.726,0.297-2.52C112.681,92.808,112.582,93.646,110.517,94.434z M111.252,88.801
				c-0.884-0.836-1.268-1.858-1.156-3.069c1.852-1.199,3.156-1.172,3.91,0.081C113.088,86.809,112.17,87.806,111.252,88.801z"/>
			<path clip-path="url(#XMLID_4_)" fill="#F16C77" d="M237.09,126.011c-0.355-7.116-9.266-47.799-17.533-48.242
				c1.943-5.671-15.803-12.712-18.937-14.479c-4.863-2.743-9.955-4.895-9.492-4.787c-8.698-2.026-4.877,4.481-10.258,5.18
				c-6.623-25.527,32.556,6.405,33.512,4.572c14.372-27.524-47.45-19.026-47.701-21.026c0.372-3.07,16.089-2.012,17.788-2.28
				c-0.415-1.644-1.19-3.113-2.31-4.414c1.099,2.003-26.278,2.44-28.125,1.866c0.763,0.565,1.44,1.054,2.051,1.485
				c-2.154-0.667-4.705-0.783-6.694,0.939c-0.937,0.812-7.825,6.509-7.808,9.203c0.002,0.539,18.773-8.965,20.207-4.759
				c1.266,3.706-4.414-1.325-3.014,2.43c2.455,6.586,4.633,3.082-2.098,7.226c2.148,1.232,4.446,2.131,6.892,2.701
				c-2.318-0.527-1.33,2.729-1.586,3.796c-3.249,1.107-11.366-2.793-11.615-2.723c-2.352,0.673-5.622,11.955-6.553,14.097
				c0.439,0.034,15.812-1.237,14.215-2.599c1.516,1.292,1.715,7.514,5.556,2.095c1.854,2.258,2.556,4.811,2.107,7.658
				c-1.666,1.029-2.644,0.439-2.933-1.769c-1.542,0.757-2.383,2.003-2.522,3.74c-2.23-8.671-16.066-9.763-25.822-9.155
				c5.521-0.344,11.593,8.547,8.017,7.064c-0.342-0.141-2.35-7.297-4.541-3.321c1.079-1.954-9.467,2.546-4.376,1.887
				c-6.63,0.857,1.008,6.223,0.601,7.905c0.23-0.102-3.416-3.089-8.053-5.779c-0.372,3.088-4.14,8.129-3.676,9.453
				c1.797-0.506,20.542-3.415,20.648-6.47c-0.047,1.34-4.805,8.648-6.505,9.102c0.31-0.531-6.381-6.224-2.993,1.198
				c-6.872,0.898-22.825,7.858-29.469,6.649c-0.912-1.709-0.517-3.281,1.183-4.712c-3.658-11.059-38.465,20.913-34.41,23.456
				c4.989,3.127,6.341-4.934,5.989-4.884c4.575-0.633,14.658,2.228,19.241-0.006c0.49,1.267-6.897,7.203-2.958,8.231
				c3.42,0.204,3.964-0.742,1.631-2.839c-1.055-0.588,19.868-1.875,19.687-1.802c-0.417-2.303,0.038-4.408,1.359-6.315
				c2.462,0.115,47.926-4.064,43.199-11.295c-1.739-0.357-3.251-1.155-4.534-2.394c1.854,0.006,3.552-0.474,5.09-1.439
				c-2.647-8.89,6.754-7.871,17.338-10.052c-13.626,8.706-17.585,20.779-33.151,25.567c-6.894,2.121-15.163,2.613-21.633,4.85
				c-1.383,0.479-3.4,9.382-9.35,7.638c1.276-0.863,1.256-1.501-0.062-1.911c-1.573,1.89-3.064,3.845-4.47,5.864
				c2.928-7.159,0.208-8.877-8.159-5.159c0.386,2.578-5.222,2.23-10.143,3.576c0.196-0.054,2.22-6.408-8.283-3.732
				c-1.945,1.123,2.962,2.239,5.07,2.649c-3.158,0.55-13.322,4.4-15.054,6.66c-0.568-2.207-0.809-4.458-0.711-6.758
				c-10.709,2.083-17.776-4.256-19.238,9.2c-3.632-2.156-6.154-1.644-7.564,1.536c-0.365,2.955-1.13,5.796-2.295,8.522
				c-15.528,3.685-32.976-33.39-39.114-42.581c-19.502,84.871,61.941,111.109,130.792,97.444
				c32.182-6.391,67.267-20.073,89.384-45.365C231.479,148.592,237.727,138.71,237.09,126.011z M206.283,54.499
				c1.881,1.008,2.953,2.597,3.213,4.766c0.382,1.704,0.733,3.413,1.054,5.128C209.883,64.067,204.127,54.422,206.283,54.499z
				 M192.938,51.352c1.975-1.306,3.984-1.451,6.026-0.438C200.45,52.423,190.438,53.324,192.938,51.352z M189.697,49.818
				C193.392,49.804,186.565,49.861,189.697,49.818L189.697,49.818z M132.879,86.383c1.444-1.625,2.806-1.765,4.358-0.566
				C135.788,85.009,134.622,86.944,132.879,86.383z M155.447,80.9C157.033,80.989,153.958,80.818,155.447,80.9L155.447,80.9z
				 M147.907,82.667c-0.65,1.225-2.297,1.222-2.343,2.704C145.163,83.472,145.605,82.362,147.907,82.667z M141.66,97.005
				c2.008,2.226-8.113,3.661-7.753,1.092c7.19-1.262,18.2-9.81,23.763-14.17C157.082,92.737,143.792,89.859,141.66,97.005z
				 M168.692,61.886c-3.405,0.689-3.631-0.468-0.68-3.473C169.942,59.967,170.169,61.125,168.692,61.886z M116.791,133.068
				c-0.68-0.402,7.963,4.097,1.391,3.083C115.12,137.05,116.437,132.858,116.791,133.068z M115.538,145.255
				c5.706-4.982,14.514-3.717,16.638-5.045C126.619,143.685,108.533,151.372,115.538,145.255z M111.949,172.637
				c-1.88,1.295-3.629,2.682-6.156,2.542C107.489,173.09,109.391,172.101,111.949,172.637z M108.271,159.208
				c1.636-2.185,2.172-4.6,1.608-7.248c-0.006,0,6.173-2.912,6.228-1.097C116.213,154.406,111.535,158.566,108.271,159.208z
				 M101.8,132.472c0.038,1.664-0.943,1.629-2.172,1.44C100.027,132.691,100.869,132.503,101.8,132.472z M100.606,135.078
				c-0.504,2.487-1.679,3.564-3.522,3.228C98.257,137.229,99.432,136.154,100.606,135.078z M85.1,134.302
				C84.856,134.459,84.972,134.384,85.1,134.302L85.1,134.302z M60.65,135.491c0.044,1.536-0.599,2.756-1.932,3.661
				C54.899,139.263,58.385,132.012,60.65,135.491z M58.961,142.367c4.758,3.53,6.342-7.255,9.671-8.375c0,0-0.918,6.076-0.409,6.343
				c1.542-0.272,3.093-0.463,4.655-0.572c1.836,8.305-17.523,4.459-19.922,2.956C54.87,141.327,56.871,141.21,58.961,142.367z
				 M54.376,148.486c-1.138-1.618,8.014-0.182,7.383,1.943C60.934,153.2,55.203,149.084,54.376,148.486z M57.636,157.155
				C56.102,157.579,57.094,155.788,57.636,157.155L57.636,157.155z M64.554,154.99c-2.296-0.648-4.009,0.096-5.14,2.233
				c-0.216-1.413-0.434-2.826-0.65-4.237C61.464,151.893,63.396,152.561,64.554,154.99z M46.657,141.899
				c0.504-0.396,0.879-0.734,1.151-1.021c0.357,0.14,0.833,0.277,1.465,0.405C50.616,141.557,43.975,144.006,46.657,141.899z
				 M50.413,146.718C50.331,151.211,46.939,143.512,50.413,146.718L50.413,146.718z M43.757,156.353
				c-1.317,3.11-2.667,3.087-4.047-0.069c4.243-0.301,2.442-7.233,8.268-5.648c4.869,1.325,4.371-1.63,9.378,4.227
				c-0.114,0.092-9.769,4.301-9.759,4.145c-0.081,1.249,8.158,2.004,8.357,1.66C52.289,167.033,44.167,160.766,43.757,156.353z
				 M55.069,172.001c23.367,3.357,7.828-12.726,5.196-8.982c3.249-8.071,12.115-14.974,14.962-22.328c0.991-2.56,6.48-4.291,8-7.496
				c0.893,4.575-10.901,11.913-10.346,13c1.453,0.604,14.062-0.373,13.174-1.167c-0.876-0.083-1.756-0.127-2.636-0.144
				c2.034-0.28,4.602-4.84,5.141-5.449c-6.284,13.902,22.989-5.545,25.077-5.927c-7.7,10.925-16.789,8.897-25.254,16.998
				c-0.082,0.077,5.534,3.251,7.326,3.643c-1.344,3.483-20.172,4.183-19.07,3.947c-0.718,0.154-11.134-6.837-11.536,2.1
				c0.277-0.14,11.68,3.663,12.295,4.273c0.749,0.741-12.123,7.687-5.591,8.377C66.126,173.563,63.81,179.559,55.069,172.001z
				 M64.462,164.925c1.559-0.968-1.963,4.888-1.88,3.899C57.019,165.84,63.666,165.421,64.462,164.925z M77.094,167.39
				c2.521,0.446,2.748,1.05,0.678,1.813C77.154,168.932,72.288,167.673,77.094,167.39z M82.881,172.958
				c-4.401,0.883-7.358,0.951-6.752-0.67c0.236-0.634,9.97-4.956,10.475-5.374c-1.361,1.906-2.655,3.856-3.882,5.852
				C82.774,172.839,82.828,172.893,82.881,172.958z M91.563,162.62c0.534,0.499,7.529,3.271,7.683,3.318
				c2.203-1.686,8.662-8.888,11.186-1.426c0.208,0.088-13.033,4.836-23.142,7.424C89.495,168.887,91.251,163.356,91.563,162.62z
				 M105.924,181.628c-2.12-0.869-1.742-1.64,1.134-2.308C112.504,177.591,105.085,183.134,105.924,181.628z M134.296,174.748
				c-5.815-0.371-20.705,8.636-24.052,7.438c-7.216-2.58,22.081-15.619,27.418-8.811
				C140.188,176.599,133.249,173.638,134.296,174.748z M125.737,165.62c-6.141-3.244,0.088-1.139-11.415-0.952
				c-3.047,0.05,12.255-5.515,11.578-5.91c-1.92-1.412-1.855-2.764,0.193-4.056c2.342,3.689,13.467,6.089,16.286,1.813
				C143.711,160.147,128.195,166.917,125.737,165.62z M138.239,147.76c0.477-1.11,2.547-2.284,3.753-1.363
				C142.411,148.364,141.161,148.818,138.239,147.76z M131.033,138.312c0.002,0.002-7.458-5.492,0.38-5.397
				c3.72,1.755,7.717-1.928,11.021-0.387C144.786,133.627,132.754,140.553,131.033,138.312z M211.656,80.337
				c-1.264,1.122-2.429,2.151-3.971,1.14C207.763,79.545,209.087,79.166,211.656,80.337z M196.845,82.353
				c0.485-0.106,4.147-4.069,6.361,0.694C204.536,83.828,197.392,82.422,196.845,82.353z M180.576,89.543
				c3.175-0.849,12.295-5.363,11.781,1.548C188.395,90.852,184.467,90.336,180.576,89.543z M185.467,95.29
				c-1.247-0.579-2.491-1.157-3.737-1.736C186.615,90.65,187.86,91.229,185.467,95.29z M194.475,90.476
				c0.567-0.634,5.296,0.765,0.016,1.615C191.653,91.334,191.648,90.797,194.475,90.476z M192.924,81.997
				c0.593,0.222,0.844,0.27,1.049,0.399C199.919,86.197,193.373,84.593,192.924,81.997z M202.879,66.805
				C203.125,66.415,202.549,67.332,202.879,66.805L202.879,66.805z M198.248,63.872c10.796,2.767-4.036,11.55-5.601,9.619
				C191.889,72.555,202.363,68.917,198.248,63.872z M190.526,67.727c0.304,0.237,2.114-2.174,3.125-3.513
				c-2.12,3.184-3.21,9.148-12.417,4.427C184.102,65.922,187.199,65.618,190.526,67.727z M178.96,49.648
				c0.118,2.547-1.002,3.246-1.384,5.664C177.501,53.038,174.693,55.136,178.96,49.648z M175.794,80.272
				c1.404-18.832,6.96-5.786,10.813-4.046c-0.668,0.739-1.126,1.696-1.368,2.882c2.919-0.735,5.886-1.157,8.892-1.295
				C190.017,78.735,175.188,88.396,175.794,80.272z M144.762,159.372c1.226-2.74,2.221-3.117,2.982-1.124
				C146.467,160.684,145.473,161.058,144.762,159.372z M150.362,158.344c-2.559-1.916,5.241-4.512,5.974-4.498
				C159.033,153.904,150.438,158.4,150.362,158.344z M155.464,134.329c2.123-0.84,2.806-2.21-0.025-4.073
				c1.43-0.644,15.201-4.365,13.109-9.292C172.079,129.283,162.872,132.867,155.464,134.329z M173.31,134.538
				c1.038-3.354,2.837-4.937,5.402-4.749C179.276,130.965,173.881,134.292,173.31,134.538z M179.663,114.309
				c-4.255,3.364-16.066,2.887-20.76,0.748c3.363-0.854,6.724-1.726,10.076-2.618C169.64,112.846,180.834,112.947,179.663,114.309z
				 M178.381,100.644c0.954-1.209,2.125-1.435,3.511-0.676c3.58,2.493,12.379,2.104,16.373,1.572
				C203.13,108.434,179.438,100.113,178.381,100.644z M201.158,104.51c-2.449-4.584,5.68-4.081,4.673-8.605
				c2.157,0.516,4.222,1.299,6.191,2.347C211.452,101.93,204.62,106.034,201.158,104.51z M211.36,76.147
				c1.527,0.009,3.057,0.019,4.587,0.027C215.798,77.631,209.362,78.947,211.36,76.147z"/>
			<path clip-path="url(#XMLID_4_)" fill="#FFCAC4" d="M30.292,118.859c1.435,1.438,6.425-2.591,1.552,2.71
				c-0.674-0.328-1.512-1.616-1.665-2.48c-1.54,3.155-4.125,5.599-8.517,6.282c1.105,1.694,10.974,4.895,10.238,6.015
				c-0.878,0.937-1.694,1.02-2.448,0.257c-2.234,2.629,1.895,6.545,4.285,7.325c-0.333-0.95,1.808-3.993,3.308-3.956
				c-0.521,1.797-0.338,2.082-1.662,3.763c4.079-0.628,8.136-4.833,11.614-5.665c1.725,2.619-4.328,2.283,0.721,2.802
				c0.136,1.438,3.552-0.571,5.881-0.721c5.545-5.287,3.507-4.539,4.272-7.695c5.742-0.841,4.749-9.101,12.146-8.424
				c-6.465-4.408-16.853,4.421-17.427,7.002c1.405,1.061,0.84,8.872-1.402,8.227c2.208-2.248,0.218-2.985-1.602-2.746
				c-0.012,0.447-0.27,0.812-0.75,1.103c0.969-1.445,0.538-9.542-3.491-7.579c-1.888,0.921-0.211,5.006-1.852,5.185
				c-4.705,0.514-14.67-3.917-9.5-7.948c2.938-0.639,2.026,3.419,2.11,3.977c3.045,0.212,6.266-3.671,7.88-0.488
				c0.835-0.611,2.352-4.921,2.058-5.031c-2.042-0.764-5.345,2.542-7.601,1.932c1.875,0.287,6.57-4.39,7.138-4.606
				c-3.538-1.615-0.045-5.109,4.101-5.779c0.825-0.133,0.612,7.003-0.052,7.921c2.721-0.317,3.176-5.296,8.014-5.421
				c-0.377-1.305-3.468,0.409-3.626-1.282c4.267,0.135,13.466-5.373,18.877-3.769c-0.68,0.414-1.268,0.872-1.762,1.372
				c0.741,3.149,5.911-5.674,5.938-5.665c5.322,1.874-0.493,3.882,8.781,0.769c2.275-0.762,21.195-10.985,14.352-9.65
				c-2.99,0.583-5.031,2.186-8.358,2.742c-2.118,0.354-5,2.395-5.785,2.472c-5.478,0.536-0.435-4.145-4.765,0.63
				c-0.085,0.093-11.878-0.643-11.96-0.651c-5.086-0.477-5.513,2.877-7.172-0.792c-1.477-3.266,2.959-5.641,7.005-6.461
				c0.685-4.225-17.534,7.701-17.384,11.658c1.625-0.204,6.364-5.525,4.705,0.191c-0.171,0.59-9.904,6.364-8.94,6.468
				c-0.296-0.033-2.982-1.325-3.07-1.391c-0.337,0.286-7.988,6.774-9.152,8.228c0.25-1.271,1.427-6.375,2.194-7.603
				c1.174-1.88,3.616-5.035,5.551-6.86c2.188-2.06,4.449-1.085,6.014-3.417c-0.211-0.076-3.313-0.226-2.733-0.554
				c1.551,0.325,2.77-0.178,3.646-1.52c-0.251-4.833-5.62-1.278-8.244,1.365c-4.68,4.708-2.458,9.079-9.766,11.734
				C31.668,114.925,31.159,117.001,30.292,118.859z M39.688,134.235c4.221-0.873-0.436,1.702-0.986,2.035
				C38.74,135.51,38.098,134.565,39.688,134.235z M91.573,100.126c5.008,0.767-3.41,2.714-2.959,1.454
				C89.16,100.642,90.143,100.155,91.573,100.126z M70.149,105.374c4.75,2.254-1.654,2.427-3.645,2.159
				C67.721,106.054,70.229,107.761,70.149,105.374z"/>
			<path clip-path="url(#XMLID_4_)" fill="#FFCAC4" d="M202.451,47.588c-4.164-1.718-5.13-3.751-8.678-5.706
				c-1.63-0.899-12.352-5.389-1.896-5.587c-0.647-1.028-1.377-1.975-2.188-2.853c1.984,2.838-12.246,1.643-13.857,0.986
				c-2.906-1.187-17.52-4.238-16.74-9.59c0.826-5.688,19.663,8.993,23.099,7.834c3.436-1.158-4.689-5.525-6.873-4.401
				c-1.852-3.354-15.007-4.997-12.825-11.997c0.359-1.151,8.149-0.158,5.585,4.408c4.678,1.376,4.394,3.057,9.237,4.23
				c2.832,0.687,5.479,5.663,7.313,6.254c1.322,0.428,2.361-3.545,2.687-3.359c5.183,2.942,12.556,13.534,18.594,13.363
				c-8.521-15.907-31.788-47.922-83.038-54.319c-13.059-1.63-58.354,23.255-68.792,31.088C36.554,31.091,3.55,79.593,4.182,84.029
				c0.403,2.825,14.92,31.216,15.736,35.251c1.533-11.225,10.215-17.485,11.699-19.021c0.942-0.975,5.535-3.276,5.971-3.847
				c2.416-3.16-1.129-4.767,1.566-9.542c0.94-1.666,3.913-9.766,8.225-10.67c-0.197,1.339,1.093,5.928,1.795,6.965
				c-0.512,0.317-1.323,0.741-1.595,0.916c4.272,2.135,9.728-10.933,18.934-6.969c-3.875,1.142,1.809,4.852-0.572,7.473
				c-0.599,0.659-7.362,4.272-8.394,2.356c-0.605-1.121,3.523-4.768,1.657-5.952c-5.582-3.541-2.957,1.652-4.214,3.142
				c-0.506,0.6-4.082,10.096-4.021,10.092c-3.109,0.193-2.679-4.678-3.728-4.552c0.347-0.042-6.129-0.337-3.871,2.045
				c5.257,5.547,14.837,4.478,19.231-2.878c0.115,2.388,1.044,3.602,2.789,3.641c-2.444-12.629,14.455-9.566,19.583-15.472
				c-1.42-2.768-13.04,1.567-16.019,0.98c3.906-4.791,8.31-6.085,12.147-8.89c5.177-3.781,6.02-5.788,13.192-3.798
				c-0.857,0.918-1.374,2.006-1.552,3.264c2.171,0.609,4.725-2.07,4.579-2.337c0.979,1.806,7.382,3.814,6.954,6.37
				c-0.319,1.909-15.447,7.123-16.573,6.925c1.5,1.965,0.914,4.027-1.755,6.189c2.157-1.072,4.995-1.546,7.504-2.725
				c-0.724,0.34,8.292-2.77,5.703-3.506c3.359,0.955,1.489,2.919,5.063,1.829c1.951-0.596,3.748-5.62,6.216-4.952
				c-0.291,5.567-7.24,7.247-7.476,12.223c4.034,1.797,16.024-3.086,21.536-3.488c6.889-0.504,14.083-1.649,20.982-1.01
				c4.21,0.389,19.859,7.111,21.156-1.166c-4.112-7.127-14.703,10.86-14.535-3.725c-1.075,0.853-9.546,4.15-7.491,0.082
				c-0.104,0.206,5.847-5.786,6.189-6.105c1.869-1.736,2.912-0.299,8.337-1.476c5.424-1.176,0.169-1.94-0.205-2.352
				c0.501-1.332,10.54,1.39,10.028-3.208c-0.51-4.6-11.636,0.984-15.017,1.174c-0.254,0.013-12.011-2.512-11.909,0.941
				c0.062,2.06,6.828-0.241,6.495,4.084c-0.259,3.335-6.623,3.721-8.5,4.901c-6.047,3.798-12.926,8.178-18.322,3.756
				c-4.618,0.488-14.438,5.707-7.913-4.593c0.968-1.528,9.264-6.672,8.432-1.9c-1.349,0.112-2.697,0.246-4.043,0.403
				c5.515,7.322,13.812-7.461,17.97-9.857c5.368-3.096,7.323-1.737,12.918-3.024c7.495-1.725,11.46-6.589,18.183-9.165
				c-2.655-1.517-12.03,3.139-14.719,3.494c-2.283,0.301-2.644,4.193-5.44,2.799c-0.667-0.333-3.682-7.961-3.462-9.007
				c1.004,2.987,8.809,3.565,9.625,1.425c1.843-4.843-15.183-3.259-13.573-6.828c2.352-2.348,12.318,2.12,13.695,2.505
				c5.26,1.477,9.406,4.517,15.339,1.385c-4.155,0.004-6.147-0.52-9.779-2.344c0.473-0.367,2.396-2.637,2.753-3.119
				c0.605,0.333,18.021,5.731,20.493,5.312c2.092-0.355,4.34-4.024,7.074-4.104c3.825-0.113,5.433,3.041,8.604,5.196
				c-0.808,0.66-1.681,0.776-2.614,0.349c2.062,3.766,12.879,3.849,15.307,0.403C208.351,49.274,205.037,48.655,202.451,47.588z
				 M183.254,21.975c-1.144-0.907-2.913-0.608-3.955-2.695C181.088,19.985,182.618,20.073,183.254,21.975z M95.997,79.929
				C95.989,80.159,95.991,80.095,95.997,79.929L95.997,79.929z M159.544,15.141c-1.266-0.132-2.482,0.331-3.911-0.956
				C157.149,14.021,158.427,12.677,159.544,15.141z M160.431,16.477c-0.148,0.828-0.435,1.6-0.854,2.313
				c0.836,0.042,1.653,0.204,2.451,0.485c1.201,0.737-9.936,0.501-9.589-2.288C155.018,15.594,157.682,15.424,160.431,16.477z
				 M156.564,27.34c-0.859,1.331-8.288-8.837-0.645-7.841c-1.831,2.177-1.461,3.202,1.099,3.086
				C155.758,23.521,157.444,25.982,156.564,27.34z M146.429,21.435c1.788,1.097,2.954,2.126,3.909,3.554
				c6.348,9.474-5.396,1.076-8.674,4.414c-10.07-2.01-2.482-8.802,1.212-10.908C145.167,21.264,142.76,19.184,146.429,21.435z
				 M143.784,14.311c0.65,3.153-7.759,4.353-9.791,4.625c-1.513,0.203-1.51,1.942-2.131,1.94c-2.383-0.008-6.994-3.301-9.979-3.822
				c0.833,1.056,17.67,10.271,13.603,12.025c-1.829,0.79-4.051-4.413-4.648-4.345c-2.118,0.238-0.656,1.991-2.221,2.292
				c1.762,1.66,3.876,2.639,6.343,2.938c-1.054,0.977-9.552,17.571-13.363,12.028c1.593,2.317,8.127-11.666,8.439-12.503
				c1.289,0.272-4.976-2.155-4.89-2.144c-0.598,0.692-0.746,1.61-0.441,2.748c-3.437,2.284-4.161-13.402-6.761-15.432
				c1.017-0.847,10.28,1.272,12.002,0.99c2.31-0.379-0.142-1.947,3.301-2.084C135.021,13.499,143.64,13.944,143.784,14.311z
				 M107.288,8.557c6.314,3.811,13.751-1.08,13.318-0.557c7.948,1.165,14.902-1.095,11.009,1.299
				c-6.036,3.711-28.151,4.355-30.241,2.007C98.143,7.676,105.276,6.84,107.288,8.557z M96.589,15.237
				c6.182,1.487-5.072,3.865-12.318,7.415C79.986,24.752,90.404,13.75,96.589,15.237z M87.401,42.206
				c0.814,0.777,1.256,1.728,1.328,2.847c-0.252-0.27-6.684,1.198-7.019,1.176c-1.038-0.578-1.347,0.482-1.184-1.581
				c-0.435,0.042-0.822,0.146-1.172,0.3C81.26,42.111,84.246,38.133,87.401,42.206z M76.689,54.95
				c1.027-0.877,1.837-1.716,2.199-2.362C80.407,55.771,77.899,54.89,76.689,54.95z M77.437,23.648
				c0.921,1.09,2.255,12.693-0.166,12.254c-2.085-0.38,2.935-10.557-1.3-8.824C68.637,25.234,73.064,18.47,77.437,23.648z
				 M75.173,36.404c-5.939,5.311-4.855-2.443-5.6-3.542C70.453,32.928,73.007,37.939,75.173,36.404z M64.816,32.521
				c0.421,0.308-3.965,9.09-5.113,9.223c-1.785,0.205-5.909,1.313-6.289,0.966C49.718,41.819,64.041,32.932,64.816,32.521z
				 M22.854,101.044c-0.641-3.709,0.196-5.31,1.928-7.442C24.652,96.568,25.208,98.736,22.854,101.044z M28.226,91.618
				c1.31-0.458,8.565-11.792,8.776-7.762C37.131,86.298,30.698,92.407,28.226,91.618z M29.157,80.627
				c-1-8.728,8.08-13.479,9.519-14.694C37.78,67.815,32.019,81.201,29.157,80.627z M50.003,67.138
				c-1.015,1.341-8.501,5.777-10.088,4.836c1.412,0.837,2.736-13.577,6.009-5.642C47.77,66.576,54.101,61.722,50.003,67.138z
				 M57.107,53.408c4.475-0.4-3.384,13.166-4.5,4.716C51.842,54.809,55.378,53.563,57.107,53.408z M64.329,69.237
				c-0.74,0.865-11.374,1.698-11.639,0.576c-0.54-2.286,8.504-14.452,9.218-8.615C62.445,64.427,67.042,66.06,64.329,69.237z
				 M62.052,50.772c-0.01,0.063,1.841-5.143,2.375-3.161c0.389-0.528,10.458-3.671,10.333-1.304
				C74.625,48.921,61.551,53.877,62.052,50.772z M90.067,59.65c-3.521,1.209-6.787,2.884-10.545,3.483
				c-7.385,1.178-2.626-0.246-6.743-1.824c-1.521-0.581-3.459-0.653-4.828-1.628c0.88,0.626,5.156-1.837,8.147-4.243
				c0.066,0.583,0.9,1.818,3.208,4.367c1.111-1.237,12.784-11.42,12.722-11.465c1.691,1.237-3.177,4.387-0.022,6.866
				c1.63-0.639,2.263-7.992,9.629-9.136c7.365-1.143,3.121-4.968,1.153-6.537c-1.703-1.358-4.632,0.412-6.518-0.016
				c-5.547-1.255-6.959,3.086-5.542-5.404c1.082-6.481,4.908-3.731,7.077-8.721c-0.629-0.456-1.219-0.963-1.767-1.523
				c0.807-0.829,14.938,1.133,13.959-0.386c2.435,1.543,5.749,5.313,3.134,7.536c-3.783,3.217-17.44-0.257-13.619,2.404
				c3.374,2.351,7.469,3.187,11.676,3.328c-0.081,0.083,9.074-3.578,8.066-0.444c-0.436,1.356-10.678,5.094-10.614,4.88
				c-0.836,2.736,8.939,1.09,8.095,4.217c0.36-1.809-11.286,4.639-10.626,3.553c-1.907,2.626,2.647,11.616-1.644,11.05
				c-3.855-0.507,0.879-3.218-3.4-3.631C98.071,56.089,92.767,58.723,90.067,59.65z M134.346,45.179
				c0.979-0.009,2.449,1.714,0.535,3.428c0.997-0.893-3.427,0.578-3.848,0.572c1.262,2.354-7.172,4.212-5.428,6
				c0.348,0.356,8.954-1.499,10.052-1.151c6.476,2.051-0.73,1.275-9.191,4.305c-2.995,1.071,0.179,4.709-2.873,5.706
				c-3.694,1.208-4.446,3.985-7.216,4.838c-0.156,1.433-0.82,2.573-1.993,3.423c-1.393-0.329-2.634-0.984-3.722-1.97
				c-2.517-0.089-8.684,0.516-8.884-3.753c2.135-4.688,10.312,1.023,12.983-3.588c0.069-1.528,0.054-9.496,4.109-10.17
				c-0.948,0.038-2.183,0.156-2.329,0.522c0.323-0.63-0.502-4.562,0.981-4.542c5.342,0.07,5.33,3.072,10.825-2.02
				c5.082-4.706,5.945-11.231,12.726-5.887C138.262,43.988,135.237,39.093,134.346,45.179z M139.646,32.837
				c1.949-6.303,4.88,2.648,4.814,2.602c2.377-2.955,5.459,0.171,6.46-0.167c-0.438,0.106-4.08,1.091-4.921,0.812
				C145.538,40.709,138.014,38.119,139.646,32.837z M170.366,42c-3.271,2.536-1.122-0.937-3.991-0.632
				c-1.563,0.166-4.619-1.208-6.801,0.424c0.514,0.954-11.595,3.933-13.163,0.569c0.583,1.252,6.975-6.52,6.574-6.315
				c3.431-1.749,3.17-1.858,8.063-1.465c2.066,0.165,10.955,0.933,12.479,3.591C171.929,39.399,171.411,41.192,170.366,42z
				 M175.612,45.037c-1.797,0.316-3.239-0.307-4.324-1.871c3.06-0.093,9.439-1.461,13.596-2.226
				C180.603,41.728,181.621,48.616,175.612,45.037z"/>
		</g>
		<path fill="#DB4956" d="M28.303,145.635c2.962-0.888,2.304,10.738,7.109,4.498c-0.993,1.742,1.415,3.33,2.37,4.656
			c0.368,0.381,2.125,2.735,2.37,3.079c-1.524,1.488,5.139,1.193,5.332,4.805c0.067-0.547,4.23,2.748,4.146,2.477
			c2.39-1.544,6.518,9.371,14.813,8.222c-0.087,2.136,5.259,3.793,5.331,5.927c3.34-0.12,16.125,18.268,17.047,13.211
			c3.196,3.179,34.312,5.788,33.127,0.305l36.455,4.508c0,0,15.664-11.982,17.026-10.917c2.82-2.395,6.454-3.702,7.044-8.457
			c0.093-1.441,18.438-17.964,18.451-17.792c1.185-1.782,2.895-3.467,2.963-3.585c0.812-0.484,4.133,1.765,5.926-1.943
			c-0.782-3.031,4.566-2.744,4.144-6.242c2.63-0.074,2.848-1.809,3.557-2.702c0.23-6.629,4.146-1.917,4.739-9.785
			c2.37-0.08,5.112-4.34,4.146-8.859c0.508,0.294,2.325-1.333,1.778-3.813c0.004,0.733,1.777-1.306,1.777-4.794
			s-3.868-20.396-5.054-24.342c-7.354-3.065-2.116,8.983-8.664,17.626c2.802,3.373-8.856,8.162-6.81,19.905
			c-2.882,1.309-2.275,5.156-5.236,5.762c-0.392,0.312-9.189,9.892-6.819,7.196c-0.222-2.673-3.035,2.655-5.331,1.05
			c0.396,0.484,1.524,2.304,1.71,2.347c-0.263,3.437-12.769,12.182-15.883,16.614c-1.021-1.477-5.952,1.479-7.138-3.711
			c-9.075,14.906-6.441,5.459-16.263,9.99c-16.588,7.659-10.451-2.287-16.744,1.428c-0.702-4.147-29.848,6.792-30.965,3.143
			c-2.748,1.272-17.803-4.152-16.026-7.369c1.778-3.211-9.03,2.544-19.101,0.515c-3.571-6.719-3.426-8.735-7.558-9.873
			c-0.138-1.186-7.702-5.269-5.333-7.715c2.37-2.447-6.841-5.124-11.255-6.727c0.5-1.112,3.539,6.219,2.369,5.447
			c0.028,1.749-5.084-5.282-5.923-5.327c0.034-1.438-3.182-11.845-5.066-12.505c-0.748,0.965-0.792,2.029-1.585,2.978
			c0.257,0.329-0.894-1.717-1.051-1.46c-0.248-4.605,0.299-6.739-0.592-7.679c-5.37,4.965-0.038-4.901-5.924,0.198
			c-1.093-3.592-1.893-6.146-4.649-4.381c-1.688,0.234-2.373-1.579-3.558-4.737c0,0-2.371,2.368-1.273,5.488
			c-1.644,0.285,1.837,8.669,1.186,7.854C17.146,131.223,25.341,146.523,28.303,145.635z"/>
		<g>
			<defs>
				<path id="XMLID_26_" d="M231.591,116.187c5.551-12.639-5.728-20.248-8.691-22.098c0.263,1.269,0.531,22.644-1.838,26.34
					c-2.759-1.956-4.853,2.612-3.557,9.244c-5.892-5.741-0.557,9.3-5.929,3.695c-0.893,1.136,2.618,1.991,2.37,7.395
					c-0.129-0.244-5.928,10.821-5.928,4.62c0-10.166-4.777,4.788-4.742,6.471c-0.841,0.085-5.957,8.518-5.929,6.469
					c-0.943,0.768,0.849-4.731,1.841-6.227c-4.578,2.074-13.012,6.333-10.732,8.997c2.372,2.77-4.606,8.767-4.743,10.16
					c-4.742,2.772,0-9.24-8.891,4.621c-0.045,0.012-0.09,0.022-0.133,0.035c0.735,1.794,0.863,3.731-1.055,4.587
					c-2.887,1.285-6.057-0.117-5.321-3.267c-7.804,1.233-14.452,1.287-13.057,4.188c1.78,3.697-10.292-0.465-13.04-1.847
					c-1.117,4.318-32.493-3.037-33.197,1.847c-6.298-4.102,2.964,8.319-13.635,0c-9.826-4.922-20.748,0-18.377-3.695
					c2.371-3.697-6.837-4.107-7.86-2.339c-2.527-4.117-18.458-18.678-15.852-13.371c1.546,3.158-2.438,2.872-2.372,2.773
					c-6.521-3.693-1.981-7.036-2.371-7.387c-2.963-0.593-7.689-8.869-8.3-6.469c2.048-13.83-14.065-16.274-11.263-20.335
					c-9.485-1.02-8.043-19.721-10.079-24.028c-2.051-1.154-8.627,3.697-8.627,11.335c0,4.084,6.374,10.318,6.378,9.46
					c-4.466,5.478-1.546,19.479,5.507,18.653c0.593,9.19,7.183,6.401,7.414,14.154c0.708,1.016,0.641,5.906,3.271,5.89
					c-0.421,4.108,5.216,0.695,4.435,4.273c1.793,4.273,5.115,1.508,5.927,2.043c0.07,0.137-0.773,3.325,0.412,5.368
					c0.014-0.203,12.325,12.578,19.152,11.069c-0.056-0.621,8.208,0.164,8.299,1.85c0.593,5.543,4.884,5.623,7.706,8.316
					c1.363-1.299,6.057,3.102,6.465,0.467c0.028,0.1,0.049,0.181,0.066,0.249c-0.028-0.395,0.012-1.165,0.463-2.015
					c10.462,13.354,28.576-0.55,39.247,4.998c-1.186,6.468,32.371,0.148,35.567-3.699c0.923,5.885,11.479-5.166,14.821-5.159
					c0.072-2.5,11.696-6.628,11.608-9.127c8.3,1.022,6.156-9.947,8.546-8.233c-0.08,0.321,14.611-2.414,11.284-7.44
					c2.655,1.46,2.153-2.746,2.522-3.206c0.953-1.589,1.415-5.493,0.423-7.49c4.809,7.112,4.195-6.655,7.112-5.546
					c9.579,3.64,14.41-21.066,12.137-22.237C228.396,131.52,236.87,123.663,231.591,116.187z M33.14,143.535
					c-1.78,0-2.371-3.696-2.371-3.696s2.23-3.209,3.556,0.924C35.51,144.459,34.918,143.535,33.14,143.535z M81.75,180.496
					c1.125-2.34,2.371,6.469,2.965,7.394C85.306,188.813,78.193,187.89,81.75,180.496z M91.827,188.813
					c-1.185,0.925-4.149-6.471-2.964-8.316c1.186-1.849,5.336,2.771,5.336,3.694C94.2,184.19,93.013,187.89,91.827,188.813z
					 M96.57,184.19c-0.987-2.306,2.964-0.924,3.557,0.925C100.719,186.965,97.755,186.965,96.57,184.19z M135.103,192.51
					c-3.914,2.044-3.683-6.872-0.592-8.319C142.336,180.531,139.017,190.464,135.103,192.51z M152.294,191.586
					c-0.49,1.918-3.557,0.924-4.149-3.696C148.145,187.89,153.48,186.965,152.294,191.586z M163.559,187.89
					c-1.188,0.923-5.909-6.349-3.558-7.394C168.301,176.798,164.745,186.965,163.559,187.89z"/>
			</defs>
			<use xlink:href="#XMLID_26_"  overflow="visible" fill="#FF8C90"/>
			<clipPath id="XMLID_5_">
				<use xlink:href="#XMLID_26_"  overflow="visible"/>
			</clipPath>
			<path clip-path="url(#XMLID_5_)" fill="#F16C77" d="M19.918,119.28c0,0-1.955,16.426,1.957,18.868
				c3.913,2.443,11.858,7.894,13.043,14.208c1.186,6.315,16.598,19.724,19.563,16.565c2.964-3.153,7.258,9.589,9.629,12.746
				c2.371,3.158,28.745,5.758,32.302,9.704c3.558,3.946,18.793,6.967,23.535,1.442c4.743-5.526,8.511-7.534,9.696-2.797
				c1.186,4.734,14.945,1.818,18.501-2.127c3.557-3.947,7.112-0.025,11.264-1.604c4.15-1.578,8.508-8.086,11.072-6.016
				c2.562,2.07,22.719-10.559,23.312-15.291c5.14-3.299,17.091-7.564,16.598-14.202c6.296-0.192,17.563-18.187,15.466-26.222
				c3.161,0.876,3.507-13.293-3.797-14.901C216.128,100.182,19.918,119.28,19.918,119.28z"/>
		</g>
	</g>
	<g>
		<g>
			<defs>
				<path id="XMLID_90_" d="M121.809,127.351c-62.797,0-116.433-16.448-119.983-37.859l19.998,120.582
					c2.478,14.941,47.194,26.522,99.986,26.522c52.791,0,97.508-11.581,99.985-26.522l19.997-120.582
					C238.24,110.902,184.605,127.351,121.809,127.351z"/>
			</defs>
			<use xlink:href="#XMLID_90_"  overflow="visible" fill="#FAF082"/>
			<clipPath id="XMLID_6_">
				<use xlink:href="#XMLID_90_"  overflow="visible"/>
			</clipPath>
			<path clip-path="url(#XMLID_6_)" fill="#D8D8D8" d="M254.902,89.784c-1.818,26.731-61.388,47.87-133.094,47.87
				c-71.707,0-131.275-21.139-133.094-47.87c-1.87-27.482,57.696-50.334,133.094-50.334
				C197.205,39.45,256.771,62.302,254.902,89.784z"/>
		</g>
		<path fill="#FFFFFF" d="M236.773,87.012c0.986,1.623,1.508,3.286,1.508,4.982c0,17.113-52.147,30.986-116.473,30.986
			c-64.326,0-116.472-13.873-116.472-30.986c0-1.696,0.521-3.359,1.506-4.982c-1.348-1.505-2.232-3.055-2.601-4.642
			C1.481,85.438,0,88.663,0,91.994c0,20.265,54.535,36.694,121.809,36.694c67.272,0,121.809-16.43,121.809-36.694
			c0-3.331-1.48-6.556-4.242-9.624C239.006,83.957,238.121,85.507,236.773,87.012z"/>
	</g>
</g>
</svg>
