<?xml version="1.0" encoding="utf-8"?>
<!-- Generator: Adobe Illustrator 15.0.0, SVG Export Plug-In . SVG Version: 6.00 Build 0)  -->
<!DOCTYPE svg PUBLIC "-//W3C//DTD SVG 1.1//EN" "http://www.w3.org/Graphics/SVG/1.1/DTD/svg11.dtd">
<svg version="1.1" id="レイヤー_1" xmlns="http://www.w3.org/2000/svg" xmlns:xlink="http://www.w3.org/1999/xlink" x="0px"
	 y="0px" width="261.097px" height="206.589px" viewBox="0 0 261.097 206.589" enable-background="new 0 0 261.097 206.589"
	 xml:space="preserve">
<g>
	<g>
		<defs>
			<path id="XMLID_101_" d="M241.791,59.484c0,17.577-53.717,96.799-119.982,96.799c-66.265,0-119.983-79.222-119.983-96.799
				c0-17.578,53.718-31.827,119.983-31.827C188.074,27.657,241.791,41.906,241.791,59.484z"/>
		</defs>
		<use xlink:href="#XMLID_101_"  overflow="visible" fill="#E6E7E8"/>
		<clipPath id="XMLID_2_">
			<use xlink:href="#XMLID_101_"  overflow="visible"/>
		</clipPath>
		<path clip-path="url(#XMLID_2_)" fill="#C7C8C9" d="M200.348,25.293c0,0-101.402-3.962-133.269,44.081
			c-25.816,38.924-18.763,59.96-18.763,59.96S-24.768,89.28-11.936,52.363C0.897,15.448,200.348,25.293,200.348,25.293z"/>
	</g>
	<path fill="#FFFFFF" d="M121.809,25.293c-56.218,0-103.532,11.475-117.567,27.07C4.61,53.95,5.495,55.5,6.842,57.005
		c8.959-14.744,57.017-26.003,114.966-26.003c57.949,0,106.008,11.259,114.965,26.003c1.348-1.505,2.232-3.055,2.602-4.642
		C225.34,36.768,178.026,25.293,121.809,25.293z"/>
</g>
<g>
	<defs>
		<path id="XMLID_100_" d="M165.672,79.699L249.336,0.41c2.791-2.722,14.113,8.888,11.322,11.609l-81.365,81.646
			c4.896,7.486,4.598,18.256-2.047,24.736l-19.036,18.563c-7.551,7.364-19.642,7.212-27.005-0.339l-9.688-9.935
			c-7.364-7.55-7.212-19.641,0.339-27.005l19.036-18.563C147.537,74.644,158.312,74.616,165.672,79.699z"/>
	</defs>
	<use xlink:href="#XMLID_100_"  overflow="visible" fill="#FF7E1D"/>
	<clipPath id="XMLID_3_">
		<use xlink:href="#XMLID_100_"  overflow="visible"/>
	</clipPath>
	<path clip-path="url(#XMLID_3_)" fill="#C95B11" d="M126.146,126.743c0,0,7.719,5.308,21.67-2.789
		c26.328-15.279,23.145-26.943,29.94-31.873c0,0-0.994,3.73,1.867,10.416c2.861,6.687-0.747,13.273-12.469,23.521
		c-11.721,10.245-15.441,15.111-24.642,14.22C135.525,139.561,126.146,126.743,126.146,126.743z"/>
</g>
<g>
	<g>
		<defs>
			<path id="XMLID_27_" d="M215.5,107.98c0,35.773-39.779,64.772-88.848,64.772c-49.071,0-88.849-28.999-88.849-64.772
				S56.393,8.419,126.688,8.419S215.5,72.207,215.5,107.98z"/>
		</defs>
		<use xlink:href="#XMLID_27_"  overflow="visible" fill="#FF8D8C"/>
		<clipPath id="XMLID_4_">
			<use xlink:href="#XMLID_27_"  overflow="visible"/>
		</clipPath>
		<path clip-path="url(#XMLID_4_)" fill="#F16C77" d="M118.954,77.83c-1.695,0.272-12.748,8.127-13.671,6.086
			c-0.676-1.493,9.129-10.834,9.071-13.417c-6.061-0.108-10.914,8.987-19.924,7.722c1.675-5.531,13.616-5.191,15.542-10.574
			c-5.96-1.623-1.303-3.665-7.044-0.875c-4.134,3.162,0.277-5.279-0.246-4.533c-8.683-4.064-9.366,6.989-15.102,8.772
			c0.337,0.916,5.682,0.544,6.527-0.05c-1.164,2.242-2.665,4.236-4.5,5.981c-0.252-0.717,1.489-5.417-2.72-1.876
			c1.386-1.166,1.059,6.256,1.051,6.295c5.35-9.489,9.295,5.328,3.886,8.164c-2.506,1.313-11.372-13.411-14.03-2.149
			c-3.878-8.118-3.133-0.306-12.281-0.028c-2.351,0.071-4.616-5.3-6.299-5.199c-2.584,0.156-14.023,25.398-14.174,29.715
			c1.471-1.565,3.186-2.697,5.147-3.394c-2.927,10.869,5.131-3.751,6.124-5.47c3.302-5.716-2.373-3.01-2.297-6.146
			c9.38-3.452,10.391-1.263,17.586,2.563c-6.253,6.074-7.213-4.431-10.247-2.79c3.527,3.284-1.454,5.371-0.933,9.351
			c4.813-9.414,14.859,5.776,19.719-1.885c-1.125-0.084-2.228,0.026-3.307,0.328c-4.393-6.685,5.091-9.206,4.393-9.136
			c6.174-0.626,26.884,0.892,28.3-9.003c-0.271,1.852-0.342,3.712-0.21,5.578c3.793-2.071,3.468-8.194,7.544-10.489
			c-3.501,1.972-2.765,7.851-4.476,11.078c7.573,6.967,13.327-8.429,15.681-12.271C124.898,78.585,121.517,77.419,118.954,77.83z
			 M59.458,84.003C59.219,83.721,59.687,84.274,59.458,84.003L59.458,84.003z M71.972,95.626c-0.458,0.375,2.227-6.31,2.22-2.312
			C73.651,96.735,72.912,97.506,71.972,95.626z M80.172,91.185c0.105-1.374,0.209-2.749,0.314-4.123
			C83.548,90.222,83.443,91.596,80.172,91.185z M95.326,83.651c3.717-1.164,7.196-2.827,10.437-4.987
			c-1.408,3.316-4.489,6.612-5.56,8.602C98.515,86.146,96.889,84.941,95.326,83.651z M116.936,89.991
			c-1.778-0.766-1.692-1.491,0.256-2.177C118.805,88.586,118.72,89.311,116.936,89.991z M117.571,85.125
			c-0.763-0.722-1.095-1.605-0.998-2.651c1.6-1.035,2.726-1.012,3.377,0.07C119.157,83.404,118.364,84.266,117.571,85.125z"/>
		<path clip-path="url(#XMLID_4_)" fill="#F16C77" d="M226.273,117.269c-0.307-6.146-8.003-41.29-15.145-41.673
			c1.678-4.899-13.652-10.981-16.358-12.508c-4.201-2.369-8.6-4.229-8.2-4.135c-7.513-1.75-4.213,3.871-8.861,4.475
			c-5.721-22.052,28.123,5.532,28.949,3.949c12.414-23.776-40.99-16.436-41.207-18.163c0.322-2.651,13.899-1.738,15.368-1.97
			c-0.359-1.42-1.03-2.689-1.997-3.813c0.949,1.73-22.699,2.108-24.295,1.612c0.658,0.488,1.244,0.91,1.772,1.283
			c-1.862-0.576-4.065-0.676-5.783,0.812c-0.81,0.701-6.76,5.622-6.745,7.949c0.002,0.466,16.217-7.744,17.456-4.111
			c1.093,3.201-3.813-1.145-2.604,2.099c2.121,5.689,4.003,2.662-1.81,6.242c1.854,1.064,3.84,1.841,5.953,2.333
			c-2.005-0.455-1.15,2.357-1.371,3.279c-2.808,0.956-9.818-2.413-10.033-2.352c-2.031,0.581-4.858,10.326-5.661,12.177
			c0.379,0.029,13.658-1.068,12.279-2.245c1.309,1.116,1.481,6.491,4.799,1.81c1.602,1.951,2.208,4.156,1.821,6.615
			c-1.439,0.889-2.284,0.379-2.534-1.528c-1.332,0.654-2.059,1.73-2.18,3.231c-1.926-7.49-13.879-8.434-22.307-7.909
			c4.77-0.297,10.016,7.383,6.926,6.103c-0.295-0.122-2.029-6.304-3.922-2.869c0.932-1.688-8.178,2.199-3.781,1.63
			c-5.727,0.741,0.871,5.376,0.52,6.829c0.199-0.088-2.951-2.669-6.956-4.992c-0.322,2.668-3.576,7.022-3.175,8.166
			c1.553-0.438,17.745-2.95,17.836-5.589c-0.041,1.157-4.15,7.471-5.619,7.862c0.268-0.458-5.512-5.376-2.586,1.035
			c-5.936,0.776-19.716,6.788-25.456,5.744c-0.788-1.478-0.447-2.835,1.022-4.071c-3.16-9.553-33.227,18.065-29.725,20.263
			c4.31,2.701,5.478-4.262,5.173-4.22c3.953-0.547,12.663,1.925,16.622-0.005c0.423,1.094-5.958,6.222-2.555,7.11
			c2.954,0.176,3.424-0.642,1.409-2.452c-0.912-0.508,17.163-1.62,17.006-1.558c-0.36-1.989,0.033-3.808,1.174-5.455
			c2.126,0.1,41.399-3.511,37.316-9.757c-1.503-0.309-2.81-0.998-3.917-2.068c1.603,0.006,3.068-0.409,4.396-1.243
			c-2.287-7.68,5.834-6.8,14.977-8.684c-11.77,7.521-15.188,17.95-28.637,22.086c-5.955,1.832-13.098,2.257-18.688,4.189
			c-1.195,0.413-2.937,8.104-8.077,6.598c1.103-0.746,1.085-1.297-0.053-1.65c-1.359,1.633-2.647,3.321-3.861,5.065
			c2.529-6.184,0.18-7.668-7.048-4.456c0.333,2.228-4.511,1.927-8.762,3.089c0.169-0.047,1.918-5.535-7.155-3.224
			c-1.68,0.97,2.559,1.934,4.379,2.288c-2.728,0.476-11.507,3.801-13.003,5.753c-0.492-1.906-0.699-3.852-0.615-5.838
			c-9.251,1.799-15.356-3.677-16.619,7.947c-3.138-1.862-5.316-1.42-6.534,1.327c-0.315,2.553-0.977,5.007-1.982,7.361
			c-13.414,3.183-28.486-28.844-33.789-36.783c-16.847,73.322,53.507,95.988,112.982,84.184c27.801-5.52,58.107-17.34,77.214-39.195
			C221.426,136.775,226.824,128.239,226.273,117.269z M199.663,55.493c1.624,0.871,2.55,2.243,2.775,4.117
			c0.329,1.472,0.632,2.948,0.909,4.43C202.771,63.76,197.799,55.428,199.663,55.493z M188.135,52.775
			c1.706-1.128,3.441-1.253,5.205-0.379C194.623,53.701,185.975,54.479,188.135,52.775z M185.334,51.45
			C188.525,51.438,182.629,51.487,185.334,51.45L185.334,51.45z M136.252,83.037c1.248-1.404,2.424-1.524,3.767-0.489
			C138.767,81.85,137.758,83.521,136.252,83.037z M155.749,78.301C157.117,78.377,154.461,78.229,155.749,78.301L155.749,78.301z
			 M149.235,79.826c-0.563,1.059-1.985,1.056-2.023,2.336C146.863,80.521,147.246,79.563,149.235,79.826z M143.838,92.212
			c1.734,1.923-7.008,3.162-6.697,0.943c6.212-1.09,15.723-8.474,20.527-12.24C157.16,88.525,145.68,86.039,143.838,92.212z
			 M167.189,61.875c-2.94,0.596-3.137-0.404-0.588-3C168.27,60.217,168.466,61.218,167.189,61.875z M122.355,123.365
			c-0.587-0.348,6.879,3.539,1.202,2.663C120.912,126.805,122.049,123.184,122.355,123.365z M121.272,133.893
			c4.929-4.304,12.538-3.211,14.372-4.358C130.845,132.536,115.222,139.177,121.272,133.893z M118.172,157.553
			c-1.625,1.119-3.135,2.316-5.318,2.196C114.32,157.944,115.963,157.09,118.172,157.553z M114.995,145.945
			c1.414-1.888,1.876-3.975,1.389-6.261c-0.005,0,5.333-2.516,5.38-0.947C121.856,141.798,117.815,145.391,114.995,145.945z
			 M109.405,122.85c0.033,1.438-0.815,1.407-1.876,1.244C107.875,123.039,108.602,122.877,109.405,122.85z M108.375,125.101
			c-0.436,2.148-1.45,3.079-3.043,2.788C106.345,126.959,107.36,126.03,108.375,125.101z M94.979,124.431
			C94.769,124.566,94.869,124.502,94.979,124.431L94.979,124.431z M73.858,125.458c0.039,1.326-0.517,2.381-1.668,3.162
			C68.891,128.716,71.902,122.452,73.858,125.458z M72.4,131.397c4.11,3.05,5.479-6.267,8.355-7.234c0,0-0.794,5.249-0.354,5.479
			c1.332-0.235,2.672-0.4,4.021-0.494c1.587,7.175-15.137,3.852-17.209,2.553C68.865,130.499,70.594,130.398,72.4,131.397z
			 M68.439,136.684c-0.983-1.397,6.923-0.156,6.378,1.679C74.104,140.756,69.153,137.2,68.439,136.684z M71.255,144.172
			C69.93,144.537,70.787,142.991,71.255,144.172L71.255,144.172z M77.231,142.302c-1.983-0.56-3.463,0.083-4.44,1.928
			c-0.187-1.219-0.375-2.439-0.562-3.658C74.563,139.626,76.23,140.203,77.231,142.302z M61.771,130.994
			c0.436-0.343,0.759-0.635,0.994-0.883c0.309,0.121,0.72,0.24,1.265,0.351C65.191,130.697,59.454,132.813,61.771,130.994z
			 M65.015,135.156C64.945,139.038,62.015,132.387,65.015,135.156L65.015,135.156z M59.266,143.479
			c-1.138,2.687-2.303,2.667-3.496-0.06c3.666-0.26,2.11-6.249,7.142-4.88c4.206,1.146,3.775-1.407,8.101,3.651
			c-0.099,0.079-8.439,3.715-8.43,3.581c-0.069,1.079,7.048,1.734,7.219,1.435C66.636,152.712,59.62,147.293,59.266,143.479z
			 M69.038,157.004c20.185,2.9,6.762-11.001,4.488-7.763c2.806-6.977,10.465-12.939,12.925-19.291
			c0.856-2.212,5.598-3.707,6.911-6.476c0.771,3.951-9.417,10.291-8.937,11.23c1.255,0.521,12.147-0.322,11.38-1.009
			c-0.757-0.072-1.517-0.11-2.277-0.124c1.757-0.242,3.976-4.181,4.44-4.707c-5.428,12.01,19.859-4.79,21.663-5.12
			c-6.652,9.438-14.503,7.686-21.815,14.683c-0.07,0.067,4.78,2.809,6.328,3.147c-1.161,3.008-17.426,3.612-16.474,3.408
			c-0.62,0.134-9.618-5.906-9.965,1.815c0.239-0.12,10.09,3.168,10.621,3.695c0.646,0.641-10.472,6.644-4.83,7.24
			C78.589,158.353,76.588,163.533,69.038,157.004z M77.152,150.889c1.346-0.837-1.696,4.225-1.625,3.371
			C70.722,151.68,76.464,151.316,77.152,150.889z M88.064,153.021c2.178,0.386,2.374,0.907,0.585,1.567
			C88.115,154.353,83.912,153.266,88.064,153.021z M93.063,157.831c-3.801,0.763-6.356,0.821-5.832-0.579
			c0.204-0.547,8.612-4.281,9.048-4.644c-1.176,1.648-2.294,3.333-3.354,5.057C92.971,157.728,93.017,157.774,93.063,157.831z
			 M100.562,148.897c0.461,0.431,6.504,2.826,6.637,2.867c1.903-1.457,7.482-7.684,9.663-1.232
			c0.18,0.075-11.259,4.181-19.991,6.416C98.776,154.313,100.293,149.533,100.562,148.897z M112.968,165.32
			c-1.831-0.751-1.504-1.416,0.98-1.994C118.652,161.833,112.243,166.621,112.968,165.32z M137.477,159.377
			c-5.023-0.32-17.885,7.46-20.777,6.426c-6.234-2.229,19.074-13.494,23.685-7.61C142.566,160.976,136.573,158.418,137.477,159.377z
			 M130.083,151.488c-5.304-2.803,0.077-0.982-9.861-0.822c-2.632,0.044,10.586-4.769,10.001-5.109
			c-1.659-1.22-1.603-2.388,0.167-3.504c2.023,3.187,11.633,5.262,14.068,1.566C145.609,146.758,132.207,152.611,130.083,151.488z
			 M140.883,136.056c0.413-0.959,2.201-1.973,3.242-1.177C144.486,136.578,143.406,136.971,140.883,136.056z M134.658,127.895
			c0.002,0.002-6.441-4.744,0.328-4.662c3.213,1.516,6.666-1.666,9.52-0.334C146.539,123.848,136.145,129.831,134.658,127.895z
			 M204.303,77.813c-1.092,0.97-2.098,1.859-3.429,0.985C200.94,77.13,202.084,76.802,204.303,77.813z M191.509,79.555
			c0.419-0.092,3.583-3.515,5.495,0.6C198.152,80.829,191.98,79.615,191.509,79.555z M177.455,85.767
			c2.742-0.733,10.622-4.633,10.178,1.338C184.209,86.896,180.817,86.451,177.455,85.767z M181.68,90.73
			c-1.076-0.5-2.152-1-3.228-1.5C182.673,86.723,183.748,87.223,181.68,90.73z M189.462,86.572c0.489-0.548,4.574,0.66,0.013,1.395
			C187.023,87.313,187.02,86.85,189.462,86.572z M188.121,79.248c0.512,0.191,0.729,0.232,0.906,0.345
			C194.164,82.876,188.511,81.49,188.121,79.248z M196.721,66.124C196.934,65.787,196.436,66.579,196.721,66.124L196.721,66.124z
			 M192.721,63.591c9.326,2.39-3.486,9.978-4.838,8.309C187.227,71.091,196.275,67.948,192.721,63.591z M186.051,66.921
			c0.262,0.205,1.826-1.878,2.699-3.034c-1.831,2.75-2.772,7.902-10.726,3.824C180.5,65.361,183.176,65.099,186.051,66.921z
			 M176.059,51.304c0.102,2.2-0.865,2.804-1.195,4.893C174.799,54.231,172.373,56.044,176.059,51.304z M173.324,77.758
			c1.213-16.268,6.012-4.998,9.34-3.495c-0.576,0.639-0.972,1.466-1.182,2.49c2.522-0.635,5.084-1,7.68-1.118
			C185.609,76.43,172.801,84.775,173.324,77.758z M146.518,146.086c1.059-2.367,1.919-2.691,2.577-0.971
			C147.99,147.222,147.131,147.546,146.518,146.086z M151.355,145.199c-2.211-1.654,4.527-3.897,5.16-3.885
			C158.846,141.364,151.42,145.247,151.355,145.199z M155.762,124.454c1.834-0.726,2.425-1.909-0.021-3.519
			c1.234-0.556,13.132-3.771,11.325-8.027C170.115,120.095,162.163,123.191,155.762,124.454z M171.178,124.635
			c0.896-2.896,2.452-4.265,4.666-4.103C176.333,121.548,171.673,124.423,171.178,124.635z M176.667,107.159
			c-3.677,2.906-13.88,2.494-17.935,0.646c2.906-0.737,5.809-1.491,8.705-2.262C168.009,105.896,177.678,105.983,176.667,107.159z
			 M175.559,95.355c0.825-1.044,1.837-1.239,3.033-0.584c3.093,2.153,10.693,1.818,14.144,1.358
			C196.938,102.085,176.473,94.897,175.559,95.355z M195.234,98.695c-2.114-3.96,4.906-3.525,4.037-7.434
			c1.864,0.446,3.646,1.122,5.348,2.027C204.128,96.467,198.225,100.012,195.234,98.695z M204.047,74.194
			c1.32,0.008,2.642,0.016,3.963,0.023C207.881,75.477,202.322,76.613,204.047,74.194z"/>
		<path clip-path="url(#XMLID_4_)" fill="#FFCAC4" d="M47.634,111.091c1.24,1.242,5.55-2.239,1.341,2.341
			c-0.583-0.283-1.307-1.396-1.439-2.143c-1.33,2.726-3.563,4.836-7.356,5.427c0.955,1.463,9.479,4.228,8.844,5.195
			c-0.758,0.81-1.463,0.881-2.115,0.222c-1.93,2.271,1.637,5.654,3.702,6.328c-0.287-0.821,1.562-3.449,2.858-3.418
			c-0.45,1.553-0.292,1.799-1.436,3.251c3.523-0.542,7.028-4.174,10.033-4.894c1.49,2.263-3.738,1.972,0.623,2.421
			c0.118,1.241,3.068-0.493,5.081-0.623c4.791-4.566,3.03-3.921,3.69-6.647c4.96-0.727,4.103-7.861,10.492-7.276
			c-5.584-3.808-14.558,3.819-15.054,6.049c1.213,0.917,0.726,7.664-1.211,7.106c1.907-1.941,0.188-2.578-1.384-2.372
			c-0.01,0.386-0.233,0.701-0.647,0.952c0.837-1.248,0.464-8.243-3.016-6.547c-1.631,0.795-0.183,4.324-1.6,4.479
			c-4.064,0.444-12.672-3.384-8.207-6.865c2.538-0.552,1.75,2.953,1.823,3.435c2.631,0.184,5.413-3.171,6.807-0.421
			c0.722-0.528,2.032-4.251,1.778-4.346c-1.764-0.66-4.618,2.196-6.566,1.669c1.62,0.248,5.676-3.792,6.167-3.979
			c-3.056-1.396-0.04-4.413,3.542-4.992c0.713-0.115,0.529,6.05-0.045,6.843c2.35-0.273,2.744-4.575,6.923-4.683
			c-0.326-1.127-2.996,0.354-3.133-1.107c3.686,0.116,11.633-4.642,16.307-3.256c-0.587,0.357-1.095,0.753-1.522,1.185
			c0.64,2.721,5.106-4.901,5.129-4.893c4.598,1.618-0.426,3.353,7.586,0.664c1.964-0.658,18.309-9.49,12.397-8.337
			c-2.583,0.504-4.346,1.889-7.22,2.369c-1.829,0.306-4.319,2.068-4.997,2.135c-4.731,0.463-0.375-3.58-4.116,0.544
			c-0.074,0.08-10.262-0.556-10.332-0.563c-4.394-0.412-4.762,2.485-6.195-0.685c-1.275-2.821,2.556-4.873,6.051-5.581
			c0.592-3.65-15.146,6.652-15.017,10.07c1.404-0.176,5.497-4.772,4.064,0.165c-0.148,0.51-8.555,5.498-7.723,5.588
			c-0.255-0.028-2.576-1.145-2.652-1.202c-0.291,0.247-6.9,5.853-7.906,7.108c0.217-1.099,1.233-5.507,1.896-6.568
			c1.015-1.624,3.124-4.35,4.795-5.926c1.889-1.779,3.843-0.938,5.195-2.951c-0.182-0.065-2.862-0.195-2.36-0.479
			c1.339,0.28,2.393-0.154,3.15-1.313c-0.217-4.176-4.854-1.104-7.122,1.179c-4.042,4.066-2.123,7.843-8.436,10.136
			C48.823,107.692,48.383,109.485,47.634,111.091z M55.75,124.373c3.646-0.754-0.376,1.47-0.852,1.758
			C54.932,125.475,54.377,124.658,55.75,124.373z M100.571,94.908c4.326,0.662-2.945,2.345-2.557,1.256
			C98.487,95.354,99.336,94.934,100.571,94.908z M82.064,99.441c4.104,1.947-1.429,2.097-3.149,1.865
			C79.967,100.029,82.134,101.504,82.064,99.441z"/>
		<path clip-path="url(#XMLID_4_)" fill="#FFCAC4" d="M196.353,49.523c-3.599-1.483-4.432-3.24-7.497-4.929
			c-1.408-0.776-10.669-4.655-1.639-4.826c-0.558-0.888-1.189-1.706-1.889-2.464c1.714,2.451-10.58,1.419-11.97,0.852
			c-2.513-1.025-15.136-3.661-14.462-8.284c0.714-4.913,16.984,7.769,19.953,6.768c2.967-1-4.051-4.772-5.938-3.802
			c-1.599-2.897-12.963-4.316-11.077-10.363c0.31-0.994,7.039-0.137,4.824,3.808c4.04,1.188,3.794,2.641,7.978,3.654
			c2.448,0.593,4.735,4.892,6.318,5.402c1.141,0.37,2.04-3.063,2.321-2.902c4.476,2.542,10.845,11.691,16.06,11.544
			c-7.359-13.741-27.459-41.396-71.73-46.923c-11.281-1.408-50.408,20.089-59.425,26.855c-15.138,11.36-43.647,53.258-43.102,57.09
			c0.349,2.44,12.889,26.966,13.594,30.451c1.324-9.696,8.824-15.104,10.106-16.431c0.813-0.842,4.781-2.83,5.157-3.323
			c2.087-2.729-0.975-4.117,1.354-8.242c0.812-1.438,3.38-8.436,7.105-9.217c-0.17,1.156,0.944,5.121,1.551,6.017
			c-0.442,0.273-1.143,0.64-1.378,0.791c3.69,1.844,8.403-9.444,16.355-6.02c-3.347,0.986,1.563,4.19-0.494,6.455
			c-0.517,0.569-6.36,3.69-7.251,2.035c-0.522-0.968,3.044-4.118,1.432-5.141c-4.822-3.059-2.554,1.427-3.641,2.714
			c-0.437,0.519-3.526,8.722-3.474,8.718c-2.685,0.167-2.313-4.041-3.219-3.933c0.299-0.036-5.294-0.291-3.344,1.767
			c4.542,4.792,12.817,3.868,16.613-2.486c0.1,2.063,0.902,3.111,2.409,3.146C75.843,77.395,90.44,80.04,94.87,74.938
			c-1.227-2.391-11.264,1.354-13.837,0.847c3.375-4.139,7.178-5.257,10.494-7.68c4.472-3.267,5.2-5,11.395-3.281
			c-0.74,0.793-1.187,1.732-1.34,2.819c1.875,0.525,4.081-1.788,3.955-2.019c0.846,1.56,6.377,3.295,6.007,5.502
			c-0.276,1.649-13.344,6.153-14.316,5.982c1.295,1.697,0.79,3.479-1.517,5.346c1.863-0.926,4.314-1.335,6.482-2.354
			c-0.625,0.294,7.164-2.393,4.927-3.028c2.902,0.825,1.287,2.521,4.374,1.58c1.686-0.515,3.238-4.854,5.369-4.277
			c-0.25,4.81-6.253,6.26-6.458,10.559c3.485,1.552,13.843-2.666,18.604-3.013c5.951-0.436,12.164-1.425,18.125-0.873
			c3.636,0.336,17.156,6.143,18.274-1.007c-3.553-6.156-12.701,9.382-12.556-3.218c-0.929,0.736-8.245,3.585-6.472,0.07
			c-0.09,0.178,5.051-4.998,5.348-5.273c1.613-1.5,2.516-0.259,7.201-1.275c4.686-1.016,0.146-1.676-0.178-2.031
			c0.434-1.15,9.106,1.2,8.664-2.771c-0.441-3.974-10.053,0.85-12.973,1.014c-0.219,0.012-10.375-2.17-10.287,0.813
			c0.053,1.779,5.898-0.208,5.61,3.528c-0.223,2.881-5.721,3.214-7.343,4.233c-5.223,3.281-11.165,7.064-15.827,3.245
			c-3.988,0.422-12.472,4.93-6.835-3.968c0.836-1.32,8.002-5.764,7.284-1.642c-1.166,0.097-2.33,0.212-3.493,0.349
			c4.764,6.325,11.931-6.445,15.523-8.516c4.638-2.674,6.327-1.5,11.158-2.612c6.475-1.49,9.9-5.691,15.707-7.917
			c-2.293-1.311-10.393,2.712-12.715,3.019c-1.973,0.26-2.283,3.622-4.699,2.418c-0.576-0.288-3.18-6.877-2.99-7.78
			c0.867,2.58,7.61,3.079,8.314,1.231c1.592-4.184-13.115-2.815-11.725-5.898c2.031-2.028,10.641,1.831,11.83,2.164
			c4.543,1.275,8.125,3.902,13.25,1.196c-3.59,0.004-5.311-0.449-8.447-2.024c0.408-0.317,2.07-2.278,2.377-2.694
			c0.523,0.287,15.568,4.951,17.703,4.589c1.808-0.308,3.75-3.477,6.111-3.546c3.306-0.098,4.694,2.627,7.432,4.488
			c-0.697,0.57-1.45,0.671-2.258,0.302c1.781,3.253,11.125,3.325,13.223,0.349C201.447,50.98,198.586,50.445,196.353,49.523z
			 M179.768,27.398c-0.986-0.783-2.516-0.525-3.415-2.328C177.897,25.68,179.219,25.756,179.768,27.398z M104.392,77.461
			C104.386,77.66,104.388,77.604,104.392,77.461L104.392,77.461z M159.287,21.495c-1.094-0.114-2.145,0.285-3.379-0.825
			C157.22,20.527,158.32,19.366,159.287,21.495z M160.053,22.648c-0.128,0.716-0.375,1.382-0.738,1.998
			c0.723,0.036,1.429,0.176,2.117,0.419c1.037,0.637-8.581,0.433-8.283-1.977C155.377,21.886,157.679,21.739,160.053,22.648z
			 M156.714,32.033c-0.743,1.149-7.16-7.634-0.557-6.773c-1.583,1.88-1.263,2.766,0.949,2.666
			C156.017,28.733,157.473,30.859,156.714,32.033z M147.958,26.932c1.545,0.947,2.55,1.837,3.376,3.069
			c5.483,8.184-4.659,0.93-7.492,3.813c-8.698-1.736-2.145-7.604,1.047-9.423C146.867,26.784,144.787,24.987,147.958,26.932z
			 M145.672,20.778c0.563,2.724-6.701,3.76-8.456,3.995c-1.308,0.176-1.306,1.678-1.841,1.676c-2.06-0.007-6.042-2.852-8.621-3.302
			c0.72,0.912,15.264,8.872,11.751,10.388c-1.581,0.683-3.5-3.812-4.017-3.753c-1.829,0.206-0.566,1.72-1.918,1.979
			c1.521,1.434,3.348,2.279,5.479,2.537c-0.91,0.844-8.25,15.179-11.542,10.391c1.376,2.002,7.021-10.077,7.29-10.801
			c1.113,0.235-4.299-1.861-4.225-1.852c-0.516,0.599-0.644,1.391-0.381,2.374c-2.969,1.974-3.594-11.577-5.84-13.331
			c0.878-0.731,8.88,1.099,10.367,0.855c1.996-0.327-0.122-1.682,2.853-1.8C138.104,20.076,145.547,20.461,145.672,20.778z
			 M114.146,15.808c5.454,3.292,11.878-0.933,11.505-0.481c6.866,1.006,12.874-0.945,9.511,1.122
			c-5.215,3.206-24.318,3.763-26.124,1.734C106.247,15.047,112.408,14.324,114.146,15.808z M104.904,21.578
			c5.34,1.284-4.381,3.339-10.641,6.405C90.562,29.797,99.562,20.293,104.904,21.578z M96.967,44.874
			c0.704,0.672,1.085,1.493,1.147,2.46c-0.218-0.233-5.773,1.034-6.063,1.016c-0.896-0.499-1.164,0.417-1.022-1.366
			c-0.375,0.037-0.71,0.127-1.013,0.26C91.662,44.793,94.242,41.356,96.967,44.874z M87.714,55.883
			c0.887-0.757,1.587-1.481,1.899-2.04C90.925,56.593,88.759,55.831,87.714,55.883z M88.359,28.844
			c0.796,0.941,1.948,10.965-0.143,10.586c-1.801-0.328,2.535-9.12-1.124-7.623C80.758,30.214,84.583,24.371,88.359,28.844z
			 M86.404,39.863c-5.13,4.588-4.194-2.11-4.837-3.061C82.327,36.86,84.534,41.188,86.404,39.863z M77.457,36.509
			c0.364,0.266-3.425,7.852-4.416,7.967c-1.542,0.177-5.105,1.134-5.433,0.835C64.416,44.541,76.788,36.863,77.457,36.509z
			 M41.208,95.701c-0.553-3.204,0.169-4.587,1.666-6.429C42.763,91.835,43.243,93.708,41.208,95.701z M45.85,87.559
			c1.132-0.396,7.399-10.187,7.582-6.705C53.542,82.963,47.985,88.24,45.85,87.559z M46.654,78.064
			c-0.864-7.54,6.979-11.644,8.222-12.693C54.103,66.997,49.126,78.56,46.654,78.064z M64.662,66.412
			c-0.877,1.158-7.344,4.99-8.715,4.178c1.22,0.723,2.364-11.729,5.19-4.874C62.732,65.927,68.202,61.733,64.662,66.412z
			 M70.798,54.552c3.866-0.346-2.923,11.373-3.887,4.074C66.25,55.762,69.305,54.686,70.798,54.552z M77.037,68.225
			c-0.639,0.748-9.825,1.467-10.054,0.498c-0.466-1.975,7.346-12.484,7.963-7.442C75.409,64.07,79.381,65.48,77.037,68.225z
			 M75.07,52.274c-0.009,0.055,1.59-4.442,2.052-2.73c0.336-0.456,9.034-3.171,8.927-1.126
			C85.931,50.675,74.637,54.957,75.07,52.274z M99.271,59.943c-3.041,1.045-5.863,2.491-9.11,3.009
			c-6.379,1.018-2.269-0.212-5.825-1.575c-1.314-0.502-2.988-0.564-4.17-1.406c0.76,0.541,4.454-1.587,7.038-3.665
			c0.057,0.504,0.778,1.57,2.771,3.772c0.959-1.069,11.042-9.865,10.989-9.904c1.461,1.068-2.744,3.79-0.02,5.931
			c1.409-0.552,1.955-6.903,8.318-7.892c6.363-0.987,2.696-4.291,0.996-5.646c-1.471-1.174-4.001,0.355-5.63-0.014
			c-4.792-1.084-6.012,2.666-4.788-4.668c0.935-5.599,4.239-3.224,6.113-7.533c-0.543-0.394-1.052-0.832-1.525-1.316
			c0.697-0.716,12.904,0.979,12.058-0.333c2.103,1.333,4.966,4.589,2.708,6.51c-3.268,2.778-15.066-0.222-11.765,2.077
			c2.915,2.03,6.452,2.753,10.086,2.875c-0.069,0.071,7.839-3.091,6.968-0.384c-0.376,1.172-9.224,4.4-9.169,4.216
			c-0.722,2.363,7.722,0.941,6.993,3.643c0.312-1.563-9.75,4.008-9.179,3.069c-1.648,2.269,2.287,10.034-1.42,9.546
			c-3.33-0.438,0.759-2.78-2.937-3.137C106.185,56.867,101.603,59.143,99.271,59.943z M137.52,47.442
			c0.846-0.008,2.116,1.481,0.463,2.962c0.861-0.771-2.96,0.499-3.324,0.494c1.09,2.033-6.195,3.639-4.689,5.183
			c0.3,0.308,7.735-1.295,8.683-0.994c5.594,1.771-0.631,1.102-7.939,3.719c-2.587,0.926,0.154,4.068-2.482,4.929
			c-3.191,1.043-3.841,3.442-6.234,4.18c-0.134,1.237-0.708,2.223-1.721,2.957c-1.204-0.284-2.275-0.851-3.216-1.701
			c-2.174-0.077-7.501,0.445-7.675-3.242c1.844-4.05,8.908,0.884,11.215-3.1c0.06-1.32,0.047-8.203,3.55-8.785
			c-0.819,0.032-1.886,0.135-2.012,0.451c0.279-0.544-0.434-3.94,0.848-3.924c4.615,0.061,4.604,2.653,9.352-1.745
			c4.389-4.065,5.135-9.702,10.992-5.085C140.902,46.414,138.289,42.186,137.52,47.442z M142.099,36.781
			c1.683-5.444,4.215,2.288,4.157,2.248c2.055-2.553,4.717,0.147,5.58-0.145c-0.376,0.092-3.523,0.942-4.25,0.701
			C147.188,43.582,140.688,41.345,142.099,36.781z M168.636,44.697c-2.825,2.19-0.969-0.81-3.448-0.546
			c-1.349,0.144-3.99-1.043-5.875,0.366c0.443,0.824-10.016,3.397-11.371,0.492c0.504,1.081,6.025-5.633,5.68-5.456
			c2.963-1.511,2.738-1.604,6.965-1.266c1.785,0.143,9.463,0.806,10.779,3.103C169.985,42.45,169.537,43.999,168.636,44.697z
			 M173.166,47.32c-1.551,0.273-2.796-0.265-3.733-1.616c2.642-0.08,8.153-1.262,11.743-1.923
			C177.479,44.462,178.357,50.412,173.166,47.32z"/>
	</g>
	<path fill="#DB4956" d="M45.916,134.221c2.559-0.767,1.99,9.275,6.141,3.886c-0.858,1.504,1.222,2.876,2.047,4.021
		c0.318,0.329,1.835,2.362,2.047,2.659c-1.316,1.286,4.439,1.031,4.605,4.155c0.058-0.472,3.655,2.374,3.583,2.14
		c2.064-1.334,5.63,8.099,12.795,7.105c-0.075,1.845,4.543,3.276,4.605,5.119c2.885-0.103,13.929,15.781,14.726,11.413
		c2.76,2.746,29.64,5,28.616,0.263l31.49,3.894c0,0,13.531-10.35,14.709-9.43c2.436-2.068,5.574-3.198,6.085-7.306
		c0.079-1.245,15.927-15.524,15.938-15.376c1.023-1.54,2.5-2.996,2.559-3.098c0.701-0.418,3.57,1.524,5.119-1.679
		c-0.676-2.619,3.946-2.371,3.581-5.393c2.271-0.063,2.459-1.563,3.071-2.334c0.199-5.727,3.582-1.656,4.094-8.452
		c2.047-0.069,4.417-3.749,3.582-7.653c0.438,0.254,2.008-1.151,1.535-3.294c0.004,0.633,1.535-1.129,1.535-4.142
		s-3.342-17.618-4.365-21.027c-6.354-2.647-1.827,7.76-7.484,15.227c2.42,2.913-7.65,7.051-5.882,17.194
		c-2.489,1.131-1.966,4.454-4.524,4.978c-0.338,0.27-7.938,8.545-5.891,6.217c-0.191-2.31-2.621,2.293-4.605,0.907
		c0.344,0.418,1.318,1.99,1.479,2.027c-0.229,2.969-11.031,10.524-13.72,14.356c-0.884-1.275-5.144,1.278-6.167-3.207
		c-7.84,12.882-5.564,4.719-14.048,8.635c-14.329,6.616-9.027-1.976-14.464,1.233c-0.607-3.583-25.784,5.867-26.749,2.714
		c-2.374,1.1-15.379-3.586-13.844-6.365c1.536-2.777-7.8,2.198-16.5,0.444c-3.085-5.808-2.959-7.552-6.529-8.536
		c-0.119-1.024-6.653-4.551-4.606-6.664c2.047-2.114-5.91-4.427-9.724-5.812c0.433-0.96,3.057,5.373,2.047,4.705
		c0.024,1.512-4.392-4.563-5.117-4.602c0.03-1.242-2.749-10.232-4.376-10.802c-0.646,0.833-0.684,1.752-1.369,2.572
		c0.222,0.284-0.772-1.483-0.909-1.262c-0.214-3.979,0.259-5.821-0.511-6.633c-4.639,4.289-0.032-4.234-5.117,0.171
		c-0.944-3.103-1.635-5.309-4.016-3.784c-1.458,0.202-2.049-1.364-3.073-4.092c0,0-2.048,2.045-1.1,4.741
		c-1.42,0.246,1.587,7.488,1.024,6.784C36.278,121.771,43.357,134.988,45.916,134.221z"/>
	<g>
		<defs>
			<path id="XMLID_26_" d="M221.523,108.782c4.795-10.918-4.947-17.491-7.508-19.089c0.227,1.097,0.46,19.561-1.588,22.754
				c-2.383-1.69-4.191,2.256-3.072,7.984c-5.09-4.959-0.48,8.034-5.121,3.192c-0.771,0.981,2.263,1.72,2.047,6.388
				c-0.111-0.211-5.12,9.348-5.12,3.991c0-8.782-4.127,4.136-4.097,5.589c-0.726,0.074-5.146,7.36-5.121,5.589
				c-0.814,0.662,0.732-4.087,1.59-5.379c-3.955,1.792-11.24,5.471-9.271,7.774c2.049,2.395-3.978,7.578-4.097,8.782
				c-4.097,2.394,0-7.985-7.681,3.991c-0.039,0.011-0.078,0.02-0.115,0.03c0.638,1.55,0.746,3.224-0.909,3.962
				c-2.495,1.111-5.233-0.1-4.599-2.821c-6.739,1.065-12.483,1.111-11.276,3.619c1.536,3.193-8.892-0.402-11.266-1.597
				c-0.966,3.73-28.069-2.623-28.677,1.597c-5.441-3.544,2.56,7.186-11.778,0c-8.488-4.253-17.923,0-15.875-3.193
				c2.048-3.194-5.906-3.548-6.79-2.02c-2.183-3.557-15.945-16.144-13.694-11.554c1.336,2.729-2.106,2.48-2.049,2.396
				c-5.633-3.192-1.711-6.083-2.048-6.387c-2.56-0.512-6.642-7.66-7.169-5.588c1.769-11.946-12.151-14.058-9.729-17.565
				c-8.194-0.881-6.948-17.036-8.706-20.757c-1.772-0.997-7.453,3.194-7.453,9.792c0,3.528,5.506,8.913,5.51,8.172
				c-3.857,4.731-1.335,16.827,4.757,16.113c0.512,7.939,6.205,5.529,6.405,12.229c0.612,0.879,0.554,5.105,2.826,5.091
				c-0.364,3.552,4.505,0.602,3.831,3.694c1.549,3.691,4.419,1.303,5.121,1.765c0.06,0.118-0.669,2.873,0.355,4.637
				c0.012-0.175,10.647,10.866,16.544,9.563c-0.048-0.536,7.091,0.142,7.169,1.598c0.513,4.789,4.219,4.857,6.657,7.185
				c1.177-1.123,5.232,2.679,5.584,0.402c0.024,0.087,0.042,0.156,0.057,0.216c-0.024-0.341,0.01-1.006,0.4-1.741
				c9.038,11.537,24.685-0.474,33.902,4.317c-1.024,5.588,27.963,0.129,30.726-3.194c0.797,5.084,9.915-4.463,12.802-4.457
				c0.063-2.159,10.104-5.726,10.027-7.884c7.17,0.883,5.318-8.593,7.383-7.112c-0.07,0.277,12.621-2.086,9.748-6.428
				c2.293,1.261,1.859-2.374,2.178-2.771c0.825-1.374,1.223-4.749,0.365-6.476c4.154,6.147,3.625-5.748,6.145-4.791
				c8.275,3.144,12.447-18.198,10.484-19.209C218.764,122.027,226.084,115.24,221.523,108.782z M50.094,132.406
				c-1.537,0-2.048-3.192-2.048-3.192s1.927-2.772,3.072,0.798C52.142,133.205,51.63,132.406,50.094,132.406z M92.085,164.342
				c0.972-2.021,2.048,5.588,2.561,6.387C95.158,171.526,89.013,170.729,92.085,164.342z M100.791,171.526
				c-1.024,0.799-3.584-5.589-2.561-7.185c1.024-1.597,4.609,2.395,4.609,3.192C102.84,167.534,101.815,170.729,100.791,171.526z
				 M104.888,167.534c-0.852-1.992,2.561-0.798,3.073,0.799C108.472,169.93,105.912,169.93,104.888,167.534z M138.174,174.721
				c-3.381,1.766-3.182-5.937-0.512-7.187C144.422,164.373,141.555,172.954,138.174,174.721z M153.024,173.922
				c-0.425,1.657-3.073,0.799-3.585-3.193C149.439,170.729,154.049,169.93,153.024,173.922z M162.754,170.729
				c-1.024,0.798-5.103-5.483-3.072-6.387C166.852,161.147,163.779,169.93,162.754,170.729z"/>
		</defs>
		<use xlink:href="#XMLID_26_"  overflow="visible" fill="#FF8C90"/>
		<clipPath id="XMLID_5_">
			<use xlink:href="#XMLID_26_"  overflow="visible"/>
		</clipPath>
		<path clip-path="url(#XMLID_5_)" fill="#F16C77" d="M38.673,111.454c0,0-1.688,14.189,1.69,16.299
			c3.379,2.11,10.243,6.818,11.267,12.272c1.024,5.455,14.338,17.046,16.899,14.318c2.561-2.727,6.27,8.283,8.318,11.011
			c2.048,2.728,24.831,4.974,27.904,8.382c3.073,3.409,16.234,6.019,20.331,1.246c4.097-4.773,7.352-6.508,8.376-2.416
			c1.024,4.09,12.909,1.571,15.981-1.838s6.146-0.021,9.73-1.385c3.584-1.363,7.35-6.985,9.564-5.197
			c2.213,1.789,19.625-9.12,20.137-13.212c4.439-2.851,14.764-6.539,14.339-12.272c5.438-0.166,15.171-15.711,13.358-22.651
			c2.731,0.757,3.029-11.483-3.279-12.872C208.166,94.956,38.673,111.454,38.673,111.454z"/>
	</g>
</g>
<g>
	<g>
		<defs>
			<path id="XMLID_90_" d="M121.809,97.344c-62.797,0-116.433-16.448-119.983-37.859l19.998,120.582
				c2.478,14.941,47.194,26.522,99.986,26.522c52.791,0,97.508-11.581,99.985-26.522l19.997-120.582
				C238.24,80.896,184.605,97.344,121.809,97.344z"/>
		</defs>
		<use xlink:href="#XMLID_90_"  overflow="visible" fill="#F0E682"/>
		<clipPath id="XMLID_6_">
			<use xlink:href="#XMLID_90_"  overflow="visible"/>
		</clipPath>
		<path clip-path="url(#XMLID_6_)" fill="#D8D8D8" d="M254.902,59.777c-1.818,26.731-61.388,47.87-133.094,47.87
			c-71.707,0-131.275-21.139-133.094-47.87c-1.87-27.482,57.696-50.334,133.094-50.334C197.205,9.443,256.771,32.295,254.902,59.777
			z"/>
	</g>
	<path fill="#FFFFFF" d="M236.773,57.005c0.986,1.623,1.508,3.286,1.508,4.982c0,17.113-52.147,30.986-116.473,30.986
		c-64.326,0-116.472-13.873-116.472-30.986c0-1.696,0.521-3.359,1.506-4.982C5.495,55.5,4.61,53.95,4.242,52.363
		C1.481,55.432,0,58.656,0,61.987c0,20.265,54.535,36.694,121.809,36.694c67.272,0,121.809-16.43,121.809-36.694
		c0-3.331-1.48-6.556-4.242-9.624C239.006,53.95,238.121,55.5,236.773,57.005z"/>
</g>
</svg>
