<?xml version="1.0" encoding="utf-8"?>
<!-- Generator: Adobe Illustrator 15.0.0, SVG Export Plug-In . SVG Version: 6.00 Build 0)  -->
<!DOCTYPE svg PUBLIC "-//W3C//DTD SVG 1.1//EN" "http://www.w3.org/Graphics/SVG/1.1/DTD/svg11.dtd">
<svg version="1.1" id="_x32_" xmlns="http://www.w3.org/2000/svg" xmlns:xlink="http://www.w3.org/1999/xlink" x="0px" y="0px"
	 width="42.619px" height="50px" viewBox="276.331 395.946 42.619 50" enable-background="new 276.331 395.946 42.619 50"
	 xml:space="preserve">
<g>
	<path fill="#4B4B4B" d="M287.857,395.946v16.981h3.263v-13.719h23.008l-7.312,4.946c-0.828,0.56-1.322,1.493-1.322,2.491V434.6
		H291.12v-11.108h-3.263v14.371h17.637v6.928c0,0.428,0.236,0.82,0.614,1.021c0.377,0.2,0.835,0.177,1.19-0.063l11.651-7.885
		v-41.917H287.857L287.857,395.946z"/>
	<path fill="#4B4B4B" d="M294.971,424.304c0,0.18,0.104,0.345,0.269,0.42c0.162,0.075,0.355,0.052,0.492-0.066l7.621-6.449
		l-7.621-6.448c-0.137-0.117-0.33-0.142-0.492-0.066c-0.164,0.075-0.269,0.239-0.269,0.419v3.262h-18.64v5.67h18.64V424.304
		L294.971,424.304z"/>
</g>
</svg>
