<?xml version="1.0" encoding="utf-8"?>
<!-- Generator: Adobe Illustrator 15.0.0, SVG Export Plug-In . SVG Version: 6.00 Build 0)  -->
<!DOCTYPE svg PUBLIC "-//W3C//DTD SVG 1.1//EN" "http://www.w3.org/Graphics/SVG/1.1/DTD/svg11.dtd">
<svg version="1.1" id="_x32_" xmlns="http://www.w3.org/2000/svg" xmlns:xlink="http://www.w3.org/1999/xlink" x="0px" y="0px"
	 width="42.619px" height="50px" viewBox="-5.024 10.946 42.619 50" enable-background="new -5.024 10.946 42.619 50"
	 xml:space="preserve">
<g>
	<path fill="#4B4B4B" d="M26.069,10.946H-5.024v41.917l11.652,7.885c0.354,0.24,0.813,0.264,1.19,0.063
		c0.378-0.2,0.615-0.593,0.615-1.021v-6.928h17.636V38.492h-3.263V49.6H8.432V21.646c0-0.997-0.493-1.932-1.322-2.491l-7.311-4.946
		h23.007v13.718h3.263V10.946L26.069,10.946z"/>
	<path fill="#4B4B4B" d="M29.214,39.305c0,0.18,0.104,0.344,0.269,0.419c0.161,0.075,0.354,0.052,0.491-0.066l7.621-6.448
		l-7.621-6.448c-0.137-0.117-0.33-0.142-0.491-0.067c-0.164,0.076-0.269,0.24-0.269,0.42v3.261h-18.64v5.67h18.64V39.305
		L29.214,39.305z"/>
</g>
</svg>
