<?xml version="1.0" encoding="utf-8"?>
<!-- Generator: Adobe Illustrator 15.0.0, SVG Export Plug-In . SVG Version: 6.00 Build 0)  -->
<!DOCTYPE svg PUBLIC "-//W3C//DTD SVG 1.1//EN" "http://www.w3.org/Graphics/SVG/1.1/DTD/svg11.dtd">
<svg version="1.1" xmlns="http://www.w3.org/2000/svg" xmlns:xlink="http://www.w3.org/1999/xlink" x="0px" y="0px" width="200px"
	 height="99.969px" viewBox="0 0 200 99.969" enable-background="new 0 0 200 99.969" xml:space="preserve">
<g id="レイヤー_1">
</g>
<g id="レイヤー_3">
	<g>
		<g>
			<g>
				<g>
					<path fill="#231815" stroke="#231815" stroke-width="1.3361" stroke-linecap="round" stroke-linejoin="round" d="
						M115.306,17.953c-2.325-0.407-4.635-0.479-6.771-0.278l-23.297-1.027c-8.546-0.855-16.415,2.125-16.415,7.415
						c0,3.576,0.443,6.807,3.673,9.431v23.302l28.505,4.789l26.526-3.58V37.103c4.021-0.971,4.075-4.841,3.583-7.975
						C130.248,23.63,123.669,19.414,115.306,17.953z"/>
					<path fill="#FFFFFF" stroke="#231815" stroke-width="1.3361" stroke-linecap="round" stroke-linejoin="round" d="
						M105.927,30.547c0-5.729-9.228-11.985-18.552-13.615c-9.324-1.63-18.552,1.402-18.552,7.131c0,3.576,0.443,6.807,3.673,9.431
						v23.302l28.505,4.789V38.281C105.483,37.2,105.927,34.124,105.927,30.547z"/>
				</g>
				<g>
					<g>
						<linearGradient id="SVGID_1_" gradientUnits="userSpaceOnUse" x1="145.9219" y1="60.9106" x2="162.2217" y2="60.9106">
							<stop  offset="0" style="stop-color:#391500"/>
							<stop  offset="1" style="stop-color:#270B00"/>
						</linearGradient>
						<path fill="url(#SVGID_1_)" d="M162.222,53.513c0.001-0.044-0.032-0.086-0.079-0.095c-0.047-0.011-0.092,0.013-0.105,0.054
							c-0.588,1.766-2.343,6.37-3.39,6.485l-0.002,0.001c-0.886,0.075-2.579,0.275-5.354,0.81c-4.484,0.865-7.335,7.446-7.363,7.513
							c-0.011,0.028-0.006,0.061,0.014,0.086c0.012,0.015,0.026,0.025,0.044,0.032c0.014,0.005,0.027,0.008,0.042,0.007
							c7.413-0.332,11.089-4.379,12.606-6.722c0.01-0.006,0.021-0.009,0.026-0.018C161.211,57.554,162.201,53.971,162.222,53.513z"
							/>
						<linearGradient id="SVGID_2_" gradientUnits="userSpaceOnUse" x1="149.8164" y1="52.8647" x2="161.7607" y2="52.8647">
							<stop  offset="0" style="stop-color:#391500"/>
							<stop  offset="1" style="stop-color:#270B00"/>
						</linearGradient>
						<path fill="url(#SVGID_2_)" d="M161.387,49.828c0.001-0.003-0.003-0.005-0.003-0.007c0.262-1.308,0.452-2.919,0.349-4.661
							c-0.002-0.049-0.046-0.088-0.097-0.089c-0.051-0.002-0.092,0.034-0.092,0.083c0.014,1.229-0.138,4.486-0.973,4.793
							c-0.001,0-0.001,0.002-0.002,0.002c-0.797,0.273-2.312,0.848-4.722,1.967c-4.104,1.907-6.01,8.562-6.028,8.629
							c-0.008,0.029,0.001,0.061,0.024,0.085c0.011,0.01,0.021,0.019,0.035,0.023c0.018,0.006,0.036,0.008,0.054,0.006
							C160.545,58.917,161.38,49.918,161.387,49.828z"/>
						<linearGradient id="SVGID_3_" gradientUnits="userSpaceOnUse" x1="152.2197" y1="42.6528" x2="161.4063" y2="42.6528">
							<stop  offset="0" style="stop-color:#391500"/>
							<stop  offset="1" style="stop-color:#270B00"/>
						</linearGradient>
						<path fill="url(#SVGID_3_)" d="M161.366,38.536c0-0.001-0.002-0.002-0.002-0.004c0.045-1.737-0.013-3.785-0.361-5.564
							c-0.01-0.047-0.057-0.081-0.107-0.077s-0.085,0.044-0.08,0.091c0.007,0.055,0.593,5.37-0.114,6.517
							c-0.557,0.902-1.708,2.299-4.013,3.656c-3.893,2.292-4.463,9.093-4.469,9.161c-0.001,0.031,0.015,0.063,0.042,0.082
							c0.007,0.005,0.015,0.009,0.021,0.011c0.023,0.01,0.05,0.011,0.072,0.001C162.479,48.513,161.378,38.635,161.366,38.536z"/>
						<linearGradient id="SVGID_4_" gradientUnits="userSpaceOnUse" x1="153.1543" y1="34.0229" x2="160.0957" y2="34.0229">
							<stop  offset="0" style="stop-color:#391500"/>
							<stop  offset="1" style="stop-color:#270B00"/>
						</linearGradient>
						<path fill="url(#SVGID_4_)" d="M159.995,29.24c-0.001-0.006-0.011-0.007-0.012-0.013c-0.138-1.358-0.443-3.042-1.094-4.784
							c-0.018-0.047-0.07-0.073-0.117-0.062c-0.049,0.011-0.077,0.056-0.063,0.102c0.012,0.043,1.22,4.356,0.623,5.232
							c-0.614,0.64-1.852,1.882-3.987,3.84c-1.733,1.591-2.146,4.237-2.187,6.178c-0.044,2.095,0.324,3.841,0.329,3.858
							c0.005,0.027,0.025,0.052,0.053,0.065c0.002,0,0.006,0.002,0.008,0.004c0.026,0.01,0.054,0.009,0.078-0.003
							C161.369,40.059,160.01,29.348,159.995,29.24z"/>
						<linearGradient id="SVGID_5_" gradientUnits="userSpaceOnUse" x1="151.8564" y1="24.3638" x2="157.3301" y2="24.3638">
							<stop  offset="0" style="stop-color:#391500"/>
							<stop  offset="1" style="stop-color:#270B00"/>
						</linearGradient>
						<path fill="url(#SVGID_5_)" d="M157.229,23.761c0.02-0.018,0.032-0.041,0.027-0.07c-0.007-0.045-0.046-0.272-0.109-0.608
							c-0.282-2.06-0.801-3.633-0.907-3.94c-0.497-1.774-1.162-3.634-1.973-4.702c-0.028-0.037-0.083-0.051-0.126-0.03
							c-0.041,0.021-0.057,0.07-0.034,0.112c0.021,0.042,2.164,4.177,1.523,5.165v0.001c-0.612,0.929-1.775,2.738-2.659,4.376
							c-2.116,3.921-0.57,10.126-0.555,10.189c0.008,0.027,0.027,0.051,0.055,0.063c0.003,0,0.004,0.002,0.007,0.003
							c0.025,0.01,0.054,0.009,0.078-0.002C157.104,32.188,157.607,27.403,157.229,23.761z"/>
						<linearGradient id="SVGID_6_" gradientUnits="userSpaceOnUse" x1="146.8047" y1="16.8472" x2="153.4229" y2="16.8472">
							<stop  offset="0" style="stop-color:#391500"/>
							<stop  offset="1" style="stop-color:#270B00"/>
						</linearGradient>
						<path fill="url(#SVGID_6_)" d="M153.239,15.892c-0.765-3.668-3.719-5.7-3.749-5.72c0,0-0.001,0-0.001,0
							c-0.666-0.605-1.505-1.31-2.535-2.064c-0.04-0.033-0.1-0.026-0.131,0.01c-0.03,0.037-0.022,0.091,0.019,0.123
							c0.989,0.757,2.542,2.071,2.687,2.516c0.126,0.643,0.112,2.035-1.084,4.665c-1.848,4.064,1.612,10.078,1.646,10.138
							c0.012,0.02,0.03,0.035,0.052,0.043c0.008,0.003,0.018,0.005,0.026,0.006c0.033,0.003,0.064-0.009,0.083-0.033
							C152.867,22.187,153.873,18.928,153.239,15.892z"/>
						<linearGradient id="SVGID_7_" gradientUnits="userSpaceOnUse" x1="138.9238" y1="58.7388" x2="145.5049" y2="58.7388">
							<stop  offset="0" style="stop-color:#391500"/>
							<stop  offset="1" style="stop-color:#270B00"/>
						</linearGradient>
						<path fill="url(#SVGID_7_)" d="M143.92,58.01c-2.266-2.704-3.552-4.083-4.012-4.563c-0.073-1.267-0.297-2.328-0.461-2.967
							c-0.052-0.225-0.114-0.444-0.19-0.654c-0.017-0.046-0.07-0.073-0.12-0.063c-0.049,0.014-0.076,0.061-0.06,0.107
							c0.002,0.006,0.082,0.237,0.186,0.641c0.251,1.096,0.225,2.341,0.118,3.391c-0.124,0.509-0.285,1.294-0.38,2.254
							c-0.011,0.049-0.021,0.084-0.021,0.087c-0.005,0.021,0,0.039,0.009,0.058c-0.296,3.307,0.241,8.517,5.699,11.402
							c0.004,0.002,0.008,0.004,0.011,0.006c0.022,0.008,0.048,0.008,0.069,0.001c0.025-0.009,0.045-0.027,0.053-0.052
							C144.841,67.597,146.836,61.49,143.92,58.01z"/>
						<linearGradient id="SVGID_8_" gradientUnits="userSpaceOnUse" x1="139.9102" y1="51.9614" x2="148.793" y2="51.9614">
							<stop  offset="0" style="stop-color:#391500"/>
							<stop  offset="1" style="stop-color:#270B00"/>
						</linearGradient>
						<path fill="url(#SVGID_8_)" d="M147.414,52.602c-2.016-2.729-4.846-4.948-5.857-5.699c-0.425-1.204-0.857-2.117-1.143-2.665
							c-0.103-0.214-0.212-0.413-0.329-0.592c-0.027-0.043-0.086-0.059-0.13-0.035c-0.044,0.022-0.058,0.074-0.031,0.117
							c0.003,0.005,0.123,0.198,0.311,0.557c0.336,0.698,0.598,1.572,0.8,2.438c0.014,0.163,0.129,1.491,0.548,3.29
							c0.024,0.226,0.036,0.362,0.037,0.37c0.003,0.036,0.028,0.066,0.063,0.08c0.004,0.001,0.007,0.001,0.01,0.001
							c0.833,3.306,2.666,7.883,6.623,9.848c0.004,0.002,0.006,0.004,0.01,0.005c0.022,0.009,0.049,0.009,0.071,0
							c0.025-0.009,0.044-0.028,0.051-0.055C148.46,60.217,149.697,55.696,147.414,52.602z"/>
						<linearGradient id="SVGID_9_" gradientUnits="userSpaceOnUse" x1="141.4395" y1="44.7358" x2="150.8574" y2="44.7358">
							<stop  offset="0" style="stop-color:#391500"/>
							<stop  offset="1" style="stop-color:#270B00"/>
						</linearGradient>
						<path fill="url(#SVGID_9_)" d="M150.767,49.156c-0.165-1.59-0.643-3.748-1.979-4.998c-1.822-1.702-4.839-3.519-5.705-4.027
							c-0.226-0.865-1.414-2.922-1.465-3.01c-0.024-0.044-0.084-0.063-0.129-0.042c-0.046,0.021-0.062,0.073-0.037,0.117l0,0
							l0.001,0.001c0.794,1.376,1.101,2.505,1.209,3.304c-0.015,0.305-0.021,0.748,0.012,1.291
							c-0.003,0.017-0.006,0.027-0.006,0.028c-0.005,0.022-0.001,0.045,0.011,0.063c0.189,2.779,1.431,7.984,7.805,10.437h0.002
							c0.066,0.025,0.131,0.05,0.198,0.075c0.027,0.01,0.058,0.008,0.082-0.005c0.023-0.014,0.039-0.037,0.042-0.063
							C150.808,52.313,150.944,50.871,150.767,49.156z"/>
						<linearGradient id="SVGID_10_" gradientUnits="userSpaceOnUse" x1="140.9443" y1="36.8228" x2="151.7793" y2="36.8228">
							<stop  offset="0" style="stop-color:#391500"/>
							<stop  offset="1" style="stop-color:#270B00"/>
						</linearGradient>
						<path fill="url(#SVGID_10_)" d="M151.36,40.743c-0.516-2.342-1.384-3.905-2.578-4.647c-2.244-1.396-4.432-2.345-5.256-2.685
							c-1.267-2.639-2.407-3.834-2.419-3.846c-0.036-0.035-0.094-0.042-0.132-0.013c-0.038,0.03-0.042,0.083-0.009,0.122
							c1.193,1.372,1.803,2.898,2.115,4.047c0.035,0.365,0.12,0.979,0.322,1.737c0.002,0.029,0.003,0.049,0.003,0.051
							c0.001,0.009,0.013,0.011,0.016,0.02c0.673,2.466,2.589,6.409,8.043,8.506c0.062,0.024,0.125,0.048,0.188,0.071
							c0.03,0.011,0.062,0.008,0.086-0.008c0.025-0.015,0.04-0.041,0.039-0.069C151.778,44.013,151.743,42.474,151.36,40.743z"/>
						<linearGradient id="SVGID_11_" gradientUnits="userSpaceOnUse" x1="139.3555" y1="28.9331" x2="150.9746" y2="28.9331">
							<stop  offset="0" style="stop-color:#391500"/>
							<stop  offset="1" style="stop-color:#270B00"/>
						</linearGradient>
						<path fill="url(#SVGID_11_)" d="M150.974,34.996c-0.003-0.014-0.268-1.411-0.927-2.949c-0.611-1.429-1.699-3.276-3.404-3.966
							c-1.599-0.646-3.719-1.566-4.466-1.892c-0.742-1.196-1.558-2.182-2.087-2.775c-0.186-0.224-0.378-0.43-0.576-0.613
							c-0.037-0.034-0.096-0.037-0.132-0.005c-0.036,0.032-0.035,0.088,0.001,0.124c0.006,0.005,0.228,0.224,0.568,0.605
							c0.796,0.958,1.479,2.238,1.991,3.368c0.164,0.606,0.469,1.523,1.007,2.542c0.011,0.032,0.017,0.052,0.018,0.055
							c0.004,0.01,0.015,0.013,0.021,0.021c0.962,1.791,2.638,3.848,5.504,4.95h0.001c0.742,0.285,1.542,0.498,2.378,0.633
							c0.03,0.004,0.059-0.005,0.079-0.023S150.979,35.023,150.974,34.996z"/>
						<linearGradient id="SVGID_12_" gradientUnits="userSpaceOnUse" x1="137.1631" y1="20.8472" x2="148.4346" y2="20.8472">
							<stop  offset="0" style="stop-color:#391500"/>
							<stop  offset="1" style="stop-color:#270B00"/>
						</linearGradient>
						<path fill="url(#SVGID_12_)" d="M148.433,26.268c-0.01-0.042-0.944-4.302-4.17-5.542l-0.083-0.031
							c-1.775-0.639-3.225-1.391-3.817-1.715c-0.829-1.509-2.082-2.759-2.69-3.316c-0.113-0.106-0.229-0.21-0.35-0.309
							c-0.003-0.002-0.004-0.003-0.004-0.003c-0.041-0.035-0.101-0.032-0.134,0.003c-0.033,0.036-0.027,0.091,0.014,0.125
							c0.001,0.001,0.003,0.003,0.005,0.004c0.027,0.022,0.15,0.126,0.338,0.297c1.146,1.074,1.955,2.511,2.481,3.686
							c0.104,0.49,0.318,1.242,0.767,2.086c0.004,0.013,0.008,0.03,0.009,0.032c0.003,0.013,0.017,0.018,0.025,0.028
							c0.763,1.407,2.167,3.033,4.763,4.032l0.001,0c0.832,0.319,1.756,0.562,2.743,0.721c0.029,0.004,0.06-0.005,0.079-0.023
							C148.43,26.323,148.438,26.295,148.433,26.268z"/>
						<linearGradient id="SVGID_13_" gradientUnits="userSpaceOnUse" x1="131.6016" y1="9.2085" x2="146.6104" y2="9.2085">
							<stop  offset="0" style="stop-color:#391500"/>
							<stop  offset="1" style="stop-color:#270B00"/>
						</linearGradient>
						<path fill="url(#SVGID_13_)" d="M146.31,13.342c-0.897-2.959-3.684-5.725-8.276-8.228c-0.604-0.678-2.535-2.676-6.286-5.124
							c-0.043-0.029-0.101-0.021-0.129,0.017c-0.029,0.038-0.019,0.092,0.024,0.122c0.05,0.035,4.95,3.534,5.795,5.399
							c0.354,2.168,1.632,9.16,3.649,10.84c0.837,0.696,1.748,1.236,2.71,1.606c1.116,0.429,1.884,0.468,1.915,0.469
							c0.033,0.002,0.063-0.012,0.08-0.037C145.806,18.386,147.208,16.305,146.31,13.342z"/>
						<linearGradient id="SVGID_14_" gradientUnits="userSpaceOnUse" x1="131.6641" y1="47.8472" x2="152.6885" y2="47.8472">
							<stop  offset="0" style="stop-color:#391500"/>
							<stop  offset="1" style="stop-color:#270B00"/>
						</linearGradient>
						<path fill="url(#SVGID_14_)" d="M132.525,81.963c7.585-5.426,13.551-12.944,16.973-21.842
							c5.899-15.343,3.524-32.632-6.353-46.249c-0.1-0.139-0.297-0.183-0.439-0.098c-0.143,0.084-0.176,0.265-0.076,0.402
							c9.761,13.456,12.105,30.545,6.272,45.714c-2.35,6.112-5.913,11.566-10.382,16.127l-6.856,5.734L132.525,81.963z"/>
					</g>
					<g>
						<linearGradient id="SVGID_15_" gradientUnits="userSpaceOnUse" x1="37.7778" y1="60.9106" x2="54.0776" y2="60.9106">
							<stop  offset="0" style="stop-color:#391500"/>
							<stop  offset="1" style="stop-color:#270B00"/>
						</linearGradient>
						<path fill="url(#SVGID_15_)" d="M37.778,53.513c-0.002-0.044,0.031-0.086,0.079-0.095c0.047-0.011,0.092,0.013,0.106,0.054
							c0.587,1.766,2.342,6.37,3.39,6.485l0.001,0.001c0.886,0.075,2.58,0.275,5.354,0.81c4.485,0.865,7.335,7.446,7.363,7.513
							c0.013,0.028,0.007,0.061-0.013,0.086c-0.012,0.015-0.026,0.025-0.044,0.032c-0.013,0.005-0.027,0.008-0.042,0.007
							c-7.413-0.332-11.088-4.379-12.607-6.722c-0.008-0.006-0.019-0.009-0.025-0.018C38.789,57.554,37.797,53.971,37.778,53.513z"
							/>
						<linearGradient id="SVGID_16_" gradientUnits="userSpaceOnUse" x1="38.2383" y1="52.8647" x2="50.1836" y2="52.8647">
							<stop  offset="0" style="stop-color:#391500"/>
							<stop  offset="1" style="stop-color:#270B00"/>
						</linearGradient>
						<path fill="url(#SVGID_16_)" d="M38.612,49.828c0-0.003,0.003-0.005,0.003-0.007c-0.261-1.308-0.452-2.919-0.35-4.661
							c0.003-0.049,0.047-0.088,0.098-0.089c0.051-0.002,0.092,0.034,0.091,0.083c-0.012,1.229,0.138,4.486,0.973,4.793
							c0.001,0,0.001,0.002,0.002,0.002c0.796,0.273,2.311,0.848,4.721,1.967c4.104,1.907,6.01,8.562,6.029,8.629
							c0.008,0.029-0.001,0.061-0.024,0.085c-0.011,0.01-0.023,0.019-0.036,0.023c-0.017,0.006-0.036,0.008-0.054,0.006
							C39.455,58.917,38.62,49.918,38.612,49.828z"/>
						<linearGradient id="SVGID_17_" gradientUnits="userSpaceOnUse" x1="38.5928" y1="42.6528" x2="47.7793" y2="42.6528">
							<stop  offset="0" style="stop-color:#391500"/>
							<stop  offset="1" style="stop-color:#270B00"/>
						</linearGradient>
						<path fill="url(#SVGID_17_)" d="M38.633,38.536c0-0.001,0.002-0.002,0.002-0.004c-0.045-1.737,0.012-3.785,0.362-5.564
							c0.009-0.047,0.056-0.081,0.107-0.077c0.05,0.004,0.085,0.044,0.08,0.091c-0.006,0.055-0.592,5.37,0.115,6.517
							c0.556,0.902,1.708,2.299,4.013,3.656c3.893,2.292,4.463,9.093,4.468,9.161c0.002,0.031-0.014,0.063-0.042,0.082
							c-0.007,0.005-0.015,0.009-0.022,0.011c-0.023,0.01-0.049,0.011-0.072,0.001C37.521,48.513,38.622,38.635,38.633,38.536z"/>
						<linearGradient id="SVGID_18_" gradientUnits="userSpaceOnUse" x1="39.9038" y1="34.0229" x2="46.8442" y2="34.0229">
							<stop  offset="0" style="stop-color:#391500"/>
							<stop  offset="1" style="stop-color:#270B00"/>
						</linearGradient>
						<path fill="url(#SVGID_18_)" d="M40.005,29.24c0.001-0.006,0.009-0.007,0.011-0.013c0.138-1.358,0.443-3.042,1.094-4.784
							c0.018-0.047,0.069-0.073,0.117-0.062c0.048,0.011,0.077,0.056,0.063,0.102c-0.013,0.043-1.219,4.356-0.624,5.232
							c0.614,0.64,1.852,1.882,3.987,3.84c1.735,1.591,2.146,4.237,2.187,6.178c0.044,2.095-0.324,3.841-0.328,3.858
							c-0.006,0.027-0.026,0.052-0.054,0.065c-0.002,0-0.005,0.002-0.008,0.004c-0.025,0.01-0.054,0.009-0.078-0.003
							C38.63,40.059,39.99,29.348,40.005,29.24z"/>
						<linearGradient id="SVGID_19_" gradientUnits="userSpaceOnUse" x1="42.6699" y1="24.3638" x2="48.1431" y2="24.3638">
							<stop  offset="0" style="stop-color:#391500"/>
							<stop  offset="1" style="stop-color:#270B00"/>
						</linearGradient>
						<path fill="url(#SVGID_19_)" d="M42.771,23.761c-0.02-0.018-0.033-0.041-0.028-0.07c0.007-0.045,0.046-0.272,0.109-0.608
							c0.283-2.06,0.802-3.633,0.908-3.94c0.496-1.774,1.162-3.634,1.972-4.702c0.028-0.037,0.084-0.051,0.125-0.03
							c0.042,0.021,0.057,0.07,0.035,0.112c-0.022,0.042-2.164,4.177-1.524,5.165l0,0.001c0.612,0.929,1.775,2.738,2.659,4.376
							c2.116,3.921,0.57,10.126,0.554,10.189c-0.007,0.027-0.027,0.051-0.055,0.063c-0.002,0-0.004,0.002-0.006,0.003
							c-0.026,0.01-0.054,0.009-0.078-0.002C42.895,32.188,42.393,27.403,42.771,23.761z"/>
						<linearGradient id="SVGID_20_" gradientUnits="userSpaceOnUse" x1="46.5762" y1="16.8472" x2="53.1948" y2="16.8472">
							<stop  offset="0" style="stop-color:#391500"/>
							<stop  offset="1" style="stop-color:#270B00"/>
						</linearGradient>
						<path fill="url(#SVGID_20_)" d="M46.76,15.892c0.764-3.668,3.719-5.7,3.749-5.72c0,0,0.001,0,0.002,0
							c0.666-0.605,1.504-1.31,2.534-2.064c0.042-0.033,0.101-0.026,0.131,0.01s0.022,0.091-0.019,0.123
							c-0.99,0.757-2.542,2.071-2.687,2.516c-0.126,0.643-0.112,2.035,1.084,4.665c1.848,4.064-1.611,10.078-1.646,10.138
							c-0.012,0.02-0.03,0.035-0.051,0.043c-0.008,0.003-0.018,0.005-0.027,0.006c-0.033,0.003-0.064-0.009-0.082-0.033
							C47.132,22.187,46.127,18.928,46.76,15.892z"/>
						<linearGradient id="SVGID_21_" gradientUnits="userSpaceOnUse" x1="54.4941" y1="58.7388" x2="61.0757" y2="58.7388">
							<stop  offset="0" style="stop-color:#391500"/>
							<stop  offset="1" style="stop-color:#270B00"/>
						</linearGradient>
						<path fill="url(#SVGID_21_)" d="M56.079,58.01c2.266-2.704,3.553-4.083,4.012-4.563c0.073-1.267,0.296-2.328,0.461-2.967
							c0.052-0.225,0.115-0.444,0.19-0.654c0.017-0.046,0.07-0.073,0.12-0.063c0.049,0.014,0.076,0.061,0.059,0.107
							c-0.001,0.006-0.083,0.237-0.186,0.641c-0.25,1.096-0.224,2.341-0.117,3.391c0.125,0.509,0.285,1.294,0.379,2.254
							c0.012,0.049,0.021,0.084,0.021,0.087c0.005,0.021,0,0.039-0.008,0.058c0.296,3.307-0.242,8.517-5.7,11.402
							c-0.003,0.002-0.007,0.004-0.011,0.006c-0.022,0.008-0.047,0.008-0.068,0.001c-0.026-0.009-0.045-0.027-0.054-0.052
							C55.158,67.597,53.164,61.49,56.079,58.01z"/>
						<linearGradient id="SVGID_22_" gradientUnits="userSpaceOnUse" x1="51.2065" y1="51.9614" x2="60.0889" y2="51.9614">
							<stop  offset="0" style="stop-color:#391500"/>
							<stop  offset="1" style="stop-color:#270B00"/>
						</linearGradient>
						<path fill="url(#SVGID_22_)" d="M52.586,52.602c2.015-2.729,4.846-4.948,5.857-5.699c0.425-1.204,0.857-2.117,1.143-2.665
							c0.103-0.214,0.212-0.413,0.329-0.592c0.028-0.043,0.086-0.059,0.13-0.035c0.044,0.022,0.058,0.074,0.031,0.117
							c-0.003,0.005-0.123,0.198-0.31,0.557c-0.336,0.698-0.598,1.572-0.8,2.438c-0.013,0.163-0.129,1.491-0.548,3.29
							c-0.025,0.226-0.037,0.362-0.037,0.37c-0.003,0.036-0.029,0.066-0.063,0.08c-0.003,0.001-0.007,0.001-0.01,0.001
							c-0.832,3.306-2.665,7.883-6.623,9.848c-0.003,0.002-0.005,0.004-0.009,0.005c-0.023,0.009-0.049,0.009-0.072,0
							c-0.025-0.009-0.044-0.028-0.051-0.055C51.54,60.217,50.302,55.696,52.586,52.602z"/>
						<linearGradient id="SVGID_23_" gradientUnits="userSpaceOnUse" x1="49.1411" y1="44.7358" x2="58.5596" y2="44.7358">
							<stop  offset="0" style="stop-color:#391500"/>
							<stop  offset="1" style="stop-color:#270B00"/>
						</linearGradient>
						<path fill="url(#SVGID_23_)" d="M49.232,49.156c0.165-1.59,0.643-3.748,1.98-4.998c1.822-1.702,4.838-3.519,5.706-4.027
							c0.226-0.865,1.414-2.922,1.465-3.01c0.024-0.044,0.083-0.063,0.128-0.042c0.045,0.021,0.062,0.073,0.037,0.117h0l0,0.001
							c-0.793,1.376-1.101,2.505-1.209,3.304c0.015,0.305,0.021,0.748-0.011,1.291c0.003,0.017,0.005,0.027,0.005,0.028
							c0.005,0.022,0,0.045-0.011,0.063c-0.188,2.779-1.43,7.984-7.805,10.437h-0.001c-0.066,0.025-0.131,0.05-0.198,0.075
							c-0.028,0.01-0.058,0.008-0.082-0.005c-0.024-0.014-0.04-0.037-0.042-0.063C49.191,52.313,49.055,50.871,49.232,49.156z"/>
						<linearGradient id="SVGID_24_" gradientUnits="userSpaceOnUse" x1="48.2202" y1="36.8228" x2="59.0552" y2="36.8228">
							<stop  offset="0" style="stop-color:#391500"/>
							<stop  offset="1" style="stop-color:#270B00"/>
						</linearGradient>
						<path fill="url(#SVGID_24_)" d="M48.639,40.743c0.516-2.342,1.384-3.905,2.577-4.647c2.245-1.396,4.433-2.345,5.257-2.685
							c1.266-2.639,2.408-3.834,2.419-3.846c0.036-0.035,0.094-0.042,0.131-0.013c0.038,0.03,0.042,0.083,0.009,0.122
							c-1.193,1.372-1.803,2.898-2.116,4.047c-0.034,0.365-0.12,0.979-0.322,1.737c-0.002,0.029-0.003,0.049-0.003,0.051
							c0,0.009-0.012,0.011-0.015,0.02c-0.673,2.466-2.589,6.409-8.042,8.506c-0.063,0.024-0.125,0.048-0.189,0.071
							c-0.029,0.011-0.061,0.008-0.086-0.008c-0.025-0.015-0.04-0.041-0.039-0.069C48.221,44.013,48.257,42.474,48.639,40.743z"/>
						<linearGradient id="SVGID_25_" gradientUnits="userSpaceOnUse" x1="49.0244" y1="28.9331" x2="60.644" y2="28.9331">
							<stop  offset="0" style="stop-color:#391500"/>
							<stop  offset="1" style="stop-color:#270B00"/>
						</linearGradient>
						<path fill="url(#SVGID_25_)" d="M49.026,34.996c0.002-0.014,0.267-1.411,0.926-2.949c0.612-1.429,1.699-3.276,3.404-3.966
							c1.599-0.646,3.719-1.566,4.466-1.892c0.743-1.196,1.558-2.182,2.087-2.775c0.187-0.224,0.378-0.43,0.576-0.613
							c0.037-0.034,0.096-0.037,0.132-0.005c0.036,0.032,0.035,0.088-0.001,0.124c-0.006,0.005-0.227,0.224-0.567,0.605
							c-0.796,0.958-1.478,2.238-1.992,3.368c-0.164,0.606-0.469,1.523-1.006,2.542c-0.011,0.032-0.018,0.052-0.018,0.055
							c-0.003,0.01-0.015,0.013-0.021,0.021c-0.962,1.791-2.638,3.848-5.504,4.95h-0.001c-0.742,0.285-1.542,0.498-2.378,0.633
							c-0.029,0.004-0.059-0.005-0.079-0.023C49.03,35.05,49.021,35.023,49.026,34.996z"/>
						<linearGradient id="SVGID_26_" gradientUnits="userSpaceOnUse" x1="51.5654" y1="20.8472" x2="62.8369" y2="20.8472">
							<stop  offset="0" style="stop-color:#391500"/>
							<stop  offset="1" style="stop-color:#270B00"/>
						</linearGradient>
						<path fill="url(#SVGID_26_)" d="M51.567,26.268c0.009-0.042,0.945-4.302,4.169-5.542l0.083-0.031
							c1.774-0.639,3.225-1.391,3.818-1.715c0.829-1.509,2.081-2.759,2.689-3.316c0.114-0.106,0.231-0.21,0.351-0.309
							c0.003-0.002,0.004-0.003,0.004-0.003c0.041-0.035,0.101-0.032,0.134,0.003c0.033,0.036,0.027,0.091-0.013,0.125
							c-0.002,0.001-0.004,0.003-0.006,0.004c-0.027,0.022-0.15,0.126-0.338,0.297c-1.146,1.074-1.956,2.511-2.482,3.686
							c-0.103,0.49-0.317,1.242-0.766,2.086c-0.004,0.013-0.008,0.03-0.009,0.032c-0.003,0.013-0.018,0.018-0.026,0.028
							c-0.762,1.407-2.167,3.033-4.763,4.032l-0.001,0c-0.833,0.319-1.755,0.562-2.742,0.721c-0.03,0.004-0.06-0.005-0.08-0.023
							C51.57,26.323,51.562,26.295,51.567,26.268z"/>
						<linearGradient id="SVGID_27_" gradientUnits="userSpaceOnUse" x1="53.3901" y1="9.2085" x2="68.3975" y2="9.2085">
							<stop  offset="0" style="stop-color:#391500"/>
							<stop  offset="1" style="stop-color:#270B00"/>
						</linearGradient>
						<path fill="url(#SVGID_27_)" d="M53.69,13.342c0.897-2.959,3.683-5.725,8.275-8.228c0.605-0.678,2.536-2.676,6.286-5.124
							c0.043-0.029,0.101-0.021,0.13,0.017c0.028,0.038,0.017,0.092-0.024,0.122c-0.05,0.035-4.95,3.534-5.795,5.399
							c-0.354,2.168-1.633,9.16-3.651,10.84c-0.836,0.696-1.747,1.236-2.709,1.606c-1.116,0.429-1.883,0.468-1.915,0.469
							c-0.033,0.002-0.062-0.012-0.079-0.037C54.194,18.386,52.792,16.305,53.69,13.342z"/>
						<linearGradient id="SVGID_28_" gradientUnits="userSpaceOnUse" x1="47.311" y1="47.8472" x2="68.3359" y2="47.8472">
							<stop  offset="0" style="stop-color:#391500"/>
							<stop  offset="1" style="stop-color:#270B00"/>
						</linearGradient>
						<path fill="url(#SVGID_28_)" d="M67.474,81.963c-7.585-5.426-13.551-12.944-16.973-21.842
							c-5.899-15.343-3.525-32.632,6.352-46.249c0.1-0.139,0.297-0.183,0.439-0.098c0.143,0.084,0.176,0.265,0.077,0.402
							c-9.761,13.456-12.106,30.545-6.273,45.714c2.35,6.112,5.914,11.566,10.383,16.127l6.856,5.734L67.474,81.963z"/>
					</g>
				</g>
				<polygon fill="none" stroke="#231815" stroke-width="0.707" stroke-miterlimit="10" points="183.114,99.642 16.885,99.642 
					20.64,92.263 16.885,84.883 183.114,84.883 179.359,92.263 				"/>
			</g>
		</g>
		<g>
			<g>
				<path fill="#C9BC9C" d="M196.211,44.592c-2.93,0-8.247-2.135-8.247-2.135s5.317-2.135,8.247-2.135
					c2.931,0,3.789,0.956,3.789,2.135S199.142,44.592,196.211,44.592z"/>
				<path fill="#C9BC9C" d="M195.378,37.361c-2.655,0.976-8.62,0.812-8.62,0.812s3.675-3.705,6.33-4.681
					c2.655-0.976,3.946-0.396,4.578,0.673C198.299,35.234,198.034,36.386,195.378,37.361z"/>
				<path fill="#C9BC9C" d="M190.744,31.085c-1.884,1.769-7.376,3.606-7.376,3.606s1.342-4.582,3.225-6.35
					c1.885-1.769,3.365-1.672,4.511-0.915C192.251,28.184,192.628,29.316,190.744,31.085z"/>
				<path fill="#C9BC9C" d="M193.088,51.423c-2.655-0.976-6.33-4.681-6.33-4.681s5.965-0.165,8.62,0.812
					c2.656,0.976,2.921,2.127,2.288,3.196C197.034,51.819,195.743,52.399,193.088,51.423z"/>
				<path fill="#C9BC9C" d="M186.593,56.574c-1.883-1.769-3.225-6.35-3.225-6.35s5.492,1.837,7.376,3.605
					c1.884,1.77,1.507,2.901,0.359,3.659C189.958,58.247,188.478,58.343,186.593,56.574z"/>
			</g>
			<g>
				<path fill="#C9BC9C" d="M3.788,44.592c2.93,0,8.247-2.135,8.247-2.135s-5.317-2.135-8.247-2.135C0.857,40.323,0,41.279,0,42.458
					S0.857,44.592,3.788,44.592z"/>
				<path fill="#C9BC9C" d="M4.621,37.361c2.656,0.976,8.62,0.812,8.62,0.812s-3.674-3.705-6.33-4.681
					c-2.655-0.976-3.946-0.396-4.578,0.673C1.7,35.234,1.966,36.386,4.621,37.361z"/>
				<path fill="#C9BC9C" d="M9.255,31.085c1.883,1.769,7.376,3.606,7.376,3.606s-1.342-4.582-3.226-6.35
					c-1.883-1.769-3.364-1.672-4.51-0.915C7.749,28.184,7.372,29.316,9.255,31.085z"/>
				<path fill="#C9BC9C" d="M6.911,51.423c2.656-0.976,6.33-4.681,6.33-4.681s-5.964-0.165-8.62,0.812
					C1.966,48.53,1.7,49.681,2.333,50.75C2.965,51.819,4.256,52.399,6.911,51.423z"/>
				<path fill="#C9BC9C" d="M13.406,56.574c1.884-1.769,3.226-6.35,3.226-6.35s-5.493,1.837-7.376,3.605
					c-1.884,1.77-1.506,2.901-0.36,3.659C10.042,58.247,11.522,58.343,13.406,56.574z"/>
			</g>
		</g>
		<g>
			<g>
				<path fill="#931319" d="M44.354,89.664c-0.008-0.028-0.013-0.065-0.013-0.107c0-0.102,0.055-0.152,0.165-0.152
					c0.051,0,0.127,0.013,0.229,0.038c0.102,0.025,0.204,0.058,0.305,0.096c0.102,0.038,0.188,0.083,0.261,0.133
					c0.072,0.052,0.108,0.098,0.108,0.141c0,0.076-0.056,0.214-0.166,0.413c-0.11,0.199-0.252,0.441-0.426,0.725
					c-0.174,0.284-0.374,0.594-0.598,0.929c-0.226,0.335-0.45,0.67-0.674,1.005c-0.225,0.335-0.439,0.659-0.643,0.974
					c-0.204,0.313-0.377,0.589-0.521,0.826c-0.06,0.085-0.11,0.181-0.152,0.286c-0.042,0.106-0.079,0.233-0.108,0.381
					c-0.03,0.149-0.053,0.325-0.07,0.528c-0.018,0.204-0.025,0.445-0.025,0.725c0,0.103,0.004,0.211,0.013,0.325
					c0.008,0.114,0.012,0.23,0.012,0.35c0,0.067-0.047,0.123-0.14,0.165c-0.093,0.042-0.201,0.08-0.324,0.114
					c-0.123,0.034-0.239,0.058-0.35,0.07s-0.178,0.02-0.204,0.02c-0.068,0-0.102-0.048-0.102-0.14c0-0.094,0.018-0.179,0.051-0.255
					c0.033-0.076,0.07-0.161,0.108-0.254c0.038-0.094,0.072-0.209,0.102-0.344c0.03-0.136,0.045-0.313,0.045-0.534
					c0-0.17-0.019-0.333-0.057-0.49c-0.038-0.156-0.127-0.332-0.268-0.527c-0.14-0.195-0.348-0.427-0.623-0.693
					c-0.276-0.268-0.649-0.598-1.12-0.992c-0.47-0.394-1.058-0.866-1.762-1.418c-0.704-0.551-1.551-1.213-2.544-1.984
					c-0.084-0.067-0.142-0.14-0.171-0.216s-0.044-0.162-0.044-0.254c0-0.034,0.027-0.086,0.083-0.153
					c0.056-0.068,0.125-0.136,0.21-0.204c0.084-0.067,0.18-0.127,0.286-0.178s0.21-0.076,0.313-0.076
					c0.05,0,0.086,0.021,0.107,0.063s0.042,0.094,0.064,0.152c0.021,0.06,0.049,0.126,0.083,0.197
					c0.034,0.072,0.084,0.138,0.152,0.198c0.721,0.686,1.399,1.301,2.036,1.844c0.636,0.542,1.206,1.023,1.71,1.443
					c0.504,0.42,0.926,0.784,1.266,1.094c0.338,0.31,0.572,0.579,0.7,0.808c0.11-0.245,0.262-0.534,0.458-0.865
					c0.194-0.33,0.406-0.681,0.636-1.049c0.229-0.369,0.462-0.746,0.699-1.132c0.238-0.386,0.458-0.757,0.662-1.113
					c0.094-0.161,0.159-0.312,0.197-0.452c0.038-0.14,0.057-0.256,0.057-0.349C44.366,89.73,44.362,89.694,44.354,89.664z"/>
				<path fill="#931319" d="M46.771,91.846c0.119-0.434,0.309-0.827,0.572-1.184c0.262-0.356,0.6-0.646,1.011-0.871
					c0.411-0.225,0.909-0.337,1.495-0.337c0.338,0,0.662,0.065,0.966,0.197c0.306,0.132,0.572,0.335,0.801,0.61
					c0.229,0.275,0.411,0.627,0.547,1.056c0.136,0.428,0.204,0.935,0.204,1.521c0,0.56-0.087,1.056-0.261,1.487
					c-0.174,0.433-0.405,0.795-0.693,1.088c-0.288,0.292-0.617,0.515-0.985,0.668c-0.369,0.152-0.753,0.229-1.151,0.229
					c-0.314,0-0.632-0.067-0.954-0.204c-0.323-0.135-0.611-0.337-0.865-0.604c-0.254-0.268-0.462-0.6-0.623-0.998
					c-0.162-0.398-0.242-0.86-0.242-1.387C46.593,92.703,46.652,92.278,46.771,91.846z M47.598,93.576
					c0.06,0.288,0.167,0.575,0.324,0.858c0.157,0.284,0.371,0.532,0.642,0.744c0.271,0.212,0.619,0.318,1.043,0.318
					c0.178,0,0.378-0.034,0.598-0.103c0.22-0.067,0.431-0.194,0.629-0.382c0.199-0.186,0.364-0.442,0.496-0.769
					c0.131-0.326,0.197-0.744,0.197-1.253c0-0.526-0.055-0.967-0.165-1.323c-0.111-0.355-0.255-0.643-0.433-0.858
					c-0.178-0.216-0.381-0.373-0.61-0.47c-0.229-0.099-0.466-0.147-0.712-0.147c-0.33,0-0.627,0.075-0.89,0.224
					c-0.263,0.147-0.483,0.345-0.662,0.591c-0.178,0.246-0.313,0.534-0.406,0.864c-0.094,0.331-0.14,0.68-0.14,1.044
					C47.509,93.067,47.538,93.288,47.598,93.576z"/>
				<path fill="#931319" d="M55.134,89.111c0.038-0.084,0.121-0.127,0.249-0.127c0.059,0,0.146,0.025,0.261,0.076
					c0.114,0.051,0.229,0.113,0.343,0.185c0.114,0.072,0.216,0.148,0.306,0.229c0.088,0.082,0.133,0.155,0.133,0.224
					c0,0.067-0.023,0.137-0.07,0.209c-0.047,0.072-0.096,0.188-0.146,0.351c-0.05,0.16-0.099,0.39-0.146,0.687
					c-0.046,0.297-0.07,0.703-0.07,1.221c0,0.543,0.015,1.016,0.045,1.418c0.029,0.403,0.116,0.762,0.261,1.075
					c0.059,0.145,0.161,0.282,0.305,0.413c0.144,0.132,0.303,0.248,0.477,0.351c0.174,0.102,0.354,0.182,0.541,0.241
					c0.186,0.059,0.356,0.089,0.508,0.089c0.322,0,0.598-0.076,0.827-0.229c0.229-0.153,0.42-0.354,0.572-0.604
					s0.273-0.532,0.363-0.846c0.088-0.313,0.154-0.634,0.197-0.961c0.042-0.326,0.07-0.643,0.083-0.947
					c0.012-0.305,0.019-0.572,0.019-0.801c0-0.306-0.009-0.561-0.026-0.764c-0.017-0.203-0.034-0.369-0.05-0.496
					c-0.018-0.127-0.034-0.225-0.051-0.292c-0.018-0.068-0.026-0.123-0.026-0.166c0-0.11,0.047-0.187,0.14-0.229
					c0.093-0.042,0.208-0.063,0.344-0.063c0.161,0,0.307,0.036,0.438,0.108c0.132,0.071,0.197,0.18,0.197,0.323
					c0,0.103-0.012,0.274-0.038,0.516s-0.057,0.518-0.095,0.827s-0.083,0.639-0.133,0.985c-0.051,0.348-0.104,0.681-0.159,0.998
					c-0.055,0.318-0.112,0.606-0.172,0.866c-0.06,0.258-0.114,0.455-0.166,0.591c-0.203,0.5-0.489,0.896-0.857,1.189
					c-0.37,0.292-0.736,0.511-1.101,0.654c-0.094,0.034-0.182,0.056-0.268,0.064c-0.084,0.008-0.169,0.012-0.254,0.012
					c-0.169,0-0.364-0.025-0.584-0.076c-0.221-0.05-0.439-0.125-0.655-0.223c-0.216-0.097-0.418-0.218-0.604-0.362
					c-0.186-0.145-0.326-0.305-0.419-0.482c-0.102-0.196-0.189-0.485-0.261-0.872c-0.072-0.386-0.131-0.838-0.178-1.354
					c-0.046-0.518-0.081-1.083-0.102-1.698c-0.021-0.614-0.031-1.244-0.031-1.889C55.077,89.336,55.096,89.196,55.134,89.111z"/>
				<path fill="#931319" d="M65.455,88.761c0.076-0.013,0.183-0.019,0.318-0.019c0.322,0,0.621,0.046,0.896,0.14
					c0.276,0.094,0.515,0.216,0.719,0.368c0.204,0.153,0.365,0.325,0.484,0.516c0.118,0.191,0.178,0.384,0.178,0.578
					c0,0.306-0.051,0.566-0.153,0.783c-0.101,0.216-0.231,0.396-0.388,0.54c-0.157,0.145-0.325,0.262-0.502,0.35
					c-0.178,0.09-0.343,0.159-0.496,0.211c-0.204,0.067-0.326,0.111-0.369,0.133c-0.043,0.021-0.064,0.045-0.064,0.069
					c0,0.026,0.034,0.056,0.102,0.09s0.216,0.123,0.445,0.267c0.229,0.145,0.501,0.318,0.814,0.521
					c0.314,0.204,0.653,0.429,1.018,0.674c0.271,0.179,0.545,0.354,0.821,0.528c0.275,0.175,0.538,0.342,0.788,0.502
					c0.25,0.162,0.481,0.306,0.693,0.434c0.212,0.127,0.386,0.232,0.521,0.317c0.348,0.195,0.696,0.293,1.043,0.293
					c0.034,0,0.065,0.018,0.095,0.05c0.03,0.034,0.045,0.082,0.045,0.141c0,0.043-0.037,0.105-0.109,0.191
					c-0.072,0.084-0.156,0.169-0.254,0.254c-0.098,0.084-0.196,0.159-0.292,0.223c-0.098,0.063-0.172,0.096-0.223,0.096
					c-0.094,0-0.284-0.094-0.572-0.28c-0.289-0.187-0.63-0.42-1.024-0.7c-0.394-0.279-0.822-0.588-1.284-0.928
					s-0.918-0.657-1.367-0.954c-0.45-0.296-0.872-0.556-1.266-0.775c-0.394-0.221-0.719-0.356-0.973-0.408
					c-0.017,0.17-0.03,0.359-0.038,0.566c-0.008,0.208-0.012,0.413-0.012,0.617v0.344c0,0.348,0.006,0.632,0.019,0.853
					c0.012,0.22,0.025,0.4,0.038,0.54c0.012,0.14,0.025,0.252,0.038,0.337c0.012,0.085,0.019,0.161,0.019,0.229
					c0,0.086-0.023,0.145-0.07,0.179c-0.047,0.033-0.13,0.051-0.248,0.051c-0.06,0-0.14-0.011-0.242-0.032
					c-0.102-0.021-0.201-0.046-0.299-0.076c-0.098-0.029-0.18-0.067-0.248-0.114c-0.068-0.046-0.102-0.095-0.102-0.146
					c0-0.042,0.011-0.084,0.032-0.128c0.021-0.042,0.046-0.099,0.076-0.171s0.06-0.163,0.089-0.273s0.049-0.246,0.057-0.407
					c0-0.067,0.004-0.231,0.013-0.489c0.008-0.259,0.019-0.562,0.032-0.909c0.012-0.348,0.023-0.715,0.031-1.101
					s0.013-0.739,0.013-1.062c0-0.145-0.002-0.327-0.006-0.548c-0.004-0.22-0.013-0.438-0.026-0.654
					c-0.012-0.217-0.03-0.407-0.05-0.572c-0.021-0.166-0.049-0.261-0.083-0.287c-0.178-0.102-0.268-0.229-0.268-0.382
					c0-0.109,0.085-0.186,0.255-0.229l1.106-0.292C65.302,88.789,65.378,88.774,65.455,88.761z M65.131,92.125
					c0.029,0.017,0.062,0.025,0.095,0.025c0.042,0,0.11-0.021,0.204-0.063c0.093-0.043,0.25-0.114,0.47-0.217
					c0.076-0.033,0.159-0.071,0.248-0.114c0.089-0.042,0.181-0.095,0.274-0.159c0.093-0.063,0.178-0.14,0.254-0.229
					s0.14-0.196,0.19-0.324c0.094-0.28,0.14-0.563,0.14-0.853c0-0.118-0.019-0.216-0.057-0.292
					c-0.038-0.077-0.083-0.148-0.133-0.216c-0.018-0.025-0.056-0.056-0.115-0.09c-0.06-0.034-0.125-0.065-0.197-0.095
					c-0.073-0.03-0.14-0.054-0.204-0.07c-0.064-0.017-0.113-0.025-0.147-0.025c-0.034,0-0.098,0.006-0.19,0.02
					c-0.093,0.012-0.188,0.031-0.286,0.057s-0.185,0.055-0.261,0.089s-0.118,0.072-0.126,0.115
					c-0.043,0.194-0.077,0.404-0.102,0.629c-0.025,0.225-0.047,0.445-0.063,0.662c-0.018,0.216-0.027,0.415-0.032,0.597
					c-0.005,0.184-0.006,0.325-0.006,0.427C65.086,92.066,65.101,92.109,65.131,92.125z"/>
				<path fill="#931319" d="M78.689,94.886c-0.233,0.712-0.384,1.233-0.452,1.563c-0.017,0.068-0.034,0.124-0.05,0.166
					c-0.018,0.042-0.046,0.073-0.089,0.095c-0.043,0.021-0.1,0.036-0.172,0.045c-0.072,0.009-0.167,0.013-0.286,0.013
					c-0.06,0-0.124-0.018-0.191-0.051c-0.068-0.034-0.132-0.074-0.19-0.121c-0.06-0.046-0.108-0.096-0.146-0.146
					c-0.038-0.05-0.057-0.093-0.057-0.127c0-0.051,0.016-0.11,0.05-0.179c0.034-0.066,0.11-0.168,0.229-0.305
					c0.136-0.152,0.28-0.383,0.432-0.692s0.292-0.639,0.42-0.986s0.231-0.689,0.311-1.023c0.082-0.336,0.121-0.608,0.121-0.821
					c0-0.432-0.069-0.81-0.209-1.132s-0.297-0.6-0.47-0.833c-0.174-0.233-0.332-0.432-0.471-0.598
					c-0.14-0.166-0.209-0.303-0.209-0.413c0-0.042,0.027-0.076,0.083-0.102c0.055-0.026,0.121-0.047,0.197-0.064
					c0.076-0.017,0.154-0.029,0.235-0.038c0.08-0.008,0.15-0.012,0.209-0.012c0.06,0,0.127,0.024,0.204,0.076
					c0.076,0.05,0.18,0.154,0.311,0.311c0.132,0.158,0.306,0.385,0.522,0.681c0.216,0.297,0.489,0.687,0.821,1.171
					c0.144,0.203,0.319,0.435,0.527,0.692c0.208,0.26,0.433,0.522,0.674,0.789c0.242,0.267,0.495,0.526,0.757,0.775
					c0.264,0.251,0.523,0.476,0.783,0.675c0.258,0.199,0.504,0.357,0.738,0.478c0.233,0.118,0.443,0.178,0.629,0.178
					c0.348,0,0.757-0.11,1.227-0.331c0.471-0.221,0.935-0.523,1.393-0.909s0.875-0.846,1.253-1.381
					c0.377-0.534,0.643-1.114,0.795-1.742c0.051-0.212,0.099-0.36,0.146-0.445c0.046-0.085,0.095-0.127,0.146-0.127
					c0.033,0,0.082,0.007,0.146,0.02c0.064,0.012,0.128,0.033,0.191,0.063c0.063,0.029,0.119,0.063,0.165,0.102
					s0.07,0.082,0.07,0.134c0,0.067-0.018,0.192-0.051,0.375c-0.034,0.182-0.074,0.413-0.121,0.693
					c-0.046,0.279-0.087,0.61-0.121,0.991c-0.034,0.382-0.05,0.806-0.05,1.272c0,0.306,0.036,0.583,0.108,0.833
					c0.071,0.25,0.152,0.473,0.241,0.668c0.089,0.194,0.169,0.364,0.242,0.509c0.072,0.144,0.108,0.263,0.108,0.355
					c0,0.034-0.03,0.075-0.089,0.121c-0.059,0.047-0.129,0.092-0.209,0.134c-0.081,0.043-0.163,0.078-0.249,0.108
					c-0.084,0.029-0.152,0.045-0.203,0.045c-0.102,0-0.181-0.068-0.236-0.204c-0.055-0.136-0.095-0.322-0.121-0.56
					c-0.025-0.204-0.057-0.437-0.095-0.7c-0.038-0.262-0.076-0.521-0.114-0.775s-0.072-0.485-0.102-0.693s-0.053-0.357-0.069-0.451
					l-0.79,0.712c-0.594,0.534-1.216,0.962-1.87,1.284c-0.652,0.323-1.276,0.484-1.869,0.484c-0.229,0-0.454-0.026-0.675-0.076
					c-0.22-0.051-0.451-0.145-0.693-0.28s-0.502-0.319-0.782-0.554c-0.28-0.233-0.59-0.532-0.929-0.896l-1.284-1.361
					C79.179,93.334,78.922,94.173,78.689,94.886z"/>
				<path fill="#931319" d="M95.815,92.672c0,0.025-0.023,0.066-0.07,0.121c-0.046,0.056-0.104,0.112-0.171,0.171
					c-0.068,0.06-0.134,0.111-0.197,0.153c-0.064,0.042-0.117,0.064-0.159,0.064c-0.382,0.033-0.736,0.053-1.063,0.057
					c-0.326,0.004-0.617,0.011-0.871,0.02c0,1.017,0.2,1.782,0.598,2.295c0.398,0.514,1.034,0.77,1.908,0.77
					c0.187,0,0.312,0.018,0.375,0.051c0.064,0.034,0.095,0.106,0.095,0.217c0,0.067-0.063,0.136-0.19,0.203
					c-0.127,0.068-0.352,0.103-0.674,0.103c-0.483,0-0.895-0.054-1.234-0.159c-0.339-0.107-0.624-0.249-0.852-0.427
					c-0.229-0.178-0.409-0.384-0.541-0.617c-0.132-0.232-0.231-0.479-0.299-0.737s-0.11-0.52-0.126-0.782
					c-0.018-0.263-0.026-0.513-0.026-0.751c0-0.847,0.078-1.558,0.235-2.13c0.156-0.572,0.363-1.035,0.617-1.387
					c0.254-0.351,0.549-0.602,0.885-0.75c0.334-0.148,0.68-0.223,1.036-0.223s0.598,0.028,0.726,0.083
					c0.126,0.055,0.19,0.154,0.19,0.299c0,0.186-0.081,0.279-0.242,0.279h-0.75c-0.204,0-0.401,0.042-0.591,0.128
					c-0.19,0.084-0.364,0.243-0.521,0.477c-0.157,0.232-0.291,0.554-0.401,0.96c-0.11,0.407-0.182,0.929-0.216,1.565
					c0.068-0.06,0.148-0.108,0.242-0.146c0.093-0.038,0.204-0.058,0.33-0.058h1.718C95.734,92.52,95.815,92.571,95.815,92.672z"/>
				<path fill="#931319" d="M98.149,95.872c0.038-0.038,0.079-0.058,0.121-0.058c0.119,0,0.258,0.041,0.42,0.121
					c0.161,0.08,0.36,0.121,0.598,0.121c0.229,0,0.413-0.079,0.553-0.235c0.14-0.157,0.21-0.329,0.21-0.515
					c0-0.17-0.041-0.37-0.121-0.599c-0.082-0.229-0.181-0.473-0.299-0.73c-0.119-0.26-0.248-0.526-0.388-0.802
					c-0.14-0.276-0.269-0.543-0.388-0.802c-0.119-0.259-0.218-0.503-0.299-0.731c-0.081-0.229-0.121-0.424-0.121-0.585
					c0-0.145,0.057-0.35,0.171-0.617c0.114-0.267,0.267-0.536,0.458-0.808c0.191-0.271,0.412-0.507,0.662-0.705
					c0.25-0.2,0.511-0.299,0.783-0.299c0.059,0,0.146,0.006,0.26,0.019c0.115,0.013,0.227,0.034,0.337,0.063
					s0.208,0.068,0.293,0.114c0.084,0.047,0.127,0.104,0.127,0.172c0,0.17-0.031,0.28-0.096,0.33
					c-0.063,0.052-0.214,0.081-0.451,0.09c-0.56,0.018-0.962,0.146-1.208,0.388s-0.369,0.54-0.369,0.896
					c0,0.221,0.072,0.499,0.216,0.833c0.144,0.336,0.303,0.695,0.477,1.082c0.174,0.386,0.333,0.784,0.477,1.195
					s0.216,0.803,0.216,1.177c0,0.067-0.021,0.208-0.063,0.42c-0.043,0.212-0.121,0.43-0.235,0.655
					c-0.115,0.224-0.268,0.425-0.458,0.604c-0.191,0.178-0.439,0.268-0.744,0.268c-0.076,0-0.174-0.014-0.292-0.038
					c-0.119-0.026-0.235-0.06-0.35-0.103c-0.114-0.043-0.216-0.087-0.305-0.134c-0.09-0.047-0.143-0.091-0.159-0.134
					c-0.026-0.076-0.047-0.149-0.064-0.223c-0.017-0.071-0.025-0.149-0.025-0.235C98.092,95.976,98.111,95.91,98.149,95.872z"/>
				<path fill="#931319" d="M103.097,95.872c0.038-0.038,0.079-0.058,0.121-0.058c0.118,0,0.259,0.041,0.42,0.121
					s0.36,0.121,0.598,0.121c0.229,0,0.413-0.079,0.554-0.235c0.14-0.157,0.21-0.329,0.21-0.515c0-0.17-0.041-0.37-0.121-0.599
					c-0.081-0.229-0.181-0.473-0.299-0.73c-0.119-0.26-0.248-0.526-0.389-0.802c-0.14-0.276-0.269-0.543-0.387-0.802
					c-0.12-0.259-0.219-0.503-0.3-0.731c-0.081-0.229-0.12-0.424-0.12-0.585c0-0.145,0.057-0.35,0.171-0.617
					c0.114-0.267,0.268-0.536,0.458-0.808c0.191-0.271,0.412-0.507,0.662-0.705c0.25-0.2,0.511-0.299,0.782-0.299
					c0.059,0,0.146,0.006,0.26,0.019c0.115,0.013,0.228,0.034,0.337,0.063c0.11,0.029,0.208,0.068,0.293,0.114
					c0.085,0.047,0.127,0.104,0.127,0.172c0,0.17-0.031,0.28-0.095,0.33c-0.064,0.052-0.215,0.081-0.451,0.09
					c-0.561,0.018-0.963,0.146-1.209,0.388c-0.245,0.241-0.369,0.54-0.369,0.896c0,0.221,0.072,0.499,0.217,0.833
					c0.144,0.336,0.303,0.695,0.477,1.082c0.174,0.386,0.333,0.784,0.477,1.195c0.145,0.411,0.217,0.803,0.217,1.177
					c0,0.067-0.021,0.208-0.063,0.42c-0.043,0.212-0.121,0.43-0.235,0.655c-0.114,0.224-0.267,0.425-0.457,0.604
					c-0.191,0.178-0.439,0.268-0.745,0.268c-0.076,0-0.174-0.014-0.292-0.038c-0.119-0.026-0.235-0.06-0.351-0.103
					c-0.114-0.043-0.216-0.087-0.305-0.134s-0.143-0.091-0.159-0.134c-0.025-0.076-0.047-0.149-0.063-0.223
					c-0.018-0.071-0.025-0.149-0.025-0.235C103.04,95.976,103.059,95.91,103.097,95.872z"/>
				<path fill="#931319" d="M109.26,94.675c-0.161,0.081-0.301,0.228-0.42,0.439l-0.636,1.106c-0.043,0.076-0.068,0.157-0.076,0.241
					c-0.009,0.085-0.072,0.128-0.19,0.128c-0.238,0-0.429-0.026-0.572-0.076c-0.146-0.052-0.218-0.123-0.218-0.217
					c0-0.076,0.044-0.157,0.128-0.241c0.085-0.085,0.183-0.2,0.292-0.344c0.153-0.194,0.322-0.429,0.51-0.7
					c0.187-0.271,0.372-0.555,0.56-0.852c0.187-0.297,0.368-0.596,0.547-0.897c0.178-0.3,0.334-0.578,0.47-0.833
					c0.136-0.254,0.246-0.477,0.332-0.667c0.084-0.191,0.126-0.324,0.126-0.4c0-0.17-0.144-0.398-0.432-0.687l-1.043-1.056
					c-0.119-0.128-0.221-0.217-0.306-0.268s-0.127-0.11-0.127-0.179c0-0.033,0.032-0.073,0.095-0.12
					c0.063-0.047,0.139-0.093,0.223-0.141c0.086-0.046,0.173-0.087,0.261-0.121c0.09-0.033,0.163-0.05,0.223-0.05
					c0.119,0,0.212,0.004,0.28,0.012c0.068,0.01,0.125,0.028,0.172,0.058c0.046,0.029,0.084,0.074,0.114,0.134
					c0.029,0.059,0.065,0.141,0.108,0.241c0.017,0.052,0.07,0.136,0.158,0.255c0.09,0.118,0.18,0.237,0.273,0.356
					c0.688,0.83,1.28,1.53,1.781,2.099c0.5,0.567,0.956,1.066,1.367,1.494s0.806,0.816,1.183,1.163
					c0.378,0.349,0.791,0.722,1.24,1.12c0.085,0.076,0.166,0.127,0.242,0.152s0.142,0.047,0.197,0.063
					c0.055,0.018,0.099,0.041,0.133,0.07c0.034,0.03,0.052,0.083,0.052,0.159c0,0.034-0.024,0.083-0.07,0.146
					c-0.047,0.064-0.104,0.128-0.172,0.191c-0.067,0.063-0.136,0.117-0.203,0.159c-0.068,0.042-0.128,0.063-0.179,0.063h-0.382
					c-0.067,0-0.114-0.029-0.14-0.089s-0.06-0.114-0.102-0.166c-0.28-0.381-0.849-1.004-1.704-1.87h-3.37
					C109.662,94.554,109.421,94.595,109.26,94.675z M109.883,93.283c-0.11,0.195-0.183,0.323-0.216,0.382
					c-0.034,0.06-0.052,0.11-0.052,0.153c0,0.034,0.011,0.061,0.032,0.082s0.074,0.036,0.159,0.044
					c0.085,0.009,0.211,0.016,0.381,0.02s0.407,0.007,0.713,0.007c0.331,0,0.606-0.003,0.827-0.007
					c0.22-0.004,0.397-0.011,0.534-0.02c0.136-0.008,0.237-0.019,0.305-0.031c0.068-0.013,0.119-0.027,0.152-0.045l-1.996-2.035
					L109.883,93.283z"/>
				<path fill="#931319" d="M122.335,93.97c0.06-0.034,0.183-0.052,0.369-0.052c0.051,0,0.093,0.01,0.128,0.025
					c0.032,0.018,0.061,0.063,0.082,0.134c0.021,0.073,0.033,0.183,0.038,0.331c0.004,0.148,0.006,0.358,0.006,0.63
					c0,0.567,0.02,1.028,0.058,1.38s0.057,0.65,0.057,0.896c0,0.119-0.022,0.203-0.069,0.255c-0.047,0.051-0.146,0.076-0.299,0.076
					c-0.052,0-0.094-0.013-0.128-0.038c-0.033-0.025-0.067-0.075-0.102-0.146c-0.034-0.072-0.065-0.176-0.095-0.312
					c-0.03-0.136-0.062-0.313-0.096-0.534s-0.161-0.331-0.382-0.331c-0.034,0-0.095,0.009-0.184,0.025
					c-0.09,0.018-0.193,0.034-0.313,0.052c-0.118,0.017-0.246,0.033-0.382,0.05c-0.136,0.018-0.262,0.026-0.381,0.026
					c-0.585,0-1.066-0.11-1.444-0.332c-0.377-0.22-0.675-0.489-0.896-0.807c-0.22-0.318-0.375-0.651-0.464-0.999
					s-0.134-0.652-0.134-0.916c0-0.525,0.081-1.042,0.242-1.552c0.161-0.508,0.413-0.962,0.757-1.36
					c0.343-0.398,0.778-0.723,1.304-0.973s1.152-0.375,1.882-0.375c0.484,0,0.853,0.053,1.106,0.158
					c0.255,0.106,0.382,0.273,0.382,0.502c0,0.06-0.025,0.121-0.076,0.185c-0.051,0.064-0.11,0.119-0.178,0.166
					c-0.068,0.046-0.136,0.084-0.204,0.114c-0.067,0.029-0.123,0.045-0.165,0.045c-0.06,0-0.121-0.026-0.185-0.076
					c-0.063-0.052-0.188-0.162-0.375-0.331c-0.085-0.076-0.165-0.125-0.241-0.146s-0.17-0.032-0.28-0.032
					c-0.416,0-0.808,0.125-1.177,0.375c-0.368,0.251-0.693,0.566-0.973,0.948c-0.28,0.381-0.5,0.8-0.662,1.253
					c-0.16,0.454-0.241,0.884-0.241,1.291c0,0.458,0.049,0.831,0.146,1.119c0.098,0.289,0.233,0.511,0.407,0.668
					c0.173,0.156,0.375,0.265,0.604,0.324c0.229,0.06,0.475,0.089,0.738,0.089c0.229,0,0.438-0.027,0.629-0.083
					c0.191-0.055,0.356-0.125,0.496-0.209c0.14-0.086,0.25-0.178,0.331-0.28c0.08-0.102,0.13-0.203,0.146-0.306l0.103-0.763
					C122.238,94.059,122.276,94.004,122.335,93.97z"/>
				<path fill="#931319" d="M129.268,92.672c0,0.025-0.023,0.066-0.07,0.121c-0.047,0.056-0.104,0.112-0.172,0.171
					c-0.067,0.06-0.133,0.111-0.197,0.153c-0.063,0.042-0.116,0.064-0.158,0.064c-0.382,0.033-0.736,0.053-1.063,0.057
					s-0.617,0.011-0.871,0.02c0,1.017,0.199,1.782,0.598,2.295c0.398,0.514,1.034,0.77,1.908,0.77c0.186,0,0.311,0.018,0.375,0.051
					c0.063,0.034,0.095,0.106,0.095,0.217c0,0.067-0.063,0.136-0.19,0.203c-0.127,0.068-0.352,0.103-0.674,0.103
					c-0.483,0-0.895-0.054-1.234-0.159c-0.339-0.107-0.623-0.249-0.852-0.427c-0.229-0.178-0.409-0.384-0.541-0.617
					c-0.132-0.232-0.23-0.479-0.299-0.737c-0.067-0.259-0.11-0.52-0.127-0.782s-0.025-0.513-0.025-0.751
					c0-0.847,0.078-1.558,0.235-2.13c0.156-0.572,0.362-1.035,0.617-1.387c0.254-0.351,0.549-0.602,0.884-0.75
					s0.68-0.223,1.036-0.223s0.598,0.028,0.726,0.083c0.127,0.055,0.19,0.154,0.19,0.299c0,0.186-0.08,0.279-0.242,0.279h-0.75
					c-0.204,0-0.4,0.042-0.591,0.128c-0.19,0.084-0.365,0.243-0.522,0.477c-0.156,0.232-0.29,0.554-0.4,0.96
					c-0.11,0.407-0.183,0.929-0.216,1.565c0.067-0.06,0.147-0.108,0.241-0.146s0.204-0.058,0.331-0.058h1.717
					C129.187,92.52,129.268,92.571,129.268,92.672z"/>
				<path fill="#931319" d="M136.021,96.59c-0.094,0-0.157-0.027-0.191-0.083c-0.034-0.055-0.051-0.134-0.051-0.235
					c0-0.44,0.013-0.898,0.038-1.374c0.025-0.475,0.038-0.979,0.038-1.514c0-0.236,0-0.482,0-0.737c0-0.263-0.002-0.521-0.007-0.776
					c-0.004-0.254-0.011-0.491-0.019-0.712c-0.009-0.221-0.017-0.411-0.025-0.572c0-0.102-0.027-0.188-0.082-0.261
					c-0.056-0.072-0.12-0.135-0.191-0.19c-0.072-0.056-0.136-0.108-0.19-0.159c-0.056-0.051-0.083-0.11-0.083-0.178
					c0-0.025,0.019-0.068,0.057-0.128c0.038-0.059,0.09-0.121,0.153-0.185c0.063-0.063,0.138-0.12,0.222-0.171
					c0.086-0.051,0.175-0.076,0.268-0.076c0.076,0,0.17,0.017,0.28,0.05c0.11,0.034,0.216,0.075,0.318,0.121
					c0.102,0.047,0.188,0.096,0.261,0.146c0.071,0.051,0.107,0.098,0.107,0.141c0,0.076-0.031,0.186-0.096,0.33
					c-0.063,0.144-0.099,0.317-0.107,0.521c0,0.306-0.002,0.624-0.007,0.954c-0.004,0.33-0.015,0.653-0.031,0.966h3.383
					c0.009-0.169,0.015-0.359,0.02-0.571c0.004-0.213,0.006-0.429,0.006-0.648c0-0.298-0.012-0.568-0.038-0.814
					c-0.025-0.246-0.038-0.428-0.038-0.547c0-0.06,0.043-0.114,0.127-0.165c0.085-0.052,0.185-0.097,0.299-0.135
					c0.115-0.038,0.231-0.067,0.351-0.088c0.118-0.021,0.216-0.032,0.292-0.032c0.17,0,0.254,0.06,0.254,0.178
					c0,0.034-0.011,0.07-0.031,0.108c-0.021,0.038-0.045,0.085-0.07,0.14c-0.024,0.056-0.055,0.125-0.089,0.21
					c-0.033,0.085-0.063,0.195-0.089,0.331c-0.025,0.152-0.047,0.318-0.063,0.496s-0.029,0.358-0.038,0.541
					c-0.009,0.182-0.016,0.36-0.02,0.534s-0.006,0.323-0.006,0.451c0.068-0.009,0.138-0.016,0.21-0.02
					c0.071-0.004,0.143-0.007,0.21-0.007s0.121,0.011,0.159,0.033c0.038,0.021,0.057,0.073,0.057,0.158
					c0,0.076-0.025,0.18-0.076,0.312s-0.127,0.197-0.229,0.197c-0.025,0-0.055-0.004-0.088-0.013
					c-0.034-0.008-0.073-0.013-0.115-0.013c-0.085,0-0.127,0.051-0.127,0.153l-0.025,2.505c0,0.051-0.011,0.112-0.031,0.185
					c-0.021,0.071-0.049,0.145-0.083,0.216c-0.034,0.073-0.074,0.134-0.121,0.185c-0.047,0.052-0.101,0.076-0.159,0.076
					c-0.119,0-0.201-0.021-0.248-0.063c-0.047-0.043-0.074-0.132-0.082-0.268l-0.128-2.964c-0.229,0-0.511,0.007-0.846,0.019
					c-0.335,0.013-0.672,0.027-1.012,0.045c-0.338,0.018-0.65,0.041-0.935,0.069c-0.284,0.03-0.485,0.063-0.604,0.097
					c-0.025,0.067-0.043,0.146-0.052,0.235c-0.008,0.088-0.012,0.167-0.012,0.234v2.162C136.594,96.391,136.403,96.59,136.021,96.59
					z"/>
				<path fill="#931319" d="M147.875,92.672c0,0.025-0.023,0.066-0.07,0.121c-0.047,0.056-0.104,0.112-0.172,0.171
					c-0.067,0.06-0.133,0.111-0.196,0.153c-0.064,0.042-0.117,0.064-0.159,0.064c-0.382,0.033-0.736,0.053-1.063,0.057
					s-0.617,0.011-0.871,0.02c0,1.017,0.199,1.782,0.598,2.295c0.398,0.514,1.034,0.77,1.908,0.77c0.187,0,0.312,0.018,0.375,0.051
					c0.063,0.034,0.095,0.106,0.095,0.217c0,0.067-0.063,0.136-0.19,0.203c-0.127,0.068-0.352,0.103-0.674,0.103
					c-0.483,0-0.895-0.054-1.233-0.159c-0.34-0.107-0.624-0.249-0.853-0.427c-0.229-0.178-0.409-0.384-0.541-0.617
					c-0.131-0.232-0.23-0.479-0.299-0.737c-0.067-0.259-0.109-0.52-0.126-0.782c-0.018-0.263-0.026-0.513-0.026-0.751
					c0-0.847,0.078-1.558,0.235-2.13c0.156-0.572,0.363-1.035,0.617-1.387c0.254-0.351,0.549-0.602,0.884-0.75
					s0.681-0.223,1.036-0.223c0.356,0,0.598,0.028,0.726,0.083c0.127,0.055,0.19,0.154,0.19,0.299c0,0.186-0.08,0.279-0.242,0.279
					h-0.75c-0.203,0-0.4,0.042-0.591,0.128c-0.19,0.084-0.364,0.243-0.521,0.477c-0.157,0.232-0.291,0.554-0.401,0.96
					c-0.11,0.407-0.182,0.929-0.216,1.565c0.067-0.06,0.148-0.108,0.241-0.146c0.094-0.038,0.204-0.058,0.331-0.058h1.717
					C147.794,92.52,147.875,92.571,147.875,92.672z"/>
				<path fill="#931319" d="M152.136,88.761c0.076-0.013,0.182-0.019,0.317-0.019c0.322,0,0.621,0.046,0.897,0.14
					c0.275,0.094,0.515,0.216,0.719,0.368c0.203,0.153,0.364,0.325,0.483,0.516c0.118,0.191,0.178,0.384,0.178,0.578
					c0,0.306-0.051,0.566-0.153,0.783c-0.101,0.216-0.23,0.396-0.388,0.54c-0.157,0.145-0.324,0.262-0.502,0.35
					c-0.179,0.09-0.343,0.159-0.496,0.211c-0.204,0.067-0.326,0.111-0.368,0.133c-0.044,0.021-0.064,0.045-0.064,0.069
					c0,0.026,0.034,0.056,0.103,0.09c0.067,0.034,0.216,0.123,0.444,0.267c0.229,0.145,0.501,0.318,0.813,0.521
					c0.314,0.204,0.653,0.429,1.019,0.674c0.271,0.179,0.544,0.354,0.82,0.528c0.275,0.175,0.538,0.342,0.788,0.502
					c0.25,0.162,0.481,0.306,0.693,0.434c0.212,0.127,0.386,0.232,0.521,0.317c0.348,0.195,0.695,0.293,1.043,0.293
					c0.034,0,0.065,0.018,0.096,0.05c0.029,0.034,0.045,0.082,0.045,0.141c0,0.043-0.037,0.105-0.108,0.191
					c-0.072,0.084-0.157,0.169-0.255,0.254c-0.098,0.084-0.195,0.159-0.292,0.223c-0.098,0.063-0.172,0.096-0.223,0.096
					c-0.094,0-0.284-0.094-0.572-0.28c-0.289-0.187-0.63-0.42-1.024-0.7c-0.395-0.279-0.822-0.588-1.284-0.928
					s-0.918-0.657-1.367-0.954c-0.449-0.296-0.872-0.556-1.267-0.775c-0.394-0.221-0.719-0.356-0.973-0.408
					c-0.017,0.17-0.029,0.359-0.038,0.566c-0.008,0.208-0.013,0.413-0.013,0.617v0.344c0,0.348,0.006,0.632,0.02,0.853
					c0.013,0.22,0.025,0.4,0.038,0.54s0.025,0.252,0.038,0.337s0.019,0.161,0.019,0.229c0,0.086-0.022,0.145-0.069,0.179
					c-0.047,0.033-0.13,0.051-0.248,0.051c-0.06,0-0.141-0.011-0.242-0.032s-0.201-0.046-0.299-0.076
					c-0.098-0.029-0.18-0.067-0.247-0.114c-0.068-0.046-0.103-0.095-0.103-0.146c0-0.042,0.011-0.084,0.031-0.128
					c0.021-0.042,0.047-0.099,0.076-0.171c0.03-0.072,0.061-0.163,0.09-0.273c0.03-0.11,0.049-0.246,0.058-0.407
					c0-0.067,0.004-0.231,0.012-0.489c0.009-0.259,0.02-0.562,0.032-0.909s0.023-0.715,0.032-1.101
					c0.008-0.386,0.013-0.739,0.013-1.062c0-0.145-0.002-0.327-0.007-0.548c-0.004-0.22-0.012-0.438-0.025-0.654
					c-0.013-0.217-0.029-0.407-0.051-0.572c-0.021-0.166-0.049-0.261-0.082-0.287c-0.179-0.102-0.268-0.229-0.268-0.382
					c0-0.109,0.085-0.186,0.255-0.229l1.106-0.292C151.983,88.789,152.06,88.774,152.136,88.761z M151.812,92.125
					c0.029,0.017,0.062,0.025,0.096,0.025c0.042,0,0.109-0.021,0.203-0.063c0.093-0.043,0.25-0.114,0.471-0.217
					c0.076-0.033,0.159-0.071,0.247-0.114c0.09-0.042,0.181-0.095,0.274-0.159c0.093-0.063,0.178-0.14,0.254-0.229
					s0.141-0.196,0.19-0.324c0.094-0.28,0.141-0.563,0.141-0.853c0-0.118-0.02-0.216-0.058-0.292
					c-0.038-0.077-0.083-0.148-0.133-0.216c-0.018-0.025-0.056-0.056-0.114-0.09c-0.06-0.034-0.126-0.065-0.197-0.095
					c-0.073-0.03-0.14-0.054-0.204-0.07c-0.063-0.017-0.112-0.025-0.146-0.025s-0.098,0.006-0.19,0.02
					c-0.094,0.012-0.188,0.031-0.286,0.057s-0.185,0.055-0.261,0.089s-0.119,0.072-0.127,0.115
					c-0.043,0.194-0.077,0.404-0.102,0.629c-0.026,0.225-0.048,0.445-0.064,0.662c-0.017,0.216-0.027,0.415-0.031,0.597
					c-0.005,0.184-0.007,0.325-0.007,0.427C151.767,92.066,151.782,92.109,151.812,92.125z"/>
				<path fill="#931319" d="M164.117,92.672c0,0.025-0.023,0.066-0.07,0.121c-0.047,0.056-0.104,0.112-0.172,0.171
					c-0.067,0.06-0.133,0.111-0.197,0.153c-0.063,0.042-0.116,0.064-0.159,0.064c-0.381,0.033-0.735,0.053-1.062,0.057
					c-0.327,0.004-0.617,0.011-0.872,0.02c0,1.017,0.2,1.782,0.599,2.295c0.398,0.514,1.034,0.77,1.907,0.77
					c0.187,0,0.312,0.018,0.376,0.051c0.063,0.034,0.095,0.106,0.095,0.217c0,0.067-0.063,0.136-0.19,0.203
					c-0.128,0.068-0.352,0.103-0.674,0.103c-0.483,0-0.895-0.054-1.234-0.159c-0.339-0.107-0.623-0.249-0.852-0.427
					c-0.229-0.178-0.409-0.384-0.541-0.617c-0.132-0.232-0.231-0.479-0.299-0.737c-0.068-0.259-0.11-0.52-0.127-0.782
					c-0.018-0.263-0.025-0.513-0.025-0.751c0-0.847,0.078-1.558,0.235-2.13c0.156-0.572,0.362-1.035,0.616-1.387
					c0.255-0.351,0.55-0.602,0.885-0.75s0.68-0.223,1.036-0.223c0.355,0,0.598,0.028,0.726,0.083c0.126,0.055,0.19,0.154,0.19,0.299
					c0,0.186-0.081,0.279-0.242,0.279h-0.75c-0.204,0-0.401,0.042-0.592,0.128c-0.19,0.084-0.364,0.243-0.521,0.477
					c-0.156,0.232-0.29,0.554-0.4,0.96c-0.11,0.407-0.183,0.929-0.217,1.565c0.068-0.06,0.148-0.108,0.242-0.146
					s0.204-0.058,0.33-0.058h1.718C164.036,92.52,164.117,92.571,164.117,92.672z"/>
			</g>
		</g>
	</g>
</g>
</svg>
