<?xml version="1.0" encoding="utf-8"?>
<!-- Generator: Adobe Illustrator 15.0.0, SVG Export Plug-In . SVG Version: 6.00 Build 0)  -->
<!DOCTYPE svg PUBLIC "-//W3C//DTD SVG 1.1//EN" "http://www.w3.org/Graphics/SVG/1.1/DTD/svg11.dtd">
<svg version="1.1" id="_x32_" xmlns="http://www.w3.org/2000/svg" xmlns:xlink="http://www.w3.org/1999/xlink" x="0px" y="0px"
	 width="41.406px" height="50px" viewBox="235.297 231 41.406 50" enable-background="new 235.297 231 41.406 50"
	 xml:space="preserve">
<g>
	<path fill="#4B4B4B" d="M235.297,235.429v41.144c0,2.444,1.984,4.428,4.432,4.428h2.209v-50h-2.209
		C237.281,231,235.297,232.983,235.297,235.429z"/>
	<path fill="#4B4B4B" d="M272.271,231h-27.99v50h27.99c2.447,0,4.432-1.983,4.432-4.428v-41.144
		C276.703,232.983,274.719,231,272.271,231z M259.675,266.462h-9.213l0.189-2.454c0.17-0.933,0.784-1.724,1.645-2.118l3.705-1.516
		c0.616-0.284,1.013-0.902,1.013-1.581v-0.546c0-0.259-0.042-0.514-0.124-0.758c0,0-2.332-3.11-2.332-5.977
		c0-3.585,2.293-5.889,5.119-5.889c2.828,0,5.121,2.304,5.121,5.889c0,2.866-2.331,5.977-2.331,5.977
		c-0.086,0.244-0.125,0.501-0.125,0.758v0.546c0,0.679,0.395,1.297,1.014,1.581l3.705,1.516c0.86,0.395,1.473,1.186,1.645,2.118
		l0.189,2.454H259.675z"/>
</g>
</svg>
