<?xml version="1.0" encoding="utf-8"?>
<!-- Generator: Adobe Illustrator 15.0.0, SVG Export Plug-In . SVG Version: 6.00 Build 0)  -->
<!DOCTYPE svg PUBLIC "-//W3C//DTD SVG 1.1//EN" "http://www.w3.org/Graphics/SVG/1.1/DTD/svg11.dtd">
<svg version="1.1" id="レイヤー_1" focusable="false"
	 xmlns="http://www.w3.org/2000/svg" xmlns:xlink="http://www.w3.org/1999/xlink" x="0px" y="0px" width="42.477px" height="50px"
	 viewBox="942.402 283.693 42.477 50" enable-background="new 942.402 283.693 42.477 50" xml:space="preserve">
<g>
	<path fill="#FFFFFF" d="M955.995,315.003c-0.704-0.936-2.038-1.128-2.974-0.425s-1.128,2.038-0.425,2.974l2.529,3.371
		c0.318,0.425,0.271,1.016-0.1,1.387l-0.85,0.85c-0.445,0.445-1.168,0.412-1.566-0.073l-5.96-7.155v-9.849
		c0-1.175-0.949-2.124-2.124-2.124s-2.124,0.949-2.124,2.124v14.495c0,0.723,0.246,1.427,0.697,1.991l6.909,8.914
		c0.332,0.431,0.558,0.922,0.69,1.44c0.119,0.458,0.537,0.77,1.015,0.77h8.741c0.584,0,1.062-0.478,1.062-1.062v-7.433
		c0-1.838-0.597-3.624-1.699-5.097L955.995,315.003L955.995,315.003z M982.754,303.96c-1.175,0-2.124,0.949-2.124,2.124v9.849
		l-5.96,7.155c-0.398,0.478-1.128,0.511-1.566,0.073l-0.85-0.85c-0.371-0.372-0.418-0.962-0.1-1.387l2.529-3.371
		c0.703-0.936,0.511-2.27-0.425-2.974s-2.27-0.511-2.974,0.425l-3.822,5.097c-1.103,1.473-1.699,3.259-1.699,5.097v7.433
		c0,0.584,0.478,1.062,1.062,1.062h8.741c0.471,0,0.896-0.312,1.015-0.77c0.133-0.518,0.358-1.009,0.69-1.44l6.909-8.914
		c0.451-0.564,0.697-1.268,0.697-1.991v-14.495C984.878,304.909,983.929,303.96,982.754,303.96z"/>
	<path fill="#FFFFFF" d="M973.421,296.905h-18.688c-0.365-1.034-0.564-2.145-0.564-3.303c0-5.467,4.441-9.909,9.908-9.909
		c5.468,0,9.909,4.441,9.909,9.909C973.986,294.76,973.786,295.871,973.421,296.905z"/>
	<circle fill="#E8435F" cx="964.903" cy="294.427" r="0.826"/>
	<circle fill="#E8435F" cx="957.884" cy="292.363" r="1.239"/>
	<circle fill="#E8435F" cx="969.386" cy="291.17" r="1.652"/>
	<circle fill="#E8435F" cx="962.425" cy="291.125" r="0.826"/>
	<circle fill="#E8435F" cx="966.141" cy="287.409" r="1.239"/>
	<circle fill="#E8435F" cx="961.599" cy="286.996" r="0.826"/>
	<polygon fill="#FFFFFF" points="971.398,310.683 956.756,310.683 953.489,297.673 974.665,297.673 	"/>
</g>
</svg>
