<?xml version="1.0" encoding="utf-8"?>
<!-- Generator: Adobe Illustrator 15.0.0, SVG Export Plug-In . SVG Version: 6.00 Build 0)  -->
<!DOCTYPE svg PUBLIC "-//W3C//DTD SVG 1.1//EN" "http://www.w3.org/Graphics/SVG/1.1/DTD/svg11.dtd">
<svg version="1.1" id="_x32_" xmlns="http://www.w3.org/2000/svg" xmlns:xlink="http://www.w3.org/1999/xlink" x="0px" y="0px"
	 width="45.599px" height="50px" viewBox="233.201 231 45.599 50" enable-background="new 233.201 231 45.599 50"
	 xml:space="preserve">
<g>
	<path fill="#4B4B4B" d="M251.325,270.008c0,0,0.943-1.532,2.077-3.375l-15.032-9.25c-1.134,1.84-2.078,3.375-2.078,3.375
		s2.715,5.899-0.967,11.881l2.915,1.794l2.915,1.795C244.834,270.243,251.325,270.008,251.325,270.008z"/>
	<path fill="#4B4B4B" d="M269.04,241.224c0.589-0.961,0.29-2.219-0.67-2.811l-11.554-7.109c-0.334-0.206-0.703-0.304-1.068-0.304
		c-0.685,0-1.355,0.345-1.741,0.972l-14.883,24.184l15.033,9.25L269.04,241.224z M243.534,255.106l12.595-20.462l9.572,5.89
		l-12.593,20.462L243.534,255.106z"/>
	<polygon fill="#4B4B4B" points="233.201,278.719 238.245,278.719 239.543,276.609 235.709,274.25 	"/>
	<path fill="#4B4B4B" d="M278.11,278.311h-35.602c-0.381,0-0.689,0.308-0.689,0.688v1.313c0,0.382,0.308,0.689,0.689,0.689h35.602
		c0.382,0,0.689-0.308,0.689-0.689v-1.313C278.8,278.618,278.492,278.311,278.11,278.311z"/>
</g>
</svg>
