<?xml version="1.0" encoding="utf-8"?>
<!-- Generator: Adobe Illustrator 15.0.0, SVG Export Plug-In . SVG Version: 6.00 Build 0)  -->
<!DOCTYPE svg PUBLIC "-//W3C//DTD SVG 1.1//EN" "http://www.w3.org/Graphics/SVG/1.1/DTD/svg11.dtd">
<svg version="1.1" id="_x32_" xmlns="http://www.w3.org/2000/svg" xmlns:xlink="http://www.w3.org/1999/xlink" x="0px" y="0px"
	 width="45.598px" height="50.001px" viewBox="233.201 231 45.598 50.001" enable-background="new 233.201 231 45.598 50.001"
	 xml:space="preserve">
<g>
	<path fill="#FFFFFF" d="M251.325,270.008c0,0,0.943-1.531,2.077-3.375l-15.032-9.25c-1.134,1.84-2.078,3.375-2.078,3.375
		s2.715,5.899-0.967,11.881l2.915,1.795l2.915,1.795C244.834,270.243,251.325,270.008,251.325,270.008z"/>
	<path fill="#FFFFFF" d="M269.04,241.225c0.589-0.961,0.29-2.22-0.67-2.812l-11.554-7.108c-0.334-0.207-0.703-0.305-1.068-0.305
		c-0.685,0-1.354,0.345-1.741,0.973l-14.883,24.184l15.033,9.25L269.04,241.225z M243.534,255.105l12.595-20.461l9.572,5.89
		l-12.593,20.462L243.534,255.105z"/>
	<polygon fill="#FFFFFF" points="233.201,278.719 238.245,278.719 239.543,276.609 235.709,274.25 	"/>
	<path fill="#FFFFFF" d="M278.11,278.311h-35.603c-0.381,0-0.688,0.309-0.688,0.688v1.313c0,0.381,0.308,0.688,0.688,0.688h35.603
		c0.382,0,0.688-0.308,0.688-0.688v-1.313C278.8,278.618,278.492,278.311,278.11,278.311z"/>
</g>
</svg>
