<?xml version="1.0" encoding="utf-8"?>
<!-- Generator: Adobe Illustrator 15.0.0, SVG Export Plug-In . SVG Version: 6.00 Build 0)  -->
<!DOCTYPE svg PUBLIC "-//W3C//DTD SVG 1.1//EN" "http://www.w3.org/Graphics/SVG/1.1/DTD/svg11.dtd">
<svg version="1.1" id="レイヤー_1" xmlns="http://www.w3.org/2000/svg" xmlns:xlink="http://www.w3.org/1999/xlink" x="0px"
	 y="0px" width="430.981px" height="240.815px" viewBox="0 0 430.981 240.815" enable-background="new 0 0 430.981 240.815"
	 xml:space="preserve">
<rect fill="#FAFA64" width="430.981" height="240.815"/>
<g>
	<path fill="#030000" d="M102.184,118.242c-1.906-0.675-5.179-1.266-10.017-1.79c-3.475-0.386-5.84-0.932-7.037-1.624
		c-1.616-0.932-2.407-2.008-2.407-3.313c0-1.155,0.667-2.198,2.038-3.2c1.953-1.417,4.758-2.133,8.368-2.133
		c3.443,0,6.243,0.709,8.293,2.107c1.311,0.905,2.013,2.021,2.138,3.375c0.078,0.882,0.339,1.556,0.808,2.008
		c0.476,0.456,1.056,0.68,1.751,0.68c0.741,0,1.394-0.281,1.879-0.803c0.466-0.519,0.708-1.269,0.708-2.322v-5.821
		c0-1.063-0.241-1.839-0.708-2.357c-0.485-0.521-1.137-0.803-1.879-0.803c-0.731,0-1.363,0.282-1.839,0.803
		c-0.217,0.218-0.373,0.488-0.485,0.8c-2.908-1.865-6.55-2.815-10.829-2.815c-4.103,0-7.705,0.914-10.674,2.691
		c-3.128,1.87-4.706,4.446-4.706,7.665c0,1.803,0.568,3.497,1.702,5.036c1.122,1.532,2.689,2.694,4.676,3.459
		c1.913,0.729,4.956,1.297,9.302,1.746c4.082,0.412,7.208,1.234,9.309,2.432c1.917,1.121,2.842,2.53,2.842,4.329
		c0,1.544-0.966,3.073-2.9,4.546c-1.994,1.522-5.138,2.286-9.353,2.286c-2.869,0-5.306-0.401-7.266-1.209
		c-1.902-0.79-3.295-1.764-4.144-2.931c-0.525-0.69-0.769-1.544-0.769-2.617c0-0.787-0.247-1.447-0.749-1.95
		c-0.497-0.495-1.134-0.762-1.839-0.762c-0.761,0-1.41,0.286-1.87,0.816c-0.46,0.515-0.679,1.276-0.679,2.309v6.996
		c0,1.04,0.228,1.805,0.708,2.321c0.484,0.521,1.11,0.803,1.84,0.803c0.522,0,1.003-0.146,1.416-0.432
		c0.434-0.289,0.727-0.649,0.902-1.078c0.055-0.114,0.097-0.265,0.132-0.496c3.366,2.215,7.544,3.329,12.44,3.329
		c5.532,0,9.832-1.199,12.75-3.568c2.982-2.408,4.491-5.229,4.491-8.363c0-2.129-0.719-4.117-2.107-5.939
		C107.05,120.653,104.96,119.242,102.184,118.242z"/>
	<path fill="#030000" d="M143.222,138.149c5.302,0,9.842-1.834,13.492-5.458c3.636-3.61,5.485-8.025,5.485-13.12
		c0-3.208-0.821-6.317-2.429-9.221c-1.629-2.917-3.956-5.233-6.91-6.859c-2.954-1.632-6.207-2.459-9.675-2.459
		c-3.29,0-6.187,0.661-8.616,1.967c-1.84,0.986-3.612,2.348-5.261,4.063v-3.968c0-0.458-0.392-0.851-0.851-0.851h-7.984
		c-1.037,0-1.788,0.241-2.306,0.723c-0.523,0.471-0.804,1.11-0.804,1.828c0,0.755,0.281,1.406,0.803,1.891
		c0.518,0.467,1.269,0.709,2.307,0.709h3.722v42.121h-3.722c-1.031,0-1.778,0.217-2.293,0.678c-0.53,0.472-0.816,1.108-0.816,1.871
		c0,0.748,0.286,1.397,0.816,1.872c0.517,0.461,1.264,0.679,2.293,0.679h16.228c1.04,0,1.804-0.229,2.321-0.708
		c0.521-0.485,0.803-1.124,0.803-1.842c0-0.762-0.286-1.397-0.815-1.87c-0.515-0.461-1.275-0.679-2.309-0.679h-7.393v-17.316
		C133.021,136.151,137.684,138.149,143.222,138.149z M129.308,119.572c0-3.684,1.309-6.764,4.022-9.431
		c2.685-2.638,6.014-3.958,9.892-3.958c3.904,0,7.117,1.281,9.824,3.94c2.701,2.655,4.017,5.741,4.017,9.449
		c0,3.732-1.322,6.831-4.035,9.486c-2.718,2.659-5.927,3.942-9.806,3.942s-7.209-1.335-9.892-3.958
		C130.616,126.375,129.308,123.281,129.308,119.572z"/>
	<path fill="#030000" d="M189.356,140.322c5.44,0,10.156-1.929,14.002-5.749c3.862-3.811,5.825-8.485,5.825-13.877
		c0-5.417-1.963-10.09-5.825-13.915c-3.847-3.807-8.563-5.749-14.002-5.749c-5.502,0-10.237,1.948-14.085,5.77
		c-3.834,3.835-5.791,8.516-5.791,13.894c0,5.367,1.957,10.034,5.791,13.855C179.12,138.387,183.856,140.322,189.356,140.322z
		 M174.581,120.696c0-4.025,1.412-7.383,4.307-10.252c2.845-2.833,6.356-4.262,10.419-4.262c4.065,0,7.578,1.422,10.435,4.246
		c2.854,2.804,4.292,6.271,4.292,10.268c0,4.038-1.402,7.396-4.293,10.264c-2.857,2.834-6.369,4.263-10.434,4.263
		c-4.062,0-7.572-1.434-10.417-4.28C175.993,128.063,174.581,124.71,174.581,120.696z"/>
	<path fill="#030000" d="M237.427,140.322c5.439,0,10.156-1.929,14.002-5.749c3.861-3.811,5.825-8.485,5.825-13.877
		c0-5.417-1.964-10.09-5.825-13.915c-3.847-3.807-8.564-5.749-14.002-5.749c-5.502,0-10.237,1.948-14.085,5.77
		c-3.834,3.835-5.791,8.516-5.791,13.894c0,5.367,1.957,10.034,5.791,13.855C227.19,138.387,231.926,140.322,237.427,140.322z
		 M237.376,106.183c4.065,0,7.578,1.422,10.435,4.246c2.854,2.804,4.292,6.271,4.292,10.268c0,4.038-1.402,7.396-4.293,10.264
		c-2.857,2.834-6.369,4.263-10.434,4.263c-4.062,0-7.56-1.434-10.418-4.28c-2.893-2.88-4.308-6.233-4.308-10.247
		c0-4.025,1.415-7.383,4.307-10.252C229.815,107.611,233.314,106.183,237.376,106.183z"/>
	<path fill="#030000" d="M267.249,138.999h11.08c1.053,0,1.804-0.242,2.319-0.722c0.523-0.472,0.804-1.111,0.804-1.827
		c0-0.76-0.286-1.409-0.816-1.884c-0.516-0.447-1.262-0.678-2.307-0.678h-2.985v-20.159c2.871-3.357,5.088-5.471,6.6-6.301
		c1.51-0.831,3.323-1.245,5.417-1.245c2.737,0,4.841,0.732,6.453,2.251c1.586,1.506,2.365,3.288,2.365,5.467v19.987h-1.986
		c-1.055,0-1.828,0.231-2.348,0.68c-0.528,0.475-0.808,1.124-0.808,1.882c0,0.715,0.276,1.345,0.798,1.827
		c0.518,0.481,1.295,0.722,2.358,0.722h9.107c1.04,0,1.805-0.241,2.324-0.723c0.52-0.472,0.789-1.11,0.789-1.826
		c0-0.759-0.273-1.408-0.803-1.885c-0.517-0.445-1.278-0.677-2.31-0.677h-2.022V113.34c0-2.136-0.667-4.227-1.985-6.234
		c-1.291-1.992-2.78-3.434-4.425-4.31c-2.243-1.166-4.758-1.763-7.47-1.763c-2.519,0-4.818,0.493-6.835,1.464
		c-1.599,0.755-3.343,2.018-5.218,3.739v-3.142c0-0.458-0.379-0.851-0.85-0.851h-6.271c-1.04,0-1.804,0.241-2.322,0.723
		c-0.522,0.471-0.804,1.11-0.804,1.828c0,0.755,0.282,1.406,0.804,1.891c0.518,0.467,1.281,0.709,2.322,0.709h2.022v26.493h-2.996
		c-1.032,0-1.793,0.231-2.312,0.679c-0.529,0.475-0.812,1.124-0.812,1.883c0,0.716,0.279,1.354,0.801,1.827
		C265.444,138.757,266.208,138.999,267.249,138.999z"/>
	<path fill="#030000" d="M105.07,151.107h-60.53c-0.635,0-1.146,0.512-1.146,1.145c0,0.635,0.511,1.147,1.146,1.147h60.53
		c0.635,0,1.147-0.513,1.147-1.147C106.218,151.619,105.705,151.107,105.07,151.107z"/>
	<g>
		<path fill="#030000" d="M386.517,150.048h-44.305c-0.542-19.676-1.444-51.041-1.655-58.623c3.02-1.092,6.425-2.427,10.124-8.375
			c3.835-6.162,2.301-16.713,1.038-22.455c-1.625-7.471-7.647-18.621-17.521-18.699l-0.103-0.002
			c-8.924,0-15.863,11.374-17.744,19.058c-2.052,8.399-1.324,17.497,1.868,23.172c2.314,4.126,6.664,6.343,9.288,7.36l-0.013,0.631
			c-0.616,25.635-1.059,45.123-1.344,57.947H153.796c-1.224,0-2.224,1-2.224,2.224c0,1.225,1,2.225,2.224,2.225h173.167
			c0.999,0,1.801-0.355,2.594-1.159c0.762-0.748,0.963-1.902,1.014-2.436c0.007-0.034,0.011-0.069,0.012-0.12
			c0.35-16.021,0.968-42.111,1.422-60.838c0.021-1.027-0.655-1.941-1.645-2.2c-0.237-0.077-5.95-1.702-8.256-5.815
			c-2.671-4.75-3.228-12.571-1.422-19.923c1.562-6.407,7.246-15.676,13.462-15.676c7.226,0.056,11.948,9.355,13.229,15.207
			c1.892,8.645,1.721,15.62-0.472,19.146c-2.97,4.765-5.435,5.666-8.06,6.615c-0.47,0.17-0.921,0.338-1.383,0.521
			c-0.86,0.346-1.432,1.201-1.393,2.134l0.046,1.795c0.219,7.843,1.125,39.324,1.66,58.816c-0.001,0.022-0.001,0.044-0.001,0.073
			l0.007,0.134c0,0.063,0.007,0.11,0.021,0.156c0.064,0.568,0.307,1.757,1.026,2.476c0.999,1.003,1.77,1.08,2.489,1.08h45.201
			c1.223,0,2.224-1,2.224-2.225C388.741,151.048,387.74,150.048,386.517,150.048z"/>
		<path fill="#030000" d="M105.07,149.954h-60.53c-1.272,0-2.3,1.028-2.3,2.298c0,1.258,1.027,2.286,2.3,2.286h60.53
			c1.271,0,2.3-1.028,2.3-2.286C107.371,150.982,106.342,149.954,105.07,149.954z"/>
	</g>
	<path fill="#030000" d="M122.68,173.74l0.822,0.457l0.255,0.495c0.022,0.046,0.054,0.086,0.093,0.118l1.222,1.001
		c0.067,0.07,0.159,0.098,0.246,0.098c0.075,0,0.152-0.02,0.213-0.074l0.322-0.206l0.289-0.186c0.117-0.066,0.18-0.196,0.18-0.332
		v-0.511c0-0.12-0.046-0.22-0.141-0.304c-0.449-0.385-0.843-0.773-1.169-1.168c-0.169-0.196-0.357-0.386-0.555-0.57
		c-0.226-0.208-0.479-0.422-0.74-0.613c-0.067-0.038-0.127-0.06-0.204-0.065c-0.063-0.007-0.126,0.003-0.199,0.03l-0.675,0.305
		c-0.155,0.064-0.241,0.224-0.228,0.393l0,0c0,0,0,0,0,0l0.064,0.816C122.489,173.559,122.572,173.68,122.68,173.74z"/>
	<path fill="#030000" d="M133.306,172.686c-0.048-0.187-0.231-0.317-0.42-0.292l-0.817,0.085c-0.162,0.029-0.298,0.134-0.337,0.291
		l-0.391,1.428c-0.01,0.032-0.025,0.065-0.025,0.098c0,0.339,0.026,0.672,0.056,0.994c0.037,0.417,0.198,0.667,0.367,0.826
		c0.051,0.048,0.117,0.098,0.166,0.13c0.058,0.036,0.139,0.055,0.205,0.055c0.036,0,0.085-0.006,0.121-0.017l0.597-0.184
		c0.077-0.02,0.132-0.055,0.176-0.116c0.04-0.03,0.053-0.07,0.069-0.111c0.009-0.032,0.027-0.048,0.032-0.072l0,0
		c0-0.001,0.001-0.001,0.001-0.001c0.015-0.071,0.018-0.163,0.028-0.235c0.018-0.129,0.044-0.255,0.059-0.391
		c0.01-0.213,0.006-0.433-0.028-0.674c-0.025-0.292,0.059-0.546,0.234-0.75c0.006-0.007,0.007-0.016,0.013-0.022
		c0.011-0.014,0.015-0.031,0.023-0.046c0.025-0.05,0.049-0.085,0.06-0.127c0.016-0.073,0.015-0.134-0.003-0.195L133.306,172.686z"/>
	<path fill="#030000" d="M152.349,184.237c-0.092-0.144-0.258-0.213-0.42-0.185l-0.006,0.001c-0.006,0-0.01-0.003-0.016-0.002
		l-0.423,0.073c-0.329-0.052-0.668-0.092-1.021-0.119c-0.262-0.033-0.502-0.081-0.743-0.154l-0.445-2.264l0.039-0.279l0.154-0.044
		c0.167-0.034,0.282-0.177,0.311-0.346l0.045-0.461l1.653,0.306h0.021h0.391h0.015h0.007c0.03,0,0.072-0.013,0.102-0.02
		c0.016-0.005,0.034-0.005,0.049-0.011c0.04-0.017,0.088-0.042,0.122-0.073c0.002-0.002,0.004-0.003,0.006-0.005
		c0.008-0.007,0.019-0.011,0.026-0.019c0.022-0.041,0.036-0.075,0.049-0.107c0.001-0.001,0.002-0.002,0.002-0.004
		c0.02-0.043,0.03-0.103,0.038-0.15c0-0.001,0-0.002,0-0.004v-0.001c0-0.019,0.011-0.036,0.006-0.054l-0.097-0.611
		c-0.018-0.127-0.102-0.227-0.203-0.288c-0.953-0.512-2.002-0.792-3.136-0.866c-1.034-0.054-2.019-0.247-2.945-0.583
		c-0.118-0.03-0.213-0.04-0.314-0.041c-0.279-0.007-0.472,0.087-0.562,0.19l-0.382,0.369c-0.069,0.068-0.107,0.175-0.107,0.285
		v0.271c0,0.111,0.038,0.203,0.105,0.285c0.402,0.389,0.884,0.658,1.435,0.786c0.398,0.084,0.809,0.165,1.199,0.22
		c0.084,0.423,0.144,0.864,0.167,1.299c0.028,0.549,0.154,1.096,0.361,1.629l-0.054,0.51l-0.783-0.112
		c-0.004-0.003-0.008,0.001-0.011,0.001l-0.011-0.004c-0.057-0.019-0.128-0.013-0.182,0.018l-0.938,0.292
		c-0.193,0.072-0.299,0.272-0.256,0.47l0.121,0.511c0.019,0.096,0.066,0.168,0.132,0.234c0.41,0.3,0.891,0.479,1.427,0.533
		c0.464,0.036,0.921,0.083,1.399,0.151c0.014,0.001,0.031,0.004,0.045,0.004c0.039,0,0.066-0.007,0.091-0.013
		c0.018-0.008,0.035,0.001,0.051-0.012l0.237-0.069l1.229,0.091c0.003,0.001,0.008,0,0.013,0h0.009
		c0.008,0.001,0.017,0.002,0.025,0.002c0.021,0,0.043-0.002,0.078-0.006c0.309-0.066,0.644-0.093,0.99-0.093
		c0.442,0,0.831-0.101,1.169-0.288c0.101-0.048,0.164-0.131,0.203-0.238c0.025-0.109,0.011-0.211-0.054-0.31L152.349,184.237z"/>
	<path fill="#030000" d="M175.54,177.141c-0.028-0.029-0.07-0.053-0.108-0.071c-1.042-0.564-2.16-0.994-3.296-1.304
		c-1.111-0.3-2.207-0.65-3.289-1.044c-0.047-0.018-0.096-0.021-0.16-0.019c-0.048-0.004-0.096,0-0.156,0.015
		c-0.089,0.03-0.204,0.046-0.313,0.046c-0.16,0-0.558,0.052-0.745,0.584c-0.025,0.085-0.028,0.163-0.007,0.25l0.207,0.717
		c0.053,0.147,0.163,0.26,0.312,0.285c0.992,0.18,1.99,0.408,2.973,0.688c0.937,0.257,1.887,0.589,2.796,0.986
		c0.174,0.156,0.29,0.331,0.338,0.533c0.078,0.281,0.136,0.539,0.189,0.802l-0.079,0.843c-0.004,0.048,0,0.097,0.015,0.143
		l0.056,0.213c-0.204,0.895-0.461,1.771-0.777,2.606c-0.321,0.846-0.752,1.633-1.219,2.286l-0.635,0.619
		c-0.064,0.064-0.124,0.095-0.193,0.109c-0.075,0.007-0.139,0.01-0.228-0.003c-0.003-0.001-0.006,0.001-0.01,0.001
		c-0.013-0.002-0.021,0.001-0.034,0c-0.151-0.029-0.304,0.03-0.386,0.155l-0.405,0.534c-0.085,0.131-0.094,0.303-0.021,0.442
		l0.404,0.674c0.047,0.08,0.123,0.14,0.226,0.18c0.122,0.032,0.229,0.048,0.346,0.048l0,0c0.007,0,0.013-0.003,0.02-0.003
		c0.008,0,0.017,0.003,0.025,0.003c0.27,0,0.505-0.105,0.713-0.29c0.123-0.131,0.264-0.21,0.405-0.249
		c0.062-0.019,0.13-0.067,0.174-0.113c1.049-1.122,1.854-2.346,2.381-3.64c0.518-1.287,0.912-2.639,1.184-4.02
		c0.008-0.043,0.008-0.099,0.002-0.141c-0.068-0.464-0.116-0.915-0.116-1.367C176.13,178.06,175.931,177.55,175.54,177.141z"/>
	<path fill="#030000" d="M200.767,178.917c-0.037-0.1-0.122-0.176-0.211-0.221l-0.51-0.206c-0.068-0.022-0.124-0.029-0.182-0.026
		l-0.055,0.003c-0.009,0-0.017-0.004-0.026-0.003l-3.318,0.261l-0.206-0.044c-0.044-0.011-0.092-0.014-0.145-0.008l-0.024,0.002
		c-0.017,0-0.032-0.004-0.049-0.002l-0.443,0.054l-0.621-0.055c-0.018-0.002-0.049,0-0.066,0.001l-0.015-0.001
		c-0.027-0.003-0.058-0.002-0.087,0.002l-2.597,0.373l-0.606-0.178c-0.075-0.017-0.138-0.019-0.198-0.004l-0.004,0.001
		c-0.034,0.001-0.056-0.008-0.076-0.002l-0.322,0.083l-1.276-0.09l-0.021,0.002l-0.06-0.003l-1.679,0.19l-0.168-0.064
		c-0.045-0.019-0.092-0.029-0.152-0.029h-0.863c-0.002,0-0.003,0.001-0.006,0.001h-0.06c-0.47,0-0.827,0.228-1.014,0.655
		c-0.032,0.072-0.04,0.167-0.022,0.244l0.186,0.817c0.038,0.18,0.2,0.311,0.383,0.311c0.01,0,0.019,0,0.028-0.001l0.035-0.002
		c0.006,0,0.01,0.003,0.016,0.003c0.009,0,0.019,0,0.029-0.001l2.563-0.211l1.477,0.091c0.005,0.001,0.01-0.003,0.016-0.003
		l0.05,0.003c0.063,0.003,0.144-0.009,0.2-0.038l0.089-0.039l1.316,0.076c0.007-0.001,0.014-0.002,0.021-0.003l0.044,0.003
		c0.62-0.059,1.233-0.148,1.851-0.243c0.547-0.096,1.14-0.138,1.736-0.143l0.355,0.09c0.06,0.013,0.107,0.016,0.156,0.01
		l0.023-0.003c0.015,0,0.041,0.004,0.057,0.003l0.805-0.102l2.077,0.104c0.009,0,0.016-0.002,0.025-0.002l0.04,0.002
		c0.036,0.001,0.075-0.001,0.115-0.008l0.922-0.206c0.123-0.025,0.228-0.111,0.277-0.211l0.306-0.633
		c0.045-0.099,0.048-0.217,0.008-0.326L200.767,178.917z"/>
	<path fill="#030000" d="M220.705,178.829l-0.632-0.411c-0.068-0.06-0.162-0.07-0.243-0.064c-0.08-0.012-0.148-0.01-0.228,0.018
		l-0.13,0.067c-0.794-0.141-1.572-0.358-2.303-0.666c-0.705-0.297-1.395-0.644-2.056-1.035c0.185-0.935,0.399-1.847,0.652-2.748
		c0.255-0.948,0.622-1.901,1.092-2.812c0.066-0.143,0.049-0.311-0.042-0.437l-0.512-0.622c-0.105-0.125-0.274-0.177-0.426-0.131
		l-0.003,0.001c-0.03,0.001-0.056-0.009-0.086,0l-0.404,0.107c-0.115,0.047-0.219,0.136-0.256,0.265
		c-0.624,1.898-1.191,3.838-1.704,5.741c-0.512,1.907-0.916,3.915-1.175,5.977c-0.088,1.05-0.03,2.093,0.146,3.065
		c0.172,0.969,0.367,1.945,0.577,2.889c0.018,0.09,0.071,0.159,0.131,0.223l0.697,0.596c0.067,0.072,0.164,0.104,0.266,0.104
		c0.015,0,0.03-0.007,0.045-0.008c0.016,0.001,0.029,0.008,0.043,0.008c0.167,0,0.329-0.025,0.486-0.089
		c0.198-0.066,0.363-0.218,0.492-0.438c0.052-0.107,0.061-0.232,0.023-0.333c-0.216-0.6-0.47-1.218-0.734-1.884
		c-0.262-0.623-0.421-1.256-0.474-1.86c-0.067-1.079-0.023-2.12,0.098-3.111c0.112-0.854,0.295-1.693,0.557-2.488
		c0.66,0.154,1.293,0.37,1.914,0.609c0.8,0.321,1.665,0.551,2.644,0.702h0.087h0.598h0.088c0.326,0,0.625-0.089,0.875-0.278
		c0.137-0.106,0.202-0.279,0.144-0.44l-0.085-0.306C220.841,178.959,220.774,178.876,220.705,178.829z"/>
	<path fill="#030000" d="M126.763,179.242c0.022,0.013,0.045,0.017,0.067,0.017h0.001l0,0c0.028,0,0.057-0.02,0.095-0.026
		c0.015-0.003,0.029-0.002,0.04-0.006l0.001,0l0,0l0.089-0.032l0.238-0.074c0.158-0.066,0.255-0.216,0.255-0.373v-0.61
		c0-0.155-0.081-0.297-0.223-0.357c-0.297-0.141-0.599-0.264-0.889-0.352c-0.303-0.103-0.609-0.172-0.915-0.234
		c-0.55-0.09-1.079-0.238-1.574-0.426c-0.042-0.016-0.101-0.024-0.145-0.024c-0.295,0-0.588,0.015-0.907,0.044
		c-0.524,0.05-0.809,0.314-0.955,0.518c-0.041,0.061-0.064,0.147-0.064,0.221v0.49c0,0.187,0.122,0.35,0.318,0.398
		c0.743,0.145,1.505,0.29,2.288,0.427C125.264,178.976,126.014,179.114,126.763,179.242z"/>
	<path fill="#030000" d="M130.458,172.791c0.025-0.037,0.032-0.076,0.032-0.115v0v-0.405c0-0.069-0.033-0.149-0.067-0.206
		c-0.003-0.004-0.008-0.006-0.011-0.01c-0.034-0.051-0.079-0.109-0.15-0.138l-0.412-0.206c-0.063-0.025-0.121-0.039-0.177-0.039
		h-0.511c-0.073,0-0.132,0.015-0.185,0.042c-0.186,0.104-0.333,0.225-0.44,0.379c-0.004,0.006-0.01,0.011-0.015,0.018
		c-0.108,0.162-0.158,0.348-0.158,0.564c0,0.022-0.007,0.045-0.008,0.068c-0.005,0.205-0.022,0.422-0.067,0.63
		c-0.025,0.045-0.025,0.092-0.006,0.151c0,0.002-0.002,0.005,0,0.008l0,0v0.001c0.054,0.333,0.082,0.688,0.082,1.056
		c0,0.226,0.038,0.442,0.118,0.628c0.007,0.022,0.011,0.047,0.021,0.067c0.006,0.013,0.015,0.024,0.021,0.037
		c0.093,0.185,0.211,0.351,0.377,0.49c0.08,0.067,0.162,0.097,0.26,0.097c0.026,0,0.053-0.003,0.081-0.009l0.936-0.22
		c0.138-0.028,0.236-0.118,0.277-0.247c0.028-0.039,0.035-0.093,0.035-0.136c0-0.209-0.007-0.402-0.032-0.587
		c-0.007-0.128-0.014-0.255-0.026-0.358c-0.019-0.168-0.059-0.333-0.109-0.504c-0.042-0.101-0.07-0.203-0.11-0.292l0.168-0.505
		L130.458,172.791z"/>
	<path fill="#030000" d="M132.206,178.962l-0.405-0.098c-0.095-0.024-0.208-0.007-0.291,0.059l-0.512,0.314
		c-0.051,0.038-0.084,0.068-0.111,0.103l-0.167,0.218l-2.774,1.804c-0.04,0.018-0.063,0.039-0.085,0.063
		c-0.163,0.179-0.337,0.34-0.509,0.507c-0.109,0.106-0.199,0.223-0.312,0.31c-0.274,0.259-0.572,0.487-0.879,0.694
		c-0.671,0.47-1.261,1.068-1.764,1.765c-0.034,0.028-0.049,0.059-0.062,0.091c-0.025,0.086-0.03,0.144-0.04,0.216
		c-0.056,0.37,0.095,0.587,0.204,0.695c0.103,0.075,0.196,0.184,0.312,0.298c0.069,0.092,0.182,0.137,0.3,0.137h0.532l0,0
		c0.165,0,0.313-0.093,0.368-0.247c0.096-0.242,0.222-0.462,0.408-0.675c0.125-0.17,0.282-0.335,0.464-0.494
		c0.141-0.122,0.264-0.22,0.394-0.335c0.183-0.162,0.354-0.316,0.513-0.464c0.104-0.097,0.231-0.211,0.336-0.314l4.234-3.317
		c0.087-0.083,0.153-0.188,0.153-0.314v0v-0.632C132.515,179.162,132.384,179,132.206,178.962z"/>
	<path fill="#030000" d="M167.909,172.29c0.812,0.131,1.55,0.464,2.208,0.989c0.747,0.612,1.565,1.028,2.421,1.268
		c0.031,0.008,0.077,0.013,0.109,0.013c0.007,0,0.013-0.002,0.021-0.003c0.008,0,0.015,0.003,0.022,0.003
		c0.036,0,0.073-0.005,0.117-0.016l0.392-0.121c0.112-0.029,0.194-0.112,0.241-0.205c0.055-0.106,0.06-0.225,0.021-0.322
		l-0.283-0.695c-0.036-0.101-0.117-0.172-0.204-0.225c-0.733-0.313-1.395-0.731-1.972-1.22c-0.641-0.531-1.354-0.984-2.129-1.337
		c-0.048-0.021-0.101-0.033-0.153-0.033c-0.024,0-0.034,0.002-0.045,0.003c-0.004,0-0.008-0.003-0.012-0.003
		c-0.247,0-0.495,0.042-0.704,0.136c-0.188,0.07-0.452,0.242-0.588,0.637c-0.045,0.084-0.045,0.191,0,0.275l0.228,0.612
		C167.644,172.182,167.766,172.27,167.909,172.29z"/>
	<path fill="#030000" d="M241.095,181.321c-0.449-0.264-0.887-0.6-1.273-0.999c-0.104-0.108-0.25-0.145-0.377-0.114l-0.763,0.187
		c-0.044,0.011-0.087,0.038-0.135,0.069c-0.106,0.075-0.183,0.218-0.167,0.368l0.101,0.814l-0.501,1.416
		c-0.512-0.321-0.993-0.712-1.433-1.178c-0.45-0.492-0.956-0.968-1.493-1.405c0.081-0.196,0.179-0.4,0.269-0.583
		c0.12-0.215,0.278-0.385,0.482-0.518c0.036-0.023,0.068-0.052,0.107-0.086l0.682-0.894c0.276-0.251,0.576-0.478,0.885-0.698
		c0.006-0.004,0.014-0.007,0.02-0.012c0.303-0.201,0.614-0.383,0.931-0.543c0.302-0.159,0.627-0.301,0.958-0.415
		c0.01-0.005,0.021-0.01,0.032-0.014c0.344-0.129,0.702-0.24,1.053-0.32c0.046-0.011,0.088-0.046,0.127-0.075
		c0.048-0.025,0.079-0.055,0.104-0.09l0.245-0.388c0.04-0.04,0.045-0.086,0.054-0.131c0.005-0.036,0.02-0.054,0.021-0.077
		c0.001-0.068-0.017-0.151-0.052-0.211l-0.311-0.509l-0.245-0.387c-0.019-0.043-0.04-0.07-0.066-0.093
		c-0.792-0.724-1.666-1.212-2.6-1.439c-0.901-0.229-1.854-0.397-2.861-0.503c-0.044-0.015-0.077-0.013-0.106,0.004
		c-0.002,0-0.003,0-0.004,0l-0.072,0.012l-0.433,0.06l-1.452-0.078c-0.025-0.01-0.05,0-0.077,0.007l-0.059,0.01l-0.427,0.059
		l-0.414-0.059l-0.073-0.01l0,0c-0.069-0.024-0.154-0.002-0.217,0.027l-1.658,0.729c-0.071,0.031-0.144,0.099-0.183,0.166
		l-0.729,1.285c-0.033,0.055-0.063,0.117-0.063,0.195c0,0.26,0.028,0.528,0.055,0.779c0.021,0.217,0.081,0.397,0.169,0.566
		c0.04,0.082,0.079,0.181,0.146,0.25c0.476,0.753,1.063,1.477,1.719,2.166c0.579,0.622,1.197,1.238,1.817,1.86
		c-0.16,0.528-0.348,1.046-0.528,1.555c-0.097,0.302-0.201,0.61-0.281,0.923c-0.064,0.195-0.104,0.394-0.146,0.591
		c-0.025,0.119-0.068,0.235-0.09,0.342c-0.004,0.024-0.007,0.049-0.007,0.087c0,0.127,0.008,0.263,0.024,0.398
		c0.01,0.089,0.043,0.162,0.06,0.236c0.01,0.058,0.016,0.104,0.029,0.147c0.027,0.111,0.063,0.216,0.113,0.31
		c0.009,0.02,0.014,0.041,0.022,0.073c0.048,0.111,0.106,0.234,0.185,0.353c0.231,0.382,0.442,0.781,0.639,1.202
		c0.023,0.051,0.058,0.096,0.101,0.146c0.28,0.221,0.557,0.386,0.846,0.476c0.264,0.095,0.543,0.17,0.868,0.25
		c0.04,0.007,0.066,0.01,0.094,0.01l0,0c0.017,0,0.035-0.001,0.052-0.004c0.252-0.032,0.486-0.101,0.716-0.169
		c0.032-0.005,0.051-0.006,0.069-0.013c0.248-0.092,0.5-0.19,0.732-0.323c0.444-0.233,0.866-0.489,1.298-0.737
		c0.035-0.034,0.067-0.061,0.094-0.093l0.738-0.876l1.843,0.823c0.047,0.021,0.099,0.032,0.162,0.032h0.542h0.001
		c0.005,0,0.011-0.001,0.014,0c0.215,0,0.393-0.177,0.393-0.393c0-0.053-0.021-0.084-0.032-0.119c-0.001-0.002,0-0.004-0.001-0.005
		l-0.018-0.068c-0.006-0.011-0.004-0.026-0.011-0.037l-0.089-0.246l-0.069-0.243c0-0.001-0.001-0.001-0.002-0.003
		c-0.024-0.078-0.091-0.157-0.158-0.202c-0.002-0.001-0.002-0.003-0.003-0.003l-1.554-1.011l0.175-0.389l0.224-0.507l0.188,0.208
		c0.038,0.042,0.091,0.089,0.142,0.112l0.987,0.451c0.087,0.054,0.199,0.06,0.305,0.026l0.749-0.277
		c0.159-0.052,0.27-0.204,0.27-0.371v-0.355c0-0.082-0.02-0.149-0.07-0.222C242.101,182.061,241.658,181.636,241.095,181.321z
		 M232.024,177.29c-0.539-0.598-0.994-1.212-1.354-1.857l0.273-0.701c0.084-0.091,0.156-0.147,0.243-0.198
		c0.082-0.07,0.182-0.109,0.271-0.135c0.027-0.005,0.049-0.018,0.069-0.022c0.282-0.069,0.578-0.126,0.875-0.188l1.871,0.093l0,0
		c0.045,0.002,0.097-0.002,0.138-0.014l0.152-0.041l0.153-0.042c0.74,0.005,1.481,0.077,2.219,0.229
		c0.214,0.042,0.417,0.127,0.62,0.201c0.332,0.133,0.651,0.292,0.947,0.506l-0.814,0.343c-0.833,0.458-1.587,1.049-2.256,1.785
		c-0.283,0.292-0.543,0.604-0.812,0.918c-0.021,0.022-0.041,0.045-0.061,0.082c-0.109,0.115-0.208,0.247-0.304,0.377
		c-0.174,0.212-0.351,0.424-0.518,0.655l-0.023-0.011c-0.236-0.288-0.467-0.575-0.701-0.848
		C232.688,178.032,232.359,177.658,232.024,177.29z M236.642,184.846l-0.884,0.659l-0.754,0.286l-0.831-0.231
		c-0.141-0.123-0.258-0.277-0.348-0.468c-0.1-0.248-0.216-0.495-0.334-0.712c0-0.02,0.004-0.039,0.005-0.073
		c0.022-0.454,0.088-0.908,0.219-1.342c0.091-0.337,0.215-0.674,0.356-0.994l1.419,1.148l1.435,1.162L236.642,184.846z"/>
	<path fill="#030000" d="M256.161,180.459c0.004,0,0.007,0,0.011,0c0.23,0,0.406-0.177,0.406-0.406c0-0.053-0.01-0.103-0.031-0.162
		c-0.035-0.156-0.079-0.292-0.117-0.439c-0.021-0.083-0.03-0.156-0.054-0.237c-0.09-0.231-0.194-0.455-0.322-0.681
		c-0.231-0.357-0.393-0.765-0.487-1.226c-0.025-0.129-0.119-0.226-0.229-0.285l-0.406-0.167c-0.111-0.042-0.223-0.038-0.332,0.011
		l-0.542,0.277c-0.137,0.062-0.216,0.202-0.216,0.353c0,0.289,0.069,0.549,0.184,0.814c0.034,0.086,0.057,0.177,0.102,0.254
		c0.117,0.201,0.144,0.425,0.095,0.712c-0.007,0.043-0.007,0.087,0,0.13c0.011,0.076,0.043,0.131,0.084,0.192
		c0.027,0.018,0.037,0.036,0.053,0.049c0.003,0.003,0.007,0.004,0.01,0.006c0.029,0.024,0.063,0.045,0.101,0.059l0.222,0.084
		c0.021,0.089,0.076,0.181,0.168,0.232l0.542,0.356c0.06,0.052,0.144,0.073,0.214,0.073h0.542
		C256.159,180.46,256.16,180.459,256.161,180.459z"/>
	<path fill="#030000" d="M271.845,186.417c-0.064-0.125-0.198-0.193-0.34-0.193c-0.328,0-0.601,0.066-0.861,0.179
		c-0.092,0.034-0.182,0.057-0.268,0.102c-0.186,0.124-0.396,0.219-0.625,0.274c-0.458-0.06-0.888-0.141-1.283-0.212
		c-0.345-0.076-0.674-0.269-0.983-0.591c-0.221-0.218-0.434-0.461-0.638-0.733c-0.155-0.197-0.264-0.396-0.313-0.606l0.347-0.24
		c0.028-0.018,0.054-0.04,0.077-0.079l0.542-0.6c0.083-0.091,0.116-0.194,0.104-0.311l-0.077-0.749
		c-0.024-0.117-0.08-0.224-0.164-0.285c-0.085-0.05-0.172-0.089-0.27-0.068c0.016-0.023,0.03-0.037,0.044-0.051
		c0.389-0.393,0.579-0.861,0.579-1.382c0-0.307,0.03-0.587,0.089-0.861l0.542-0.177l0.428,0.059c0.357,0.091,0.692,0.008,0.973-0.21
		c0.146-0.122,0.28-0.202,0.424-0.253c0.002-0.001,0.003-0.002,0.004-0.002c0.001-0.001,0.001-0.001,0.001-0.001
		c0.011-0.004,0.018-0.025,0.028-0.03c0.168-0.077,0.268-0.262,0.221-0.446l-0.167-0.633c-0.063-0.193-0.247-0.325-0.449-0.294
		l-1.061,0.162l-0.668-0.047c-0.034-0.155-0.121-0.266-0.18-0.325l-0.305-0.305c-0.047-0.047-0.118-0.08-0.18-0.095
		c-0.023-0.006-0.049,0.002-0.088,0c-0.039-0.001-0.079-0.009-0.119,0.002l-0.297,0.077c-0.097,0.023-0.168,0.09-0.216,0.162
		l-0.434,0.645c-0.306,0.004-0.61,0.017-0.902,0.039c-0.081,0.005-0.146,0.001-0.227-0.004c-0.097-0.008-0.206-0.023-0.294-0.055
		l0.335-0.279c0.114-0.088,0.173-0.246,0.129-0.396c-0.001-0.003,0.001-0.007,0.001-0.011c0.08,0.03,0.155,0.031,0.242,0.017
		c0.025-0.005,0.051-0.005,0.075-0.016l0.84-0.354c0.171-0.081,0.274-0.263,0.243-0.445l-0.285-1.48l0.135-0.701l0.503-0.167
		c0.308,0.048,0.594,0.132,0.88,0.232c0.372,0.127,0.779,0.204,1.18,0.204c0.053,0,0.121-0.013,0.17-0.049l0.748-0.355
		c0.2-0.082,0.281-0.299,0.212-0.502l-0.062-0.125l-0.049-0.139c-0.03-0.093-0.101-0.159-0.174-0.201
		c-0.609-0.341-1.275-0.513-1.981-0.513c-0.485,0-0.918-0.099-1.341-0.288l0.064-0.322c0.005-0.033,0.007-0.066,0.003-0.113
		l-0.11-1.026c-0.012-0.116-0.075-0.228-0.186-0.288l-0.234-0.147l-0.043-0.033h-0.001l0,0c-0.007-0.004-0.015-0.005-0.021-0.009
		c-0.03-0.017-0.06-0.031-0.092-0.038c-0.052-0.009-0.092-0.009-0.131-0.004c-0.003,0-0.005,0-0.008,0c-0.001,0-0.001,0-0.001,0
		c-0.623,0.089-0.976,0.474-0.976,1.06c0,0.22-0.03,0.409-0.104,0.584l-2.242-0.646c-0.032-0.009-0.066-0.014-0.1-0.014h-0.912
		c-0.078,0-0.162,0.032-0.223,0.078c-0.03,0.036-0.077,0.056-0.1,0.087l-0.264,0.374c-0.074,0.096-0.095,0.198-0.077,0.31
		l0.052,0.212l0.039,0.232c0.022,0.122,0.117,0.237,0.233,0.283c0.132,0.062,0.277,0.091,0.415,0.132
		c0.541,0.181,1.106,0.317,1.723,0.36c0.562,0.04,1.076,0.194,1.532,0.459l-0.268,2.032c-0.009,0.073,0.004,0.161,0.051,0.226
		l0.067,0.144c-0.039-0.007-0.095-0.008-0.134-0.002l-0.73,0.11c-0.116,0.015-0.208,0.072-0.279,0.173
		c-0.114,0.184-0.234,0.393-0.344,0.624c-0.041,0.104-0.09,0.206-0.161,0.292l-0.901-0.407c-0.052-0.024-0.122-0.035-0.178-0.033
		c-0.015,0.001-0.027,0.01-0.041,0.012c-0.056,0.007-0.097,0.013-0.135,0.034l-0.001,0l-0.037,0.021l-0.468,0.252l-0.046-0.081
		c-0.05-0.103-0.121-0.172-0.223-0.209l-0.244-0.11c-0.103-0.037-0.203-0.039-0.307,0l-0.465,0.188
		c-0.101,0.042-0.193,0.141-0.225,0.26c-0.017,0.054-0.044,0.108-0.064,0.177c-0.118,0.319-0.272,0.623-0.478,0.931
		c-0.011,0.016-0.021,0.047-0.046,0.065c-0.25,0.374-0.495,0.766-0.758,1.212c-0.033,0.056-0.05,0.133-0.05,0.198v0.354
		c0,0.215,0.177,0.392,0.393,0.392c0.156,0,0.297-0.009,0.413-0.028c0.011-0.001,0.019-0.003,0.027-0.004
		c0.109-0.019,0.223-0.045,0.312-0.082c0.169-0.076,0.335-0.165,0.511-0.279c0.023-0.009,0.038-0.013,0.051-0.022
		c0.069-0.045,0.126-0.125,0.158-0.203c0.099-0.328,0.265-0.629,0.495-0.897c0.077-0.093,0.13-0.212,0.21-0.312
		c0.063-0.111,0.153-0.216,0.204-0.319c0.006,0.002,0.01,0.004,0.016,0.006l1.621,0.698c0.08,0.186,0.104,0.389,0.073,0.629
		c-0.006,0.042-0.011,0.088-0.013,0.134c-0.014,0.303,0.073,0.669,0.44,0.995c0.002,0.002,0.004,0.004,0.006,0.005
		c0.009,0.008,0.021,0.018,0.032,0.038c0.049,0.042,0.114,0.083,0.174,0.122c0.06,0.052,0.143,0.073,0.214,0.073h0.532
		c0.237,0,0.562-0.09,0.808-0.478c0.103-0.152,0.088-0.346-0.035-0.482l-0.398-0.456l0.057-0.243h1.201l-0.168,0.479
		c-0.013,0.039-0.021,0.08-0.021,0.121v0.001v0.891c0,0.317,0.112,0.584,0.315,0.802c-0.205-0.034-0.425-0.068-0.635-0.105
		c-0.3-0.05-0.561-0.165-0.82-0.304c-0.077-0.042-0.173-0.076-0.245-0.14c-0.057-0.029-0.104-0.049-0.154-0.058
		c-0.06-0.009-0.114-0.009-0.164,0.002l-0.819,0.187c-0.128,0.026-0.222,0.118-0.282,0.225l-0.187,0.446
		c-0.02,0.045-0.03,0.108-0.03,0.158v0v0.206c0,0.156,0.097,0.299,0.226,0.359c0.274,0.127,0.559,0.232,0.834,0.312
		c0.13,0.036,0.26,0.089,0.393,0.119c0.11,0.027,0.229,0.046,0.35,0.069c0.069,0.014,0.152,0.031,0.219,0.052l-0.618,0.907
		l-0.383,0.267l-1.207,0.869c-0.048,0.036-0.103,0.083-0.129,0.136l-0.172,0.35l-0.029,0.07c-0.028,0.072-0.032,0.146-0.041,0.208
		c-0.005,0.033-0.021,0.085-0.021,0.115c-0.002,0.048,0.011,0.085,0.018,0.141c0.005,0.032,0.005,0.071,0.015,0.098
		c0.01,0.029,0.025,0.047,0.038,0.085c0.044,0.083,0.109,0.163,0.148,0.197c0.079,0.066,0.176,0.165,0.274,0.266
		c0.087,0.108,0.225,0.15,0.363,0.133l0.542-0.078c0.033-0.005,0.062-0.019,0.09-0.032c0.017-0.013,0.037-0.014,0.046-0.025
		c0.006-0.003,0.01-0.01,0.017-0.014c0.102-0.065,0.183-0.19,0.183-0.331c0-0.037,0.008-0.072,0.021-0.107
		c0.013-0.051,0.033-0.092,0.072-0.139c0.115-0.138,0.225-0.265,0.317-0.368l0.833-0.598l0.329,0.508
		c0.021,0.032,0.049,0.074,0.09,0.098l0.736,0.588l0.148,0.176l0.149,0.178c0.03,0.05,0.066,0.081,0.108,0.103
		c0.384,0.199,0.76,0.379,1.129,0.538c0.389,0.166,0.824,0.286,1.282,0.341c0.017,0.002,0.032,0.003,0.048,0.003
		c0.377,0,0.74-0.054,1.1-0.146c0.154-0.034,0.313-0.061,0.464-0.11c0.261-0.096,0.498-0.22,0.729-0.354
		c0.233-0.149,0.445-0.324,0.644-0.536c0.131-0.118,0.154-0.327,0.07-0.47L271.845,186.417z"/>
	<path fill="#030000" d="M260.247,182.623l-1.351-0.599l-0.435-0.593l-0.387-0.4c0.211-0.838,0.404-1.692,0.572-2.542
		c0.171-0.86,0.498-1.674,0.975-2.405c0.038-0.073,0.059-0.141,0.059-0.224v-0.451v0c0-0.13-0.056-0.252-0.162-0.321l-0.182-0.138
		l-0.302-0.217c-0.08-0.073-0.197-0.097-0.296-0.08l-0.239,0.053l-0.226,0.038c-0.106,0.016-0.177,0.075-0.243,0.162
		c-0.024,0.029-0.051,0.054-0.064,0.088c-0.479,1.349-0.862,2.759-1.149,4.168c-0.162,0.804-0.293,1.621-0.416,2.427
		c-0.099,0.609-0.18,1.213-0.26,1.815c-0.008,0.061,0,0.137,0.024,0.193l0.446,1.1c0.041,0.103,0.142,0.195,0.262,0.227
		c0.035,0.01,0.07,0.015,0.104,0.015c0.087,0,0.159-0.022,0.235-0.065v-0.001h0.001l0.07-0.062l0.194-0.125
		c0.044-0.044,0.094-0.084,0.122-0.131l0.258-0.466l0.115-0.186c0.05-0.101,0.076-0.204,0.034-0.313l-0.009-0.032l0.657,0.473
		c0.076,0.044,0.151,0.068,0.227,0.068c0.19,0,0.385,0.016,0.599,0.047c0.005,0,0.008-0.002,0.013,0
		c0.194,0.037,0.37,0.01,0.526-0.063c0.073-0.027,0.125-0.066,0.176-0.121c0.012-0.009,0.025-0.015,0.038-0.025
		c0.026-0.011,0.034-0.026,0.046-0.038c0.046-0.047,0.092-0.109,0.144-0.169c0.038-0.059,0.058-0.142,0.058-0.21v-0.001v-0.521
		C260.481,182.839,260.383,182.695,260.247,182.623z"/>
	<path fill="#030000" d="M295.661,187.329c-0.046-0.119-0.166-0.22-0.306-0.241c-1.091-0.18-2.173-0.404-3.193-0.637
		c-0.973-0.223-1.894-0.564-2.755-1.017l-0.478-0.732l0.084-0.175l1.396,0.205c0.004,0,0.009,0,0.012,0l0.008,0.001
		c0.304,0,0.62-0.011,0.93-0.03c0.38-0.023,0.711-0.119,0.988-0.271c0.16-0.078,0.25-0.255,0.212-0.43l-0.107-0.466
		c-0.041-0.201-0.253-0.337-0.453-0.308l-0.008,0.001c-0.003,0-0.007-0.001-0.013,0l-0.482,0.067l-2.445-0.314l-0.167-0.225
		l0.069-1.609l1.442,0.258l0.519,0.564c0.075,0.081,0.192,0.122,0.319,0.116c0.003,0,0.005-0.002,0.007-0.003
		c0.005,0,0.009,0.003,0.014,0.003c0.109-0.008,0.224-0.065,0.3-0.168l0.581-0.839c0.051-0.073,0.086-0.176,0.063-0.265
		l-0.392-3.324l0.109-1.381c0.003-0.045-0.001-0.103-0.014-0.145l-0.11-0.354c-0.032-0.125-0.128-0.213-0.236-0.267l-1.559-0.572
		l-0.181-0.683l0.015-0.031c0.063-0.112,0.065-0.241,0.01-0.34l-0.034-0.083l0.138-0.721l0.309-0.208
		c0.251,0.003,0.509,0.014,0.749,0.035c0.231,0.019,0.423,0.107,0.598,0.246c0.064,0.061,0.161,0.091,0.245,0.091h0.015
		c0.002,0,0.004,0,0.006,0h0.482c0.145,0,0.279-0.07,0.343-0.196l0.169-0.298c0.055-0.072,0.071-0.169,0.058-0.251l-0.092-0.556
		c-0.024-0.172-0.165-0.298-0.336-0.332l-2.41-0.341c-0.023-0.091-0.039-0.205-0.051-0.328c-0.053-0.355-0.219-0.634-0.484-0.824
		c-0.061-0.046-0.115-0.063-0.171-0.072c-0.063-0.01-0.113-0.009-0.163,0.001l-0.484,0.11c-0.133,0.026-0.244,0.111-0.291,0.239
		l-0.24,0.641l-1.313-0.137c-0.028-0.083-0.041-0.194-0.041-0.32c0-0.397-0.177-0.745-0.513-1.007
		c-0.077-0.048-0.155-0.075-0.248-0.075h-0.019c-0.001,0-0.001-0.001-0.002-0.001h-0.542c-0.107,0-0.195,0.035-0.276,0.098
		c-0.291,0.284-0.405,0.651-0.319,1.079c0.002,0.008,0.003,0.014,0.005,0.021l-1.183-0.446c-0.063-0.022-0.126-0.028-0.203-0.018
		l-0.007,0.001c-0.004,0.001-0.007-0.002-0.011-0.001l-0.653,0.11c-0.088,0.015-0.183,0.061-0.239,0.144l-0.354,0.432
		c-0.079,0.095-0.107,0.2-0.091,0.314l0.073,0.393c0.023,0.159,0.134,0.29,0.288,0.325l2.424,0.597
		c0.105,0.212,0.183,0.452,0.204,0.695c0.018,0.199,0.067,0.392,0.155,0.578c-0.078-0.054-0.158-0.088-0.257-0.088
		c-0.004,0-0.007,0.001-0.012,0.001c-0.002,0-0.005-0.001-0.007-0.001c-0.24,0-0.465,0.044-0.641,0.144
		c-0.185,0.091-0.334,0.241-0.434,0.431c-0.051,0.094-0.072,0.187-0.037,0.29l0.082,0.369l-0.2,1.782
		c-0.005,0.056,0.001,0.112,0.019,0.178l0.066,0.199c-0.058,0.466-0.087,0.973-0.087,1.511c0,0.521-0.054,1.011-0.174,1.441
		c-0.013,0.063-0.015,0.113-0.008,0.163l0.188,1.228c0.014,0.097,0.067,0.197,0.161,0.254l0.302,0.211
		c-0.104,0.007-0.206,0.031-0.299,0.046c-0.324,0.045-0.563,0.244-0.686,0.559c-0.03,0.08-0.033,0.18-0.006,0.26l0.188,0.575
		c0.038,0.129,0.146,0.219,0.277,0.25c0.687,0.185,1.364,0.339,2.001,0.461c0.512,0.1,1.016,0.26,1.503,0.478l-0.013,0.069
		l-3.315,1.692l-0.386,0.001c0,0-0.025-0.013-0.063-0.077c-0.066-0.122-0.199-0.188-0.339-0.188c-0.005,0-0.008,0.001-0.013,0.001
		c-0.002,0-0.005-0.001-0.007-0.001c-0.344,0-0.636,0.085-0.859,0.27c-0.159,0.133-0.305,0.259-0.436,0.377
		c-0.078,0.07-0.137,0.183-0.137,0.287v0.484c0,0.136,0.075,0.263,0.175,0.331l0.388,0.259c0.068,0.044,0.164,0.063,0.24,0.061
		c0.004,0,0.009-0.001,0.013-0.002c0.003,0,0.004,0.002,0.006,0.002c0.911-0.053,1.772-0.257,2.562-0.568
		c0.73-0.295,1.44-0.635,2.127-1.013l0.188,1.105l-0.07,0.597c-0.006,0.049-0.003,0.098,0.01,0.159l0.375,1.361
		c0.044,0.172,0.201,0.281,0.378,0.281h0.02h0.335h0.019c0.121,0,0.236-0.048,0.307-0.132l0.465-0.554
		c0.079-0.094,0.119-0.235,0.071-0.366l-0.427-1.486l0.006-0.035c0.787,0.289,1.592,0.507,2.401,0.662
		c0.955,0.18,1.909,0.36,2.892,0.542c0.004,0,0.009-0.002,0.014-0.001c0.002,0,0.003,0,0.005,0.001
		c0.076,0.01,0.138,0.006,0.198-0.014l1.119-0.373c0.106-0.032,0.185-0.115,0.227-0.205c0.057-0.104,0.06-0.221,0.009-0.315
		L295.661,187.329z M289.328,176.265c0.189,0.037,0.344,0.121,0.504,0.222l0.248,1.132l-0.788-0.362l-0.091-0.157l0.021-0.095
		c0.013-0.053,0.014-0.108,0.002-0.176c-0.033-0.175-0.06-0.335-0.06-0.487c0-0.038-0.003-0.075-0.009-0.112
		C289.223,176.242,289.276,176.253,289.328,176.265z M289.146,179.089c0.063,0.034,0.119,0.052,0.176,0.059
		c0.045,0.006,0.078,0,0.111-0.002c0.013-0.002,0.028,0.001,0.042-0.001h0.001c0.005-0.001,0.011,0,0.017-0.001l0.742-0.187
		c0.04-0.01,0.075-0.03,0.108-0.065l0.029,0.807c-0.212-0.019-0.409-0.048-0.602-0.093c-0.247-0.072-0.493-0.157-0.709-0.281
		c-0.005-0.104-0.014-0.204-0.023-0.326L289.146,179.089z M287.246,182.289l0.051,0.146l-0.027,0.1
		c-0.392-0.052-0.759-0.144-1.096-0.262c-0.424-0.126-0.846-0.279-1.292-0.442l0.154-0.068c0.116-0.039,0.195-0.123,0.229-0.24
		l0.251-0.737c0.181,0.028,0.363,0.044,0.549,0.047c0.189,0.003,0.38-0.007,0.587-0.032c0.006,0,0.012,0,0.02,0
		c0.113-0.015,0.234-0.017,0.352-0.006c0.128,0.014,0.239,0.042,0.357,0.087l-0.156,1.216
		C287.216,182.171,287.224,182.232,287.246,182.289z M287.403,179.047c-0.01,0.006-0.02,0.013-0.029,0.02h-0.421
		c-0.131,0-0.262-0.033-0.384-0.1c-0.058-0.036-0.139-0.069-0.206-0.069c-0.005,0-0.01,0.002-0.016,0.002
		c-0.001,0-0.002-0.001-0.004-0.001c-0.032,0-0.077,0.004-0.108,0.025l-0.534,0.132l-0.192-0.032l-0.093-0.158l0.142-0.551h1.011
		c0.316,0,0.599,0.058,0.846,0.19c0.009,0.147,0.024,0.296,0.047,0.446C287.47,178.988,287.474,179.004,287.403,179.047z
		 M287.404,176.734l-1.673-0.256l0.162-0.7l0.192-0.127l1.537,0.244L287.404,176.734z M288.026,174.139
		c-0.146-0.012-0.315-0.008-0.464-0.02c0.021-0.048,0.032-0.099,0.032-0.165v-0.561c0-0.215-0.177-0.393-0.392-0.393l-0.354-0.317
		v-0.229c0.112,0.012,0.235,0.018,0.357,0.022c0.124,0.014,0.231,0.017,0.352,0.023c0.224,0.009,0.453,0.032,0.663,0.112
		L288.026,174.139z"/>
	<path fill="#030000" d="M320.623,177.764c-0.069-0.091-0.183-0.136-0.286-0.136h-0.053h-0.244H320c-0.124,0-0.242,0.05-0.312,0.149
		l-0.316,0.384l-1.855-0.067l-0.014,0.002l-0.024-0.001l-0.61,0.065l-0.202-0.054c-0.054-0.017-0.125-0.019-0.179-0.009l-0.01,0.002
		c-0.009,0.001-0.019-0.003-0.029-0.001l-0.35,0.06l-0.432-0.114c-0.069-0.226-0.138-0.44-0.179-0.651
		c-0.057-0.304-0.176-0.591-0.341-0.854l0.035-0.273l0.42-0.222c0.398-0.299,0.648-0.655,0.718-1.075l0.167-0.912
		c0.08-0.452,0.047-0.838-0.112-1.163c-0.12-0.274-0.302-0.535-0.543-0.832c-0.336-0.335-0.708-0.613-1.106-0.81
		c-0.381-0.188-0.8-0.353-1.263-0.49c-0.034-0.01-0.069-0.015-0.117-0.015h-0.532c-0.001,0-0.002,0.001-0.003,0.001h-0.036
		c-0.296,0-0.55,0.111-0.746,0.307c-0.083,0.08-0.121,0.175-0.121,0.286v0.542c0,0.126,0.052,0.233,0.155,0.316l0.464,0.354
		c0.055,0.041,0.118,0.061,0.198,0.068c0.052,0.011,0.106,0.012,0.173-0.001l0.341-0.072l0.854,0.225l0.83,0.986
		c-0.013,0.2-0.071,0.391-0.144,0.594c-0.081,0.171-0.176,0.336-0.31,0.479l-0.748-0.129c-0.012-0.001-0.028,0.004-0.035,0.003
		l-0.018-0.003c-0.078-0.014-0.173-0.002-0.244,0.032l-0.542,0.265c-0.184,0.098-0.272,0.309-0.205,0.499
		c0.191,0.463,0.425,0.926,0.721,1.362c0.243,0.393,0.45,0.771,0.616,1.138v0.018l-4.963-0.688h-0.542c-0.001,0-0.002,0-0.002,0
		h-0.038c-0.126,0-0.246,0.066-0.315,0.155l-0.297,0.374c-0.092,0.116-0.113,0.269-0.049,0.403l0.187,0.451
		c0.047,0.129,0.164,0.227,0.296,0.249c1.042,0.182,2.126,0.323,3.246,0.407c1.008,0.09,1.996,0.203,2.936,0.362l0.379,1.106
		c0,0.824-0.018,1.63-0.047,2.386c-0.029,0.702-0.183,1.373-0.457,1.996c-0.313,0.329-0.567,0.7-0.761,1.107
		c-0.14,0.293-0.34,0.521-0.625,0.72l-0.422-0.058c-0.087-0.095-0.136-0.215-0.164-0.347c-0.079-0.32-0.243-0.597-0.485-0.853
		c-0.103-0.089-0.247-0.141-0.366-0.099l-0.004,0.002c-0.012,0.002-0.038-0.008-0.05-0.002l-0.45,0.097
		c-0.117,0.023-0.219,0.105-0.269,0.198c-0.05,0.108-0.057,0.232-0.019,0.331l0.464,1.194c0.017,0.056,0.04,0.094,0.072,0.128
		l0.651,0.71c0.068,0.09,0.18,0.133,0.296,0.133h0.039h0.897h0.052c0.427,0,0.815-0.156,1.155-0.462
		c0.033-0.018,0.051-0.038,0.066-0.059c0.544-0.772,1.002-1.574,1.345-2.414c0.349-0.853,0.559-1.779,0.625-2.73
		c0.002-0.042,0.001-0.07-0.004-0.098l-0.082-0.556l0.072-0.274c0.015-0.051,0.024-0.117,0.011-0.169l-0.254-1.845l0.028-0.167
		l2.623,0.081c0.003,0,0.005,0,0.009,0l0.03,0c0.027,0,0.056-0.001,0.085-0.008l0.329-0.077l0.927,0.083
		c0.005,0.001,0.01-0.002,0.016-0.001l0.022,0.001c0.05,0.006,0.113-0.001,0.159-0.018l0.245-0.09
		c0.106-0.03,0.183-0.11,0.239-0.196l0.198-0.396c0.123-0.289,0.086-0.592-0.068-0.861
		C320.874,178.052,320.752,177.906,320.623,177.764z"/>
</g>
</svg>
