<?xml version="1.0" encoding="utf-8"?>
<!-- Generator: Adobe Illustrator 15.0.0, SVG Export Plug-In . SVG Version: 6.00 Build 0)  -->
<!DOCTYPE svg PUBLIC "-//W3C//DTD SVG 1.1//EN" "http://www.w3.org/Graphics/SVG/1.1/DTD/svg11.dtd">
<svg version="1.1" id="レイヤー_1" xmlns="http://www.w3.org/2000/svg" xmlns:xlink="http://www.w3.org/1999/xlink" x="0px"
	 y="0px" width="380.981px" height="162.723px" viewBox="0 0 380.981 162.723" enable-background="new 0 0 380.981 162.723"
	 xml:space="preserve">
<g>
	<path fill="#030000" d="M65.915,83.949c-2.102-0.742-5.706-1.383-11.018-1.96c-3.828-0.43-6.43-1.033-7.739-1.796
		c-1.778-1.016-2.642-2.206-2.642-3.636c0-1.267,0.732-2.417,2.241-3.517c2.14-1.563,5.232-2.355,9.191-2.355
		c3.792,0,6.863,0.784,9.119,2.324c1.438,1.001,2.212,2.221,2.361,3.71c0.077,0.973,0.374,1.714,0.885,2.205
		c0.52,0.497,1.164,0.748,1.916,0.748c0.821,0,1.536-0.304,2.067-0.879c0.526-0.571,0.782-1.404,0.782-2.548v-6.407
		c0-1.173-0.256-2.02-0.782-2.591c-0.53-0.574-1.245-0.879-2.067-0.879c-0.793,0-1.493,0.305-2.021,0.878
		c-0.227,0.245-0.402,0.536-0.53,0.875c-3.2-2.051-7.198-3.089-11.908-3.089c-4.514,0-8.463,0.995-11.738,2.958
		c-3.431,2.056-5.17,4.894-5.17,8.433c0,1.977,0.63,3.839,1.872,5.534c1.229,1.685,2.956,2.96,5.136,3.793
		c2.108,0.808,5.454,1.438,10.228,1.925c4.49,0.46,7.935,1.362,10.235,2.681c2.112,1.226,3.139,2.781,3.139,4.752
		c0,1.7-1.074,3.381-3.191,4.997c-2.195,1.673-5.656,2.522-10.288,2.522c-3.154,0-5.841-0.448-7.988-1.332
		c-2.096-0.863-3.63-1.947-4.564-3.228c-0.563-0.761-0.838-1.699-0.838-2.869c0-0.875-0.279-1.6-0.831-2.153
		c-0.544-0.542-1.242-0.829-2.019-0.829c-0.828,0-1.539,0.309-2.057,0.894c-0.502,0.567-0.747,1.396-0.747,2.533v7.698
		c0,1.146,0.256,1.979,0.782,2.547c0.531,0.575,1.23,0.879,2.022,0.879c0.576,0,1.102-0.158,1.563-0.467
		c0.469-0.312,0.804-0.711,0.998-1.191c0.048-0.121,0.099-0.284,0.142-0.544c3.699,2.438,8.288,3.671,13.67,3.671
		c6.094,0,10.813-1.32,14.024-3.924c3.271-2.651,4.93-5.748,4.93-9.203c0-2.334-0.777-4.532-2.308-6.532
		C71.261,86.604,68.956,85.047,65.915,83.949z"/>
	<path fill="#030000" d="M111.028,105.831c5.835,0,10.824-2.014,14.831-5.988c4.006-3.975,6.038-8.831,6.038-14.434
		c0-3.526-0.901-6.935-2.677-10.13c-1.785-3.212-4.34-5.752-7.595-7.551c-3.24-1.789-6.82-2.697-10.64-2.697
		c-3.609,0-6.796,0.726-9.473,2.157c-2.022,1.081-3.961,2.58-5.786,4.467v-4.354c0-0.516-0.42-0.936-0.936-0.936h-8.765
		c-1.143,0-1.977,0.255-2.547,0.782c-0.576,0.53-0.88,1.23-0.88,2.023c0,0.821,0.304,1.535,0.879,2.065
		c0.57,0.527,1.403,0.783,2.547,0.783h4.092v46.312h-4.092c-1.136,0-1.964,0.244-2.531,0.745c-0.585,0.516-0.896,1.228-0.896,2.058
		c0,0.829,0.31,1.54,0.896,2.059c0.569,0.502,1.397,0.746,2.531,0.746h17.841c1.145,0,1.977-0.256,2.547-0.782
		c0.575-0.53,0.879-1.229,0.879-2.022c0-0.83-0.309-1.542-0.893-2.057c-0.567-0.502-1.396-0.746-2.533-0.746h-8.141V99.303
		C99.808,103.638,104.944,105.831,111.028,105.831z M95.726,85.409c0-4.047,1.45-7.437,4.435-10.366
		c2.949-2.893,6.605-4.359,10.868-4.359c4.293,0,7.827,1.418,10.803,4.337c2.97,2.914,4.413,6.312,4.413,10.387
		c0,4.105-1.451,7.517-4.434,10.431c-2.991,2.919-6.517,4.339-10.781,4.339s-7.92-1.467-10.868-4.359
		C97.176,92.891,95.726,89.486,95.726,85.409z"/>
	<path fill="#030000" d="M161.749,108.234c5.983,0,11.167-2.127,15.407-6.32c4.244-4.198,6.396-9.332,6.396-15.259
		c0-5.956-2.152-11.104-6.396-15.303c-4.242-4.193-9.425-6.32-15.407-6.32c-6.042,0-11.249,2.135-15.475,6.345
		c-4.227,4.212-6.371,9.353-6.371,15.278c0,5.896,2.144,11.021,6.371,15.233C150.502,106.099,155.708,108.234,161.749,108.234z
		 M145.513,86.655c0-4.438,1.546-8.128,4.727-11.281c3.141-3.112,6.999-4.689,11.466-4.689c4.468,0,8.327,1.571,11.467,4.67
		c3.136,3.093,4.726,6.896,4.726,11.301c0,4.438-1.546,8.128-4.728,11.281c-3.139,3.112-6.997,4.69-11.465,4.69
		c-4.467,0-8.324-1.585-11.464-4.711C147.059,94.748,145.513,91.065,145.513,86.655z"/>
	<path fill="#030000" d="M214.604,108.234c5.983,0,11.167-2.127,15.408-6.32c4.243-4.198,6.395-9.332,6.395-15.259
		c0-5.956-2.152-11.104-6.396-15.303c-4.242-4.193-9.425-6.32-15.407-6.32c-6.042,0-11.249,2.135-15.475,6.345
		c-4.227,4.212-6.37,9.353-6.37,15.278c0,5.896,2.143,11.021,6.37,15.233C203.357,106.099,208.564,108.234,214.604,108.234z
		 M214.562,70.684c4.468,0,8.327,1.571,11.467,4.67c3.136,3.093,4.725,6.896,4.725,11.301c0,4.438-1.545,8.128-4.727,11.281
		c-3.14,3.112-6.997,4.69-11.465,4.69c-4.467,0-8.325-1.585-11.465-4.711c-3.182-3.167-4.728-6.85-4.728-11.26
		c0-4.438,1.546-8.128,4.727-11.281C206.236,72.262,210.094,70.684,214.562,70.684z"/>
	<path fill="#030000" d="M247.397,106.765h12.191c1.146,0,1.979-0.256,2.546-0.781c0.576-0.532,0.88-1.231,0.88-2.022
		c0-0.828-0.31-1.539-0.895-2.058c-0.567-0.501-1.395-0.745-2.531-0.745h-3.292V78.992c3.155-3.689,5.596-6.021,7.256-6.932
		c1.66-0.913,3.664-1.375,5.956-1.375c3.012,0,5.333,0.811,7.098,2.48c1.75,1.654,2.6,3.622,2.6,6.016v21.978h-2.179
		c-1.165,0-2.007,0.243-2.581,0.747c-0.582,0.519-0.891,1.23-0.891,2.056c0,0.79,0.303,1.488,0.879,2.022
		c0.57,0.526,1.417,0.781,2.592,0.781h10.011c1.146,0,1.979-0.255,2.55-0.783c0.573-0.531,0.878-1.23,0.878-2.021
		c0-0.827-0.31-1.538-0.896-2.06c-0.568-0.5-1.396-0.744-2.532-0.744h-2.223v-22.6c0-2.341-0.733-4.647-2.178-6.852
		c-1.431-2.186-3.064-3.78-4.867-4.746c-2.47-1.28-5.234-1.929-8.216-1.929c-2.767,0-5.299,0.541-7.522,1.605
		c-1.748,0.837-3.671,2.217-5.734,4.113v-3.448c0-0.516-0.42-0.936-0.936-0.936h-6.896c-1.143,0-1.977,0.255-2.547,0.782
		c-0.576,0.53-0.88,1.23-0.88,2.023c0,0.821,0.304,1.535,0.879,2.065c0.57,0.527,1.403,0.783,2.547,0.783h2.223v29.139h-3.29
		c-1.136,0-1.965,0.244-2.535,0.746c-0.583,0.519-0.893,1.23-0.893,2.057c0,0.79,0.304,1.489,0.879,2.022
		C245.418,106.51,246.251,106.765,247.397,106.765z"/>
	<path fill="#030000" d="M69.089,120.088H2.522c-0.693,0-1.257,0.563-1.257,1.255c0,0.694,0.564,1.258,1.257,1.258h66.566
		c0.693,0,1.257-0.564,1.257-1.258C70.346,120.651,69.782,120.088,69.089,120.088z"/>
	<g>
		<path fill="#030000" d="M378.534,118.92h-48.712c-0.598-21.64-1.579-56.115-1.816-64.449c3.318-1.208,7.064-2.675,11.128-9.217
			c4.212-6.772,2.524-18.373,1.144-24.684c-1.796-8.217-8.412-20.476-19.273-20.568L320.898,0c-9.808,0-17.438,12.51-19.507,20.964
			c-2.259,9.229-1.453,19.229,2.054,25.478c2.54,4.526,7.319,6.965,10.211,8.084l-0.016,0.698
			c-0.672,28.186-1.169,49.616-1.478,63.713h-189.5c-1.35,0-2.449,1.098-2.449,2.447c0,1.351,1.099,2.449,2.449,2.449h190.391
			c1.097,0,1.979-0.393,2.857-1.273c0.829-0.828,1.054-2.094,1.115-2.683c0.008-0.041,0.013-0.083,0.015-0.126
			c0.386-17.626,1.059-46.301,1.554-66.901c0.025-1.13-0.718-2.126-1.803-2.419c-0.267-0.074-6.544-1.872-9.074-6.383
			c-2.933-5.223-3.55-13.827-1.571-21.918c1.722-7.042,7.966-17.23,14.811-17.23c7.941,0.067,13.13,10.291,14.536,16.718
			c2.08,9.507,1.891,17.18-0.519,21.054c-3.257,5.242-5.977,6.229-8.855,7.275c-0.513,0.187-1.02,0.373-1.524,0.574
			c-0.947,0.381-1.564,1.322-1.535,2.341l0.056,1.983c0.246,8.613,1.231,43.228,1.823,64.663c-0.001,0.026-0.001,0.053-0.001,0.08
			l0.008,0.151c0,0.059,0.009,0.115,0.024,0.169c0.078,0.618,0.334,1.923,1.13,2.716c1.097,1.102,1.951,1.194,2.732,1.194h49.702
			c1.349,0,2.448-1.099,2.448-2.449C380.981,120.018,379.883,118.92,378.534,118.92z"/>
		<path fill="#030000" d="M69.089,118.824H2.522c-1.391,0-2.522,1.13-2.522,2.52c0,1.391,1.132,2.522,2.522,2.522h66.566
			c1.39,0,2.522-1.131,2.522-2.522C71.611,119.954,70.479,118.824,69.089,118.824z"/>
	</g>
	<path fill="#030000" d="M88.451,144.969l0.902,0.497l0.273,0.543c0.026,0.055,0.065,0.103,0.112,0.142l1.33,1.1
		c0.081,0.067,0.179,0.1,0.278,0.1c0.083,0,0.166-0.023,0.239-0.071l0.353-0.23l0.314-0.206c0.123-0.08,0.197-0.218,0.197-0.365
		v-0.563c0-0.127-0.055-0.247-0.151-0.33c-0.495-0.429-0.926-0.86-1.283-1.283c-0.186-0.219-0.394-0.429-0.615-0.633
		c-0.254-0.233-0.524-0.457-0.82-0.667c-0.064-0.045-0.137-0.071-0.211-0.079s-0.151,0.004-0.222,0.037l-0.742,0.332
		c-0.169,0.077-0.272,0.251-0.256,0.437l0,0c0,0,0,0,0,0l0.078,0.895C88.239,144.769,88.323,144.898,88.451,144.969z"/>
	<path fill="#030000" d="M100.131,143.806c-0.058-0.207-0.26-0.347-0.47-0.317l-0.896,0.102c-0.177,0.02-0.324,0.145-0.371,0.316
		l-0.435,1.561c-0.011,0.038-0.017,0.078-0.017,0.117c0,0.373,0.019,0.738,0.054,1.091c0.045,0.45,0.221,0.732,0.407,0.906
		c0.061,0.058,0.124,0.104,0.182,0.14c0.069,0.043,0.149,0.065,0.229,0.065c0.042,0,0.085-0.007,0.128-0.02l0.665-0.205
		c0.075-0.023,0.142-0.065,0.193-0.122c0.033-0.036,0.047-0.083,0.067-0.128c0.011-0.025,0.032-0.045,0.038-0.073l0,0
		c0-0.001,0.001-0.001,0.001-0.001c0.018-0.085,0.021-0.178,0.034-0.265c0.021-0.139,0.047-0.272,0.054-0.419
		c0.012-0.239,0.007-0.486-0.017-0.74c-0.031-0.333,0.053-0.605,0.247-0.832c0.007-0.008,0.009-0.019,0.016-0.027
		c0.014-0.016,0.017-0.038,0.028-0.056c0.029-0.043,0.06-0.086,0.071-0.135c0.017-0.071,0.016-0.145-0.004-0.216L100.131,143.806z"
		/>
	<path fill="#030000" d="M121.063,156.511c-0.094-0.155-0.276-0.238-0.453-0.205l-0.008,0.002c-0.007,0-0.012-0.004-0.019-0.002
		l-0.473,0.086c-0.361-0.062-0.735-0.109-1.124-0.142c-0.281-0.023-0.552-0.08-0.807-0.168l-0.5-2.479l0.046-0.318l0.168-0.037
		c0.183-0.041,0.32-0.194,0.339-0.381l0.054-0.52l1.814,0.348h0.026h0.435h0.017h0.008c0.037,0,0.07-0.014,0.105-0.022
		c0.019-0.006,0.04-0.006,0.058-0.013c0.049-0.02,0.09-0.051,0.13-0.087c0.002-0.002,0.006-0.003,0.007-0.006
		c0.01-0.009,0.022-0.013,0.031-0.023c0.028-0.033,0.043-0.073,0.06-0.111c0-0.001,0.002-0.003,0.002-0.005
		c0.022-0.052,0.033-0.106,0.034-0.164c0-0.002,0-0.003,0-0.005v-0.002c0-0.021,0.007-0.042,0.003-0.064l-0.103-0.665
		c-0.02-0.137-0.104-0.255-0.226-0.319c-1.042-0.556-2.199-0.875-3.441-0.946c-1.138-0.065-2.219-0.28-3.244-0.649
		c-0.125-0.036-0.239-0.048-0.343-0.048c-0.301-0.009-0.515,0.104-0.623,0.211l-0.409,0.409c-0.082,0.082-0.128,0.193-0.128,0.309
		v0.308c0,0.116,0.045,0.227,0.127,0.309c0.431,0.433,0.959,0.721,1.569,0.859c0.443,0.1,0.885,0.183,1.319,0.246
		c0.095,0.474,0.156,0.952,0.183,1.424c0.033,0.605,0.167,1.211,0.399,1.801l-0.064,0.561l-0.856-0.132
		c-0.004,0-0.009,0.002-0.014,0.001l-0.013-0.002c-0.068-0.011-0.137-0.005-0.202,0.016l-1.023,0.333
		c-0.215,0.07-0.341,0.292-0.291,0.512l0.129,0.563c0.022,0.099,0.078,0.185,0.158,0.248c0.441,0.343,0.968,0.54,1.56,0.588
		c0.507,0.043,1.02,0.099,1.542,0.165c0.018,0.002,0.037,0.004,0.055,0.004c0.031,0,0.061-0.007,0.092-0.014
		c0.02-0.003,0.042,0.001,0.062-0.005l0.25-0.077l1.356,0.094c0.004,0,0.01,0,0.016,0l0.011,0c0.01,0.001,0.02,0.002,0.03,0.002
		c0.025,0,0.051-0.002,0.076-0.007c0.352-0.063,0.721-0.095,1.1-0.095c0.482,0,0.915-0.104,1.286-0.312
		c0.104-0.057,0.18-0.154,0.21-0.268c0.03-0.115,0.013-0.236-0.047-0.338L121.063,156.511z"/>
	<path fill="#030000" d="M146.562,148.71c-0.033-0.034-0.071-0.063-0.112-0.085c-1.15-0.609-2.371-1.09-3.633-1.429
		c-1.213-0.326-2.426-0.713-3.606-1.151c-0.057-0.021-0.116-0.026-0.174-0.023c-0.058-0.004-0.116,0-0.17,0.019
		c-0.107,0.036-0.229,0.055-0.359,0.055c-0.175,0-0.602,0.063-0.809,0.648c-0.03,0.087-0.033,0.18-0.008,0.268l0.23,0.792
		c0.047,0.16,0.178,0.278,0.34,0.308c1.087,0.2,2.185,0.456,3.261,0.759c1.039,0.291,2.076,0.655,3.083,1.081
		c0.193,0.171,0.314,0.363,0.372,0.588c0.078,0.304,0.147,0.596,0.211,0.878l-0.094,0.926c-0.005,0.058,0,0.116,0.017,0.172
		l0.068,0.222c-0.228,0.988-0.519,1.955-0.865,2.873c-0.352,0.93-0.818,1.79-1.344,2.505l-0.694,0.691
		c-0.06,0.06-0.131,0.097-0.214,0.114c-0.073,0.008-0.149,0.012-0.239-0.004c-0.004-0.001-0.008,0.002-0.012,0.001
		c-0.015-0.002-0.026,0.002-0.042,0c-0.164-0.034-0.331,0.036-0.429,0.169l-0.435,0.589c-0.103,0.141-0.113,0.33-0.025,0.48
		l0.435,0.74c0.056,0.095,0.146,0.167,0.253,0.198c0.13,0.038,0.258,0.058,0.381,0.058h0c0.008,0,0.015-0.004,0.023-0.004
		c0.009,0,0.02,0.004,0.029,0.004c0.29,0,0.556-0.109,0.772-0.314c0.147-0.14,0.299-0.235,0.451-0.281
		c0.073-0.022,0.139-0.063,0.192-0.118c1.158-1.228,2.038-2.577,2.619-4.012c0.571-1.408,1.009-2.894,1.304-4.415
		c0.009-0.051,0.01-0.102,0.002-0.152c-0.082-0.506-0.123-1.012-0.123-1.504C147.219,149.721,146.998,149.167,146.562,148.71z"/>
	<path fill="#030000" d="M174.302,150.66c-0.044-0.107-0.13-0.192-0.237-0.235l-0.562-0.23c-0.064-0.026-0.132-0.035-0.201-0.031
		l-0.049,0.004c-0.01,0-0.02-0.005-0.03-0.004l-3.658,0.296l-0.214-0.054c-0.053-0.014-0.111-0.016-0.164-0.009l-0.022,0.003
		c-0.02,0-0.038-0.006-0.059-0.003l-0.481,0.065l-0.694-0.066c-0.021-0.002-0.042,0-0.063,0.001l-0.017-0.001
		c-0.034-0.004-0.069-0.002-0.104,0.002l-2.846,0.414l-0.676-0.197c-0.072-0.02-0.148-0.022-0.221-0.005L164,150.609
		c-0.024,0.001-0.05-0.009-0.074-0.002l-0.352,0.083l-1.413-0.091l-0.024,0.002l-0.055-0.004l-1.845,0.211l-0.184-0.077
		c-0.054-0.023-0.111-0.035-0.169-0.035h-0.947c-0.003,0-0.004,0.001-0.007,0.001h-0.072c-0.512,0-0.908,0.255-1.114,0.718
		c-0.039,0.087-0.049,0.184-0.027,0.276l0.206,0.895c0.045,0.2,0.223,0.339,0.425,0.339c0.012,0,0.022-0.001,0.034-0.001
		l0.025-0.002c0.007,0,0.012,0.004,0.019,0.004c0.011,0,0.022-0.001,0.034-0.001l2.821-0.227l1.619,0.1
		c0.006,0.001,0.012-0.003,0.018-0.003l0.061,0.003c0.075,0.004,0.155-0.011,0.223-0.046l0.09-0.045l1.445,0.09
		c0.007-0.001,0.016-0.002,0.025-0.004l0.052,0.004c0.675-0.07,1.36-0.162,2.035-0.273c0.606-0.1,1.249-0.15,1.913-0.156
		l0.391,0.108c0.056,0.015,0.113,0.019,0.171,0.012l0.027-0.003c0.018,0,0.035,0.005,0.052,0.003l0.896-0.122l2.272,0.124
		c0.012,0.001,0.021-0.002,0.032-0.002l0.047,0.002c0.043,0.001,0.081-0.001,0.121-0.01l1.022-0.23
		c0.13-0.03,0.239-0.117,0.298-0.236l0.332-0.691c0.054-0.113,0.058-0.243,0.01-0.358L174.302,150.66z"/>
	<path fill="#030000" d="M196.221,150.566l-0.691-0.46c-0.082-0.055-0.178-0.067-0.274-0.06c-0.08-0.014-0.163-0.012-0.24,0.021
		l-0.154,0.064c-0.87-0.152-1.719-0.395-2.528-0.73c-0.776-0.322-1.537-0.705-2.262-1.14c0.205-1.02,0.444-2.03,0.714-3.008
		c0.289-1.052,0.696-2.095,1.209-3.102c0.078-0.154,0.059-0.339-0.051-0.474l-0.563-0.691c-0.11-0.137-0.294-0.192-0.461-0.144
		l-0.003,0.001c-0.035,0.001-0.068-0.011-0.103,0l-0.434,0.128c-0.137,0.041-0.247,0.146-0.291,0.284
		c-0.681,2.091-1.311,4.215-1.875,6.313c-0.563,2.101-0.998,4.307-1.292,6.577c-0.088,1.155-0.035,2.29,0.159,3.372
		c0.191,1.061,0.407,2.13,0.643,3.177c0.02,0.091,0.07,0.173,0.141,0.234l0.768,0.664c0.08,0.069,0.18,0.107,0.286,0.107
		c0.019,0,0.035-0.008,0.054-0.009c0.017,0.002,0.033,0.009,0.05,0.009c0.184,0,0.362-0.03,0.532-0.09
		c0.221-0.08,0.402-0.246,0.54-0.492c0.063-0.111,0.073-0.245,0.028-0.365c-0.242-0.652-0.513-1.343-0.812-2.074
		c-0.28-0.679-0.455-1.372-0.518-2.045c-0.067-1.176-0.029-2.323,0.113-3.411c0.121-0.939,0.325-1.861,0.604-2.747
		c0.724,0.183,1.433,0.409,2.109,0.679c0.875,0.351,1.829,0.61,2.9,0.774h0.104h0.65h0.104c0.358,0,0.683-0.106,0.964-0.317
		c0.147-0.111,0.21-0.301,0.156-0.477l-0.102-0.334C196.368,150.706,196.305,150.622,196.221,150.566z"/>
	<path fill="#030000" d="M92.926,151.027c0.027,0.005,0.054,0.008,0.082,0.008h0h0c0.035,0,0.068-0.009,0.102-0.018
		c0.015-0.003,0.03-0.002,0.043-0.007l0.001,0h0l0.106-0.038l0.251-0.089c0.174-0.062,0.29-0.227,0.29-0.412v-0.666
		c0-0.168-0.097-0.322-0.25-0.394c-0.323-0.153-0.65-0.283-0.981-0.389c-0.331-0.105-0.664-0.189-0.996-0.247
		c-0.608-0.108-1.192-0.268-1.736-0.477c-0.05-0.02-0.104-0.029-0.156-0.029c-0.321,0-0.655,0.019-1.004,0.053
		c-0.577,0.06-0.885,0.343-1.043,0.57c-0.05,0.073-0.077,0.16-0.077,0.249v0.536c0,0.207,0.145,0.385,0.348,0.427
		c0.823,0.172,1.663,0.331,2.523,0.478C91.28,150.726,92.113,150.875,92.926,151.027z"/>
	<path fill="#030000" d="M97.003,143.933c0.014-0.045,0.022-0.092,0.022-0.139v0v-0.435c0-0.083-0.023-0.162-0.065-0.23
		c-0.004-0.004-0.01-0.007-0.013-0.012c-0.041-0.062-0.095-0.114-0.164-0.149l-0.46-0.23c-0.061-0.03-0.127-0.046-0.195-0.046
		h-0.562c-0.072,0-0.143,0.018-0.205,0.051c-0.206,0.109-0.364,0.253-0.477,0.421c-0.005,0.007-0.013,0.013-0.017,0.021
		c-0.113,0.178-0.173,0.384-0.173,0.609c0,0.027-0.009,0.054-0.009,0.081c-0.006,0.229-0.028,0.46-0.082,0.688
		c-0.013,0.054-0.013,0.11-0.005,0.165c0.001,0.003,0,0.006,0,0.01l0,0v0.001c0.063,0.366,0.096,0.758,0.096,1.165
		c0,0.253,0.045,0.48,0.125,0.686c0.009,0.026,0.013,0.056,0.024,0.081c0.007,0.016,0.019,0.029,0.026,0.045
		c0.099,0.205,0.236,0.387,0.418,0.537c0.08,0.065,0.177,0.099,0.278,0.099c0.031,0,0.064-0.003,0.096-0.01l1.023-0.23
		c0.148-0.034,0.265-0.141,0.315-0.279c0.017-0.046,0.025-0.095,0.025-0.146c0-0.233-0.008-0.448-0.021-0.654
		c-0.008-0.137-0.018-0.272-0.032-0.396c-0.022-0.181-0.07-0.365-0.13-0.551c-0.035-0.106-0.068-0.212-0.115-0.318l0.185-0.556
		L97.003,143.933z"/>
	<path fill="#030000" d="M98.914,150.709l-0.435-0.101c-0.114-0.028-0.233-0.007-0.333,0.056l-0.563,0.357
		c-0.044,0.028-0.084,0.064-0.116,0.107l-0.183,0.245l-3.055,1.977c-0.033,0.021-0.062,0.047-0.087,0.076
		c-0.178,0.197-0.371,0.374-0.56,0.557c-0.114,0.111-0.221,0.233-0.339,0.338c-0.312,0.277-0.635,0.533-0.969,0.765
		c-0.738,0.513-1.393,1.163-1.946,1.932c-0.024,0.034-0.043,0.07-0.058,0.109c-0.031,0.086-0.035,0.155-0.048,0.23
		c-0.067,0.404,0.098,0.648,0.228,0.761c0.106,0.09,0.219,0.204,0.34,0.34c0.083,0.093,0.202,0.147,0.327,0.147h0.587h0
		c0.181,0,0.342-0.111,0.408-0.279c0.099-0.257,0.249-0.504,0.439-0.742c0.15-0.187,0.321-0.369,0.523-0.542
		c0.15-0.128,0.282-0.246,0.421-0.368c0.202-0.177,0.39-0.345,0.564-0.507c0.125-0.115,0.26-0.236,0.37-0.342l4.655-3.658
		c0.104-0.083,0.167-0.209,0.167-0.343v0v-0.691C99.251,150.931,99.111,150.755,98.914,150.709z"/>
	<path fill="#030000" d="M138.17,143.382c0.891,0.14,1.708,0.506,2.43,1.085c0.827,0.666,1.724,1.132,2.667,1.386
		c0.037,0.01,0.076,0.015,0.113,0.015c0.009,0,0.017-0.003,0.025-0.003c0.009,0,0.019,0.003,0.027,0.003
		c0.042,0,0.084-0.006,0.124-0.019l0.435-0.128c0.118-0.035,0.216-0.118,0.269-0.229c0.054-0.11,0.059-0.238,0.013-0.353
		l-0.307-0.766c-0.042-0.105-0.124-0.19-0.227-0.236c-0.795-0.357-1.521-0.809-2.163-1.345c-0.702-0.586-1.488-1.079-2.335-1.468
		c-0.057-0.025-0.119-0.039-0.182-0.039c-0.013,0-0.024,0.003-0.038,0.003c-0.005,0-0.01-0.003-0.015-0.003
		c-0.279,0-0.543,0.05-0.776,0.146c-0.209,0.083-0.492,0.273-0.654,0.696c-0.039,0.1-0.039,0.211,0,0.313l0.255,0.667
		C137.887,143.252,138.016,143.358,138.17,143.382z"/>
	<path fill="#030000" d="M218.649,153.302c-0.505-0.283-0.979-0.653-1.409-1.097c-0.108-0.112-0.266-0.157-0.419-0.12l-0.831,0.207
		c-0.053,0.014-0.101,0.036-0.144,0.066c-0.128,0.09-0.203,0.245-0.184,0.408l0.104,0.892l-0.551,1.564
		c-0.563-0.352-1.089-0.787-1.566-1.295c-0.506-0.54-1.062-1.06-1.655-1.549c0.097-0.218,0.198-0.429,0.305-0.632
		c0.127-0.241,0.3-0.428,0.527-0.571c0.043-0.027,0.081-0.062,0.112-0.102l0.751-0.978c0.314-0.278,0.641-0.533,0.977-0.763
		c0.008-0.005,0.016-0.008,0.024-0.014c0.329-0.224,0.669-0.426,1.016-0.601c0.345-0.174,0.701-0.328,1.064-0.463
		c0.012-0.005,0.024-0.011,0.036-0.016c0.376-0.138,0.759-0.255,1.146-0.351c0.056-0.014,0.106-0.04,0.153-0.073
		c0.041-0.029,0.078-0.065,0.106-0.108l0.277-0.415c0.031-0.047,0.038-0.103,0.048-0.156c0.006-0.027,0.023-0.049,0.025-0.076
		c0.001-0.082-0.019-0.164-0.063-0.236l-0.339-0.56l-0.26-0.43c-0.021-0.036-0.047-0.067-0.078-0.095
		c-0.866-0.801-1.83-1.335-2.865-1.59c-0.98-0.241-2.039-0.427-3.144-0.551c-0.037-0.005-0.076-0.003-0.111,0.002
		c-0.001,0-0.003,0-0.005,0l-0.085,0.014l-0.469,0.071l-1.589-0.089c-0.031-0.001-0.061-0.001-0.092,0.004l-0.07,0.011l-0.461,0.071
		l-0.462-0.071l-0.071-0.011h0c-0.083-0.013-0.167-0.001-0.244,0.033l-1.82,0.806c-0.083,0.038-0.155,0.101-0.202,0.182
		l-0.807,1.406c-0.039,0.066-0.059,0.141-0.059,0.217c0,0.295,0.017,0.583,0.05,0.866c0.025,0.227,0.097,0.427,0.187,0.612
		c0.048,0.099,0.095,0.2,0.158,0.283c0.536,0.819,1.173,1.619,1.892,2.377c0.644,0.679,1.318,1.367,2.008,2.046
		c-0.189,0.583-0.381,1.154-0.581,1.712c-0.117,0.328-0.225,0.665-0.32,1.006c-0.061,0.217-0.108,0.438-0.159,0.659
		c-0.03,0.125-0.065,0.249-0.091,0.376c-0.005,0.029-0.008,0.058-0.008,0.088c0,0.151,0.009,0.298,0.029,0.443
		c0.013,0.091,0.035,0.177,0.055,0.266c0.012,0.053,0.019,0.108,0.034,0.161c0.033,0.116,0.076,0.227,0.12,0.337
		c0.01,0.024,0.016,0.049,0.026,0.071c0.059,0.134,0.127,0.264,0.205,0.39c0.259,0.425,0.495,0.87,0.699,1.324
		c0.028,0.061,0.069,0.115,0.121,0.157c0.303,0.249,0.616,0.43,0.931,0.536c0.282,0.097,0.602,0.187,0.956,0.267
		c0.031,0.007,0.063,0.011,0.096,0.011h0.001c0.021,0,0.041-0.001,0.062-0.004c0.27-0.038,0.533-0.104,0.791-0.186
		c0.022-0.007,0.046-0.008,0.068-0.016c0.279-0.093,0.549-0.211,0.811-0.354c0.481-0.263,0.954-0.536,1.421-0.815
		c0.042-0.025,0.08-0.058,0.111-0.096l0.801-0.967l2.026,0.903c0.056,0.025,0.117,0.038,0.178,0.038h0.598h0.001
		c0.005,0,0.013-0.001,0.017,0c0.241,0,0.437-0.196,0.437-0.437c0-0.046-0.025-0.084-0.038-0.126c-0.001-0.002,0-0.004-0.001-0.006
		l-0.02-0.065c-0.008-0.014-0.006-0.032-0.014-0.045l-0.09-0.278l-0.083-0.258c0-0.001-0.002-0.002-0.003-0.003
		c-0.029-0.092-0.091-0.171-0.172-0.226c-0.002-0.001-0.002-0.003-0.004-0.004l-1.712-1.111l0.194-0.432l0.251-0.557l0.21,0.232
		c0.041,0.05,0.093,0.09,0.152,0.118l1.083,0.507c0.104,0.049,0.223,0.055,0.332,0.016l0.83-0.299
		c0.174-0.062,0.29-0.227,0.29-0.411v-0.392c0-0.082-0.023-0.163-0.067-0.232C219.753,154.122,219.256,153.645,218.649,153.302z
		 M208.665,148.873c-0.59-0.65-1.09-1.336-1.49-2.042l0.311-0.773c0.084-0.092,0.17-0.159,0.258-0.22
		c0.099-0.067,0.202-0.115,0.308-0.146c0.022-0.006,0.042-0.022,0.066-0.027c0.321-0.066,0.643-0.135,0.964-0.208l2.058,0.112h0
		c0.054,0.003,0.1-0.003,0.147-0.017l0.167-0.049l0.166-0.049c0.821,0.004,1.642,0.091,2.441,0.257
		c0.241,0.05,0.467,0.137,0.693,0.225c0.364,0.143,0.714,0.317,1.034,0.556l-0.892,0.378c-0.915,0.499-1.751,1.156-2.486,1.955
		c-0.305,0.333-0.601,0.673-0.889,1.017c-0.024,0.027-0.049,0.054-0.073,0.081c-0.114,0.138-0.22,0.28-0.332,0.418
		c-0.191,0.239-0.386,0.476-0.57,0.719l-0.029-0.013c-0.249-0.312-0.509-0.622-0.771-0.933
		C209.394,149.695,209.033,149.28,208.665,148.873z M213.747,157.175l-0.975,0.732l-0.821,0.317l-0.913-0.261
		c-0.167-0.131-0.292-0.299-0.382-0.51c-0.12-0.28-0.242-0.543-0.368-0.787c0-0.023,0.005-0.046,0.006-0.07
		c0.014-0.509,0.089-1.005,0.229-1.475c0.11-0.37,0.241-0.741,0.394-1.106l1.567,1.275l1.568,1.276L213.747,157.175z"/>
	<path fill="#030000" d="M235.215,152.353c0.004,0,0.008,0,0.013,0c0.242,0,0.437-0.195,0.437-0.437
		c0-0.063-0.013-0.123-0.037-0.177c-0.026-0.169-0.078-0.33-0.124-0.493c-0.024-0.083-0.036-0.17-0.064-0.25
		c-0.091-0.26-0.207-0.511-0.352-0.749c-0.244-0.395-0.423-0.85-0.534-1.352c-0.03-0.139-0.126-0.253-0.256-0.308l-0.439-0.184
		c-0.116-0.049-0.25-0.045-0.364,0.012l-0.599,0.299c-0.147,0.074-0.242,0.225-0.242,0.39c0,0.312,0.082,0.607,0.203,0.893
		c0.041,0.096,0.067,0.195,0.122,0.287c0.123,0.208,0.155,0.46,0.097,0.771c-0.009,0.052-0.009,0.104,0,0.154
		c0.014,0.076,0.052,0.143,0.1,0.201c0.017,0.019,0.028,0.041,0.048,0.056c0.003,0.004,0.008,0.005,0.012,0.008
		c0.036,0.029,0.076,0.054,0.121,0.07l0.232,0.084c0.025,0.106,0.091,0.201,0.185,0.262l0.599,0.393
		c0.071,0.046,0.155,0.071,0.24,0.071h0.599C235.213,152.354,235.214,152.353,235.215,152.353z"/>
	<path fill="#030000" d="M252.455,158.908c-0.078-0.133-0.221-0.215-0.375-0.215c-0.359,0-0.668,0.079-0.948,0.198
		c-0.096,0.041-0.201,0.067-0.288,0.122c-0.206,0.131-0.44,0.229-0.698,0.295c-0.5-0.072-0.968-0.152-1.403-0.237
		c-0.38-0.075-0.74-0.289-1.079-0.642c-0.247-0.245-0.486-0.518-0.713-0.812c-0.17-0.219-0.285-0.44-0.343-0.66l0.382-0.27
		c0.034-0.022,0.064-0.047,0.091-0.078l0.6-0.669c0.083-0.092,0.122-0.216,0.109-0.339l-0.092-0.831
		c-0.014-0.123-0.08-0.235-0.181-0.308c-0.085-0.06-0.189-0.09-0.289-0.079c0.018-0.014,0.036-0.029,0.052-0.047
		c0.416-0.437,0.628-0.949,0.628-1.523c0-0.334,0.036-0.652,0.106-0.947l0.599-0.195l0.463,0.07c0.394,0.093,0.762,0.01,1.065-0.236
		c0.16-0.129,0.319-0.225,0.475-0.286c0.002,0,0.003-0.002,0.005-0.002c0.001,0,0.001,0,0.001,0c0.013-0.005,0.02-0.014,0.033-0.02
		c0.185-0.091,0.287-0.297,0.232-0.5l-0.185-0.691c-0.058-0.215-0.262-0.356-0.487-0.319l-1.172,0.177l-0.734-0.057
		c-0.04-0.169-0.128-0.286-0.198-0.356l-0.332-0.332c-0.056-0.057-0.125-0.095-0.2-0.114c-0.028-0.007-0.058,0.002-0.088,0
		c-0.047-0.002-0.095-0.012-0.143,0.002l-0.323,0.093c-0.1,0.028-0.185,0.091-0.243,0.177l-0.47,0.706
		c-0.333,0.005-0.665,0.021-0.997,0.046c-0.081,0.007-0.16,0.002-0.238-0.004c-0.117-0.009-0.23-0.028-0.337-0.066l0.369-0.301
		c0.136-0.105,0.191-0.278,0.154-0.441c0-0.003,0.002-0.008,0.001-0.012c0.08,0.035,0.169,0.037,0.256,0.02
		c0.03-0.005,0.062-0.005,0.091-0.018l0.922-0.392c0.189-0.08,0.296-0.281,0.258-0.483l-0.308-1.624l0.145-0.773l0.553-0.184
		c0.336,0.058,0.661,0.142,0.971,0.252c0.413,0.146,0.85,0.22,1.297,0.22c0.064,0,0.128-0.015,0.187-0.042l0.829-0.392
		c0.208-0.098,0.303-0.338,0.221-0.552l-0.058-0.15l-0.058-0.149c-0.036-0.095-0.104-0.174-0.193-0.224
		c-0.663-0.374-1.394-0.563-2.172-0.563c-0.531,0-1.017-0.102-1.474-0.312l0.061-0.353c0.006-0.04,0.008-0.079,0.004-0.118
		l-0.115-1.13c-0.014-0.135-0.089-0.256-0.206-0.327l-0.262-0.161l-0.036-0.023l0,0h-0.001c-0.008-0.005-0.017-0.005-0.025-0.01
		c-0.037-0.02-0.072-0.037-0.111-0.045c-0.045-0.01-0.093-0.011-0.141-0.005c-0.003,0-0.006-0.001-0.009-0.001
		c-0.001,0-0.001,0-0.001,0c-0.68,0.091-1.07,0.519-1.07,1.17c0,0.23-0.036,0.439-0.111,0.633l-2.466-0.707
		c-0.039-0.011-0.08-0.017-0.12-0.017h-0.991c-0.093,0-0.178,0.039-0.251,0.093c-0.036,0.026-0.076,0.05-0.103,0.088l-0.299,0.415
		c-0.071,0.098-0.097,0.22-0.075,0.338l0.045,0.237l0.047,0.244c0.027,0.146,0.126,0.268,0.263,0.323
		c0.142,0.058,0.299,0.092,0.447,0.141c0.598,0.2,1.225,0.347,1.898,0.398c0.623,0.047,1.188,0.215,1.685,0.5l-0.287,2.235
		c-0.011,0.087,0.004,0.176,0.045,0.254l0.079,0.155c-0.046-0.009-0.095-0.01-0.144-0.003l-0.807,0.115
		c-0.123,0.018-0.233,0.087-0.302,0.19c-0.135,0.204-0.263,0.438-0.379,0.697c-0.049,0.108-0.108,0.214-0.176,0.317l-0.996-0.454
		c-0.063-0.029-0.13-0.042-0.197-0.039c-0.017,0-0.033,0.011-0.05,0.013c-0.049,0.008-0.099,0.016-0.144,0.04l-0.001,0l-0.044,0.025
		l-0.51,0.279l-0.055-0.09c-0.044-0.106-0.128-0.19-0.234-0.234l-0.275-0.115c-0.107-0.044-0.226-0.046-0.334,0l-0.507,0.208
		c-0.121,0.05-0.214,0.152-0.252,0.278c-0.02,0.065-0.053,0.13-0.077,0.195c-0.125,0.349-0.293,0.696-0.524,1.032
		c-0.013,0.02-0.026,0.042-0.039,0.062c-0.282,0.415-0.558,0.851-0.841,1.336c-0.039,0.067-0.059,0.143-0.059,0.22v0.392
		c0,0.24,0.195,0.436,0.437,0.436c0.17,0,0.323-0.011,0.461-0.034c0.006-0.001,0.01-0.004,0.015-0.004
		c0.131-0.023,0.25-0.055,0.357-0.099c0.182-0.074,0.369-0.18,0.558-0.301c0.017-0.011,0.034-0.016,0.05-0.027
		c0.081-0.054,0.142-0.134,0.172-0.226c0.119-0.359,0.301-0.688,0.542-0.975c0.093-0.111,0.156-0.238,0.235-0.356
		c0.075-0.117,0.167-0.225,0.229-0.349c0.006,0.003,0.012,0.005,0.018,0.008l1.776,0.77c0.096,0.206,0.125,0.433,0.087,0.688
		c-0.008,0.051-0.013,0.104-0.016,0.16c-0.016,0.33,0.077,0.736,0.478,1.093c0.002,0.002,0.004,0.004,0.007,0.006
		c0.011,0.01,0.026,0.02,0.039,0.03c0.059,0.049,0.119,0.098,0.191,0.146c0.071,0.046,0.155,0.071,0.24,0.071h0.588
		c0.25,0,0.606-0.09,0.885-0.522c0.106-0.165,0.089-0.381-0.042-0.527l-0.444-0.497l0.069-0.275h1.322l-0.186,0.524
		c-0.017,0.047-0.025,0.096-0.025,0.146v0v0.968c0,0.347,0.119,0.65,0.344,0.894c-0.228-0.04-0.458-0.081-0.693-0.125
		c-0.325-0.06-0.622-0.181-0.899-0.332c-0.093-0.05-0.191-0.09-0.278-0.15c-0.05-0.035-0.107-0.058-0.167-0.069
		s-0.121-0.011-0.18,0.003l-0.899,0.207c-0.136,0.031-0.249,0.125-0.304,0.253l-0.208,0.484c-0.023,0.054-0.035,0.113-0.035,0.172v0
		v0.23c0,0.171,0.098,0.325,0.254,0.397c0.294,0.135,0.603,0.244,0.915,0.341c0.14,0.043,0.278,0.09,0.42,0.125
		c0.131,0.032,0.258,0.056,0.386,0.082c0.082,0.017,0.166,0.038,0.246,0.053l-0.674,0.996l-0.426,0.303l-1.329,0.941
		c-0.059,0.042-0.106,0.098-0.139,0.163l-0.19,0.386l-0.033,0.067c-0.034,0.087-0.039,0.158-0.05,0.233
		c-0.006,0.038-0.025,0.084-0.026,0.12c-0.002,0.059,0.013,0.103,0.022,0.153c0.007,0.038,0.006,0.084,0.017,0.117
		c0.013,0.035,0.031,0.057,0.046,0.086c0.052,0.1,0.114,0.178,0.162,0.219c0.093,0.08,0.194,0.181,0.3,0.302
		c0.099,0.112,0.247,0.163,0.395,0.143l0.599-0.093c0.04-0.006,0.074-0.023,0.109-0.038c0.012-0.006,0.027-0.007,0.038-0.013
		c0.007-0.004,0.013-0.012,0.021-0.017c0.121-0.078,0.202-0.211,0.202-0.363c0-0.044,0.01-0.085,0.025-0.127
		c0.015-0.044,0.039-0.094,0.085-0.151c0.121-0.148,0.235-0.284,0.346-0.407l0.915-0.649l0.361,0.558
		c0.024,0.039,0.055,0.073,0.091,0.102l0.815,0.653l0.161,0.195l0.162,0.196c0.036,0.043,0.08,0.08,0.13,0.107
		c0.411,0.221,0.826,0.42,1.236,0.594c0.432,0.182,0.904,0.309,1.401,0.376c0.02,0.002,0.038,0.004,0.058,0.004
		c0.419,0,0.821-0.065,1.214-0.158c0.171-0.041,0.345-0.073,0.51-0.132c0.279-0.099,0.546-0.23,0.799-0.391
		c0.253-0.163,0.491-0.354,0.713-0.576c0.14-0.141,0.167-0.359,0.066-0.53L252.455,158.908z"/>
	<path fill="#030000" d="M239.7,154.744l-1.487-0.667l-0.476-0.644l-0.429-0.446c0.236-0.92,0.45-1.86,0.635-2.795
		c0.188-0.947,0.548-1.838,1.068-2.648c0.045-0.07,0.069-0.153,0.069-0.236v-0.506V146.8c0-0.138-0.065-0.268-0.176-0.351
		l-0.201-0.149l-0.329-0.244c-0.096-0.071-0.219-0.1-0.338-0.079l-0.254,0.047l-0.253,0.045c-0.11,0.02-0.195,0.09-0.26,0.177
		c-0.026,0.035-0.059,0.064-0.073,0.106c-0.525,1.481-0.949,3.021-1.26,4.577c-0.177,0.88-0.329,1.776-0.466,2.675
		c-0.102,0.662-0.199,1.326-0.277,1.991c-0.01,0.073,0,0.147,0.028,0.215l0.484,1.2c0.05,0.123,0.153,0.217,0.28,0.255
		c0.042,0.012,0.083,0.019,0.125,0.019c0.088,0,0.175-0.027,0.249-0.078v-0.001h0l0.084-0.058l0.215-0.149
		c0.053-0.037,0.097-0.084,0.13-0.141l0.293-0.507l0.121-0.207c0.06-0.103,0.076-0.227,0.041-0.342l-0.011-0.038l0.721,0.516
		c0.075,0.053,0.164,0.082,0.255,0.082c0.195,0,0.412,0.019,0.65,0.054c0.006,0,0.01,0,0.016,0c0.216,0.03,0.411,0.004,0.581-0.074
		c0.071-0.032,0.134-0.079,0.195-0.128c0.014-0.011,0.031-0.017,0.045-0.03c0.015-0.013,0.025-0.031,0.039-0.045
		c0.055-0.056,0.11-0.114,0.156-0.185c0.044-0.071,0.068-0.153,0.068-0.236v-0.001v-0.575
		C239.957,154.971,239.856,154.815,239.7,154.744z"/>
	<path fill="#030000" d="M278.637,159.916c-0.056-0.144-0.183-0.247-0.335-0.272c-1.207-0.199-2.386-0.434-3.508-0.697
		c-1.066-0.25-2.086-0.626-3.034-1.118l-0.522-0.811l0.087-0.193l1.537,0.229c0.004,0,0.01,0,0.015,0l0.009,0.001
		c0.33,0,0.675-0.013,1.031-0.036c0.405-0.028,0.769-0.125,1.083-0.291c0.175-0.092,0.266-0.289,0.223-0.481l-0.113-0.508
		c-0.05-0.225-0.271-0.371-0.493-0.336l-0.009,0.001c-0.004,0-0.009-0.001-0.015,0l-0.527,0.08l-2.697-0.358l-0.184-0.238
		l0.083-1.778l1.578,0.292l0.571,0.61c0.089,0.096,0.215,0.145,0.35,0.137c0.002,0,0.005-0.002,0.008-0.003
		c0.005,0,0.011,0.003,0.016,0.003c0.131-0.009,0.251-0.078,0.327-0.186l0.646-0.921c0.062-0.088,0.088-0.195,0.076-0.302
		l-0.436-3.648l0.115-1.521c0.003-0.053-0.001-0.106-0.017-0.156l-0.115-0.391c-0.039-0.132-0.136-0.238-0.266-0.286l-1.701-0.635
		l-0.2-0.751l0.019-0.037c0.059-0.118,0.062-0.255,0.008-0.374l-0.037-0.083l0.149-0.796l0.336-0.232
		c0.284,0.003,0.56,0.017,0.83,0.042c0.244,0.022,0.457,0.111,0.65,0.27c0.078,0.064,0.176,0.1,0.277,0.1h0.018
		c0.001,0,0.003,0,0.005,0h0.53c0.156,0,0.301-0.083,0.378-0.219l0.185-0.323c0.05-0.086,0.069-0.187,0.054-0.285l-0.094-0.599
		c-0.03-0.19-0.181-0.337-0.37-0.365l-2.653-0.376c-0.027-0.109-0.047-0.229-0.062-0.358c-0.046-0.392-0.229-0.71-0.529-0.92
		c-0.057-0.04-0.121-0.061-0.188-0.07c-0.058-0.012-0.119-0.011-0.178,0.001l-0.53,0.115c-0.144,0.031-0.262,0.132-0.314,0.27
		l-0.27,0.701l-1.439-0.147c-0.034-0.099-0.05-0.216-0.05-0.35c0-0.443-0.195-0.826-0.563-1.107
		c-0.076-0.058-0.169-0.089-0.265-0.089h-0.021c-0.001,0-0.002-0.001-0.003-0.001h-0.599c-0.11,0-0.216,0.042-0.297,0.117
		c-0.331,0.308-0.451,0.714-0.348,1.176c0.002,0.01,0.004,0.018,0.006,0.026l-1.305-0.484c-0.071-0.027-0.147-0.034-0.222-0.021
		l-0.009,0.001c-0.005,0-0.009-0.002-0.014-0.001l-0.715,0.115c-0.106,0.017-0.202,0.073-0.27,0.156l-0.392,0.484
		c-0.077,0.097-0.111,0.221-0.092,0.343l0.07,0.438c0.028,0.173,0.157,0.314,0.329,0.355l2.654,0.648
		c0.125,0.238,0.203,0.495,0.229,0.766c0.021,0.222,0.079,0.437,0.168,0.643c-0.078-0.065-0.173-0.105-0.275-0.105
		c-0.006,0-0.009,0.001-0.016,0.001c-0.002,0-0.005-0.001-0.008-0.001c-0.271,0-0.508,0.052-0.701,0.155
		c-0.205,0.109-0.369,0.272-0.486,0.483c-0.054,0.096-0.07,0.208-0.044,0.314l0.097,0.409l-0.222,1.952
		c-0.007,0.066,0.001,0.134,0.023,0.196l0.078,0.222c-0.069,0.508-0.104,1.066-0.104,1.66c0,0.575-0.064,1.111-0.192,1.593
		c-0.016,0.058-0.019,0.119-0.009,0.178l0.208,1.337c0.018,0.116,0.081,0.219,0.176,0.288l0.329,0.237
		c-0.108,0.009-0.216,0.021-0.325,0.038c-0.355,0.055-0.624,0.275-0.756,0.62c-0.036,0.095-0.039,0.199-0.006,0.294l0.207,0.622
		c0.046,0.139,0.159,0.246,0.3,0.284c0.755,0.204,1.5,0.374,2.214,0.502c0.563,0.104,1.117,0.278,1.65,0.522l-0.016,0.083
		l-3.654,1.86l-0.413,0.001c0,0-0.03-0.015-0.076-0.092c-0.079-0.13-0.221-0.209-0.373-0.209c-0.006,0-0.009,0.002-0.016,0.002
		c-0.002,0-0.006-0.002-0.009-0.002c-0.378,0-0.696,0.103-0.946,0.306c-0.173,0.143-0.332,0.277-0.472,0.403
		c-0.094,0.083-0.147,0.202-0.147,0.327v0.53c0,0.146,0.073,0.282,0.194,0.363l0.415,0.277c0.081,0.054,0.18,0.076,0.27,0.073
		c0.005,0,0.011-0.001,0.017-0.002c0.003,0,0.005,0.002,0.007,0.002c0.993-0.063,1.941-0.275,2.82-0.63
		c0.792-0.32,1.575-0.694,2.331-1.113l0.209,1.225l-0.083,0.649c-0.007,0.058-0.004,0.117,0.013,0.173l0.416,1.498
		c0.053,0.189,0.225,0.32,0.42,0.32h0.024h0.368h0.023c0.129,0,0.25-0.057,0.333-0.154l0.507-0.6
		c0.094-0.113,0.126-0.265,0.085-0.405l-0.478-1.63l0.007-0.042c0.87,0.313,1.757,0.557,2.643,0.726
		c1.044,0.199,2.105,0.399,3.182,0.599c0.005,0.001,0.011-0.002,0.017-0.001c0.002,0,0.003,0,0.006,0.001
		c0.074,0.013,0.148,0.008,0.219-0.016l1.224-0.414c0.112-0.039,0.205-0.121,0.254-0.229c0.051-0.108,0.056-0.232,0.011-0.343
		L278.637,159.916z M271.683,147.744c0.194,0.044,0.38,0.127,0.555,0.25l0.264,1.24l-0.859-0.4l-0.109-0.172l0.024-0.096
		c0.015-0.064,0.017-0.13,0.003-0.194c-0.039-0.194-0.059-0.369-0.059-0.534c0-0.045-0.002-0.09-0.007-0.134
		C271.557,147.717,271.62,147.731,271.683,147.744z M271.481,150.845c0.058,0.041,0.125,0.063,0.194,0.071
		c0.038,0.007,0.077,0,0.117-0.003c0.016-0.002,0.033,0.002,0.049-0.002h0.001c0.007-0.001,0.014,0.001,0.02-0.001l0.806-0.207
		c0.047-0.012,0.09-0.036,0.129-0.062l0.018,0.883c-0.221-0.022-0.44-0.058-0.654-0.111c-0.28-0.07-0.542-0.172-0.784-0.304
		c-0.005-0.108-0.015-0.228-0.027-0.357L271.481,150.845z M269.388,154.377l0.061,0.159l-0.031,0.103
		c-0.436-0.063-0.843-0.156-1.213-0.28c-0.459-0.152-0.931-0.318-1.416-0.497l0.167-0.064c0.123-0.047,0.217-0.147,0.258-0.271
		l0.268-0.816c0.2,0.034,0.402,0.054,0.607,0.057c0.21,0.004,0.422-0.009,0.637-0.038c0.007,0,0.015,0,0.023,0
		c0.135-0.017,0.264-0.02,0.388-0.007c0.138,0.017,0.27,0.051,0.395,0.104l-0.17,1.341
		C269.353,154.237,269.362,154.311,269.388,154.377z M269.561,150.811c-0.012,0.007-0.023,0.016-0.034,0.024h-0.455
		c-0.158,0-0.298-0.039-0.428-0.12c-0.069-0.043-0.149-0.066-0.23-0.066c-0.006,0-0.012,0.002-0.019,0.002
		c-0.001,0-0.003-0.001-0.005-0.001c-0.038,0-0.076,0.004-0.112,0.014l-0.59,0.158l-0.214-0.038l-0.094-0.173l0.153-0.609h1.111
		c0.345,0,0.651,0.069,0.931,0.21c0.01,0.16,0.028,0.322,0.056,0.484C269.637,150.74,269.641,150.759,269.561,150.811z
		 M269.562,148.256l-1.838-0.274l0.177-0.771l0.213-0.136l1.692,0.259L269.562,148.256z M270.239,145.414
		c-0.159-0.014-0.343-0.01-0.506-0.024c0.025-0.057,0.039-0.118,0.039-0.18v-0.622c0-0.241-0.195-0.437-0.436-0.437l-0.392-0.348
		v-0.241c0.134,0.015,0.265,0.021,0.395,0.026c0.132,0.004,0.26,0.006,0.388,0.012c0.25,0.011,0.492,0.039,0.727,0.134
		L270.239,145.414z"/>
	<path fill="#030000" d="M306.092,149.391c-0.083-0.094-0.202-0.146-0.326-0.146h-0.047h-0.276h-0.046
		c-0.132,0-0.256,0.06-0.34,0.162l-0.345,0.427l-2.039-0.08l-0.017,0.002l-0.029-0.001l-0.665,0.078l-0.225-0.064
		c-0.065-0.02-0.134-0.021-0.198-0.01l-0.012,0.002c-0.011,0.001-0.022-0.004-0.035-0.002l-0.386,0.071l-0.466-0.12
		c-0.083-0.253-0.149-0.493-0.197-0.729c-0.07-0.331-0.196-0.642-0.376-0.925l0.042-0.309l0.453-0.249
		c0.444-0.326,0.71-0.719,0.794-1.171l0.183-1.009c0.094-0.492,0.056-0.921-0.117-1.277c-0.143-0.294-0.335-0.591-0.602-0.913
		c-0.369-0.369-0.78-0.668-1.218-0.887c-0.414-0.208-0.882-0.39-1.387-0.538c-0.041-0.012-0.082-0.018-0.123-0.018h-0.588
		c-0.002,0-0.002,0.001-0.004,0.001h-0.043c-0.321,0-0.607,0.116-0.826,0.334c-0.082,0.082-0.128,0.193-0.128,0.309v0.599
		c0,0.136,0.063,0.263,0.169,0.346l0.507,0.392c0.064,0.049,0.141,0.072,0.22,0.082c0.063,0.013,0.128,0.014,0.191-0.001
		l0.376-0.086l0.939,0.253l0.912,1.082c-0.017,0.223-0.068,0.435-0.157,0.644c-0.08,0.189-0.193,0.37-0.337,0.542l-0.828-0.155
		c-0.009-0.002-0.017,0.005-0.025,0.003l-0.021-0.004c-0.094-0.018-0.191-0.003-0.276,0.039l-0.599,0.3
		c-0.202,0.1-0.293,0.337-0.212,0.547c0.196,0.505,0.459,1.01,0.78,1.499c0.275,0.421,0.506,0.84,0.688,1.247v0.021l-5.462-0.757
		h-0.599c-0.002,0-0.003,0-0.003,0h-0.044c-0.135,0-0.262,0.063-0.345,0.169l-0.322,0.414c-0.096,0.123-0.119,0.289-0.059,0.433
		l0.207,0.507c0.057,0.139,0.18,0.239,0.329,0.266c1.142,0.2,2.341,0.354,3.565,0.454c1.107,0.091,2.195,0.226,3.234,0.401
		l0.421,1.208c0,0.903-0.021,1.787-0.057,2.625c-0.035,0.775-0.202,1.511-0.497,2.19c-0.346,0.361-0.63,0.772-0.845,1.227
		c-0.151,0.318-0.375,0.574-0.682,0.779l-0.473-0.052c-0.087-0.114-0.147-0.24-0.18-0.383c-0.078-0.349-0.257-0.665-0.531-0.938
		c-0.105-0.107-0.262-0.153-0.405-0.117l-0.004,0.001c-0.015,0.001-0.028-0.004-0.043-0.001l-0.507,0.115
		c-0.123,0.028-0.229,0.109-0.288,0.22c-0.061,0.112-0.068,0.244-0.022,0.363l0.507,1.314c0.02,0.05,0.048,0.097,0.085,0.137
		l0.713,0.784c0.083,0.091,0.2,0.143,0.323,0.143h0.047h0.991h0.046c0.477,0,0.908-0.169,1.282-0.503
		c0.023-0.021,0.045-0.045,0.064-0.071c0.603-0.842,1.1-1.736,1.478-2.658c0.384-0.938,0.62-1.948,0.7-3.003
		c0.002-0.034,0-0.068-0.005-0.102l-0.099-0.616l0.087-0.296c0.018-0.061,0.022-0.123,0.014-0.185l-0.289-2.027l0.033-0.184
		l2.875,0.081c0.004,0,0.007,0,0.011,0l0.036,0c0.033,0,0.068-0.002,0.102-0.009l0.362-0.076l1.01,0.083
		c0.007,0.001,0.013-0.002,0.019-0.001l0.028,0.001c0.059,0.008,0.117-0.001,0.173-0.02l0.277-0.092
		c0.11-0.037,0.201-0.115,0.252-0.219l0.22-0.441c0.132-0.313,0.104-0.644-0.08-0.933
		C306.359,149.719,306.23,149.546,306.092,149.391z"/>
</g>
</svg>
