<?xml version="1.0" encoding="utf-8"?>
<!-- Generator: Adobe Illustrator 15.0.0, SVG Export Plug-In . SVG Version: 6.00 Build 0)  -->
<!DOCTYPE svg PUBLIC "-//W3C//DTD SVG 1.1//EN" "http://www.w3.org/Graphics/SVG/1.1/DTD/svg11.dtd">
<svg version="1.1" id="レイヤー_1" xmlns="http://www.w3.org/2000/svg" xmlns:xlink="http://www.w3.org/1999/xlink" x="0px"
	 y="0px" width="430.5px" height="183.872px" viewBox="0 0 430.5 183.872" enable-background="new 0 0 430.5 183.872"
	 xml:space="preserve">
<g>
	<path d="M74.481,94.858c-2.375-0.838-6.448-1.563-12.449-2.215c-4.326-0.484-7.267-1.166-8.745-2.029
		c-2.01-1.147-2.985-2.492-2.985-4.108c0-1.432,0.827-2.73,2.532-3.974c2.418-1.767,5.912-2.661,10.386-2.661
		c4.285,0,7.755,0.884,10.304,2.625c1.627,1.132,2.5,2.511,2.67,4.192c0.086,1.1,0.422,1.938,1,2.492
		c0.586,0.561,1.314,0.846,2.163,0.846c0.928,0,1.735-0.344,2.336-0.993c0.595-0.646,0.884-1.587,0.884-2.88v-7.24
		c0-1.325-0.289-2.282-0.884-2.928c-0.6-0.65-1.406-0.993-2.336-0.993c-0.896,0-1.687,0.343-2.282,0.993
		c-0.257,0.275-0.455,0.604-0.6,0.989c-3.616-2.318-8.134-3.491-13.455-3.491c-5.101,0-9.563,1.125-13.265,3.342
		c-3.876,2.323-5.841,5.529-5.841,9.528c0,2.235,0.711,4.339,2.115,6.253c1.388,1.904,3.34,3.346,5.802,4.287
		c2.382,0.912,6.164,1.624,11.558,2.176c5.074,0.519,8.967,1.539,11.565,3.029c2.388,1.385,3.547,3.142,3.547,5.37
		c0,1.921-1.213,3.82-3.606,5.646c-2.48,1.891-6.39,2.851-11.624,2.851c-3.564,0-6.6-0.507-9.025-1.506
		c-2.368-0.975-4.103-2.199-5.158-3.648c-0.637-0.858-0.947-1.919-0.947-3.241c0-0.989-0.315-1.808-0.938-2.433
		c-0.615-0.612-1.403-0.937-2.282-0.937c-0.935,0-1.738,0.35-2.324,1.011c-0.566,0.64-0.843,1.576-0.843,2.86v8.699
		c0,1.294,0.289,2.236,0.883,2.877c0.6,0.65,1.391,0.994,2.284,0.994c0.651,0,1.246-0.179,1.768-0.529
		c0.529-0.353,0.909-0.802,1.127-1.345c0.054-0.136,0.111-0.32,0.159-0.614c4.181,2.754,9.365,4.147,15.449,4.147
		c6.885,0,12.217-1.49,15.847-4.434c3.696-2.996,5.57-6.495,5.57-10.398c0-2.639-0.878-5.121-2.607-7.381
		C80.522,97.859,77.917,96.101,74.481,94.858z"/>
	<path d="M125.459,119.586c6.593,0,12.23-2.276,16.757-6.767c4.528-4.492,6.822-9.979,6.822-16.311
		c0-3.984-1.018-7.837-3.023-11.446c-2.018-3.63-4.904-6.501-8.582-8.532c-3.66-2.021-7.707-3.048-12.022-3.048
		c-4.078,0-7.68,0.82-10.706,2.438c-2.282,1.222-4.475,2.915-6.537,5.047v-4.92c0-0.583-0.475-1.056-1.058-1.056h-9.904
		c-1.291,0-2.232,0.287-2.877,0.883c-0.651,0.599-0.995,1.39-0.995,2.285c0,0.928,0.344,1.735,0.994,2.335
		c0.645,0.595,1.585,0.884,2.878,0.884h4.624v52.332h-4.624c-1.283,0-2.219,0.275-2.86,0.841c-0.661,0.584-1.012,1.388-1.012,2.327
		c0,0.936,0.35,1.739,1.012,2.326c0.644,0.567,1.579,0.842,2.86,0.842h20.161c1.294,0,2.233-0.289,2.877-0.884
		c0.649-0.598,0.994-1.388,0.994-2.284c0-0.939-0.351-1.743-1.009-2.324c-0.642-0.568-1.577-0.844-2.862-0.844h-9.199v-21.502
		C112.78,117.106,118.584,119.586,125.459,119.586z M108.167,96.509c0-4.572,1.638-8.404,5.011-11.713
		c3.333-3.268,7.465-4.925,12.281-4.925c4.851,0,8.844,1.603,12.207,4.901c3.355,3.292,4.985,7.131,4.985,11.736
		c0,4.639-1.639,8.494-5.011,11.787c-3.379,3.299-7.364,4.903-12.182,4.903c-4.819,0-8.95-1.658-12.281-4.925
		C109.805,104.964,108.167,101.116,108.167,96.509z"/>
	<path d="M182.771,122.301c6.761,0,12.618-2.403,17.41-7.142c4.795-4.744,7.228-10.545,7.228-17.242
		c0-6.73-2.433-12.548-7.228-17.292c-4.793-4.738-10.65-7.142-17.41-7.142c-6.828,0-12.71,2.412-17.485,7.171
		c-4.778,4.759-7.199,10.566-7.199,17.263c0,6.663,2.421,12.454,7.199,17.213C170.063,119.889,175.946,122.301,182.771,122.301z
		 M164.427,97.917c0-5.015,1.746-9.186,5.34-12.747c3.549-3.517,7.908-5.299,12.957-5.299s9.409,1.774,12.957,5.276
		c3.543,3.495,5.34,7.792,5.34,12.77c0,5.015-1.748,9.184-5.342,12.747c-3.548,3.517-7.906,5.301-12.955,5.301
		c-5.048,0-9.406-1.791-12.954-5.323C166.173,107.063,164.427,102.9,164.427,97.917z"/>
	<path d="M242.497,122.301c6.762,0,12.619-2.403,17.41-7.142c4.795-4.744,7.227-10.545,7.227-17.242
		c0-6.73-2.432-12.548-7.227-17.292c-4.795-4.738-10.651-7.142-17.41-7.142c-6.827,0-12.71,2.412-17.486,7.171
		s-7.197,10.566-7.197,17.263c0,6.663,2.421,12.454,7.197,17.213C229.789,119.889,235.673,122.301,242.497,122.301z M242.448,79.871
		c5.05,0,9.41,1.774,12.959,5.276c3.542,3.495,5.338,7.792,5.338,12.77c0,5.015-1.746,9.184-5.34,12.747
		c-3.549,3.517-7.907,5.301-12.957,5.301c-5.046,0-9.406-1.791-12.954-5.323c-3.595-3.579-5.343-7.741-5.343-12.725
		c0-5.015,1.748-9.186,5.341-12.747C233.042,81.653,237.399,79.871,242.448,79.871z"/>
	<path d="M279.552,120.642h13.777c1.293,0,2.235-0.289,2.876-0.884c0.65-0.601,0.996-1.391,0.996-2.284
		c0-0.935-0.351-1.738-1.014-2.325c-0.641-0.567-1.576-0.843-2.858-0.843h-3.721V89.258c3.564-4.17,6.324-6.804,8.199-7.833
		c1.877-1.031,4.141-1.554,6.729-1.554c3.404,0,6.027,0.916,8.021,2.802c1.978,1.869,2.938,4.093,2.938,6.798v24.835h-2.462
		c-1.317,0-2.27,0.275-2.917,0.845c-0.657,0.587-1.008,1.39-1.008,2.323c0,0.892,0.344,1.682,0.994,2.284
		c0.644,0.596,1.603,0.884,2.931,0.884h11.312c1.294,0,2.235-0.288,2.881-0.885c0.648-0.601,0.993-1.391,0.993-2.283
		c0-0.935-0.351-1.738-1.013-2.328c-0.643-0.564-1.578-0.84-2.861-0.84h-2.513V88.769c0-2.646-0.828-5.251-2.46-7.743
		c-1.616-2.47-3.463-4.271-5.5-5.362c-2.792-1.446-5.915-2.181-9.285-2.181c-3.126,0-5.987,0.611-8.499,1.813
		c-1.975,0.945-4.148,2.505-6.48,4.647v-3.896c0-0.583-0.474-1.056-1.058-1.056h-7.793c-1.29,0-2.232,0.287-2.878,0.883
		c-0.651,0.599-0.993,1.39-0.993,2.285c0,0.928,0.342,1.735,0.993,2.335c0.646,0.595,1.585,0.884,2.878,0.884h2.512v32.927h-3.718
		c-1.283,0-2.22,0.275-2.863,0.844c-0.66,0.586-1.008,1.39-1.008,2.324c0,0.893,0.341,1.683,0.992,2.284
		C277.316,120.354,278.258,120.642,279.552,120.642z"/>
	<path d="M78.067,135.695H2.849c-0.782,0-1.42,0.637-1.42,1.419c0,0.783,0.638,1.42,1.42,1.42h75.219
		c0.785,0,1.422-0.637,1.422-1.42C79.489,136.332,78.853,135.695,78.067,135.695z"/>
	<g>
		<path d="M427.732,134.375H372.69c-0.676-24.452-1.784-63.408-2.053-72.825c3.749-1.365,7.982-3.022,12.576-10.414
			c4.759-7.653,2.852-20.762,1.291-27.893c-2.03-9.285-9.506-23.137-21.778-23.241L362.605,0c-11.081,0-19.703,14.135-22.04,23.688
			c-2.554,10.43-1.643,21.729,2.32,28.79c2.868,5.114,8.271,7.87,11.537,9.136l-0.016,0.789
			c-0.761,31.849-1.323,56.063-1.672,71.993H138.606c-1.527,0-2.768,1.24-2.768,2.766s1.24,2.767,2.768,2.767h215.138
			c1.238,0,2.233-0.444,3.228-1.439c0.938-0.936,1.191-2.364,1.259-3.031c0.013-0.046,0.018-0.093,0.02-0.143
			c0.435-19.917,1.196-52.319,1.756-75.597c0.028-1.277-0.813-2.402-2.039-2.733c-0.3-0.086-7.395-2.116-10.253-7.214
			c-3.313-5.901-4.012-15.623-1.775-24.768c1.946-7.957,9.002-19.47,16.736-19.47c8.973,0.077,14.838,11.629,16.426,18.891
			c2.349,10.743,2.137,19.414-0.587,23.791c-3.682,5.924-6.753,7.039-10.006,8.221c-0.58,0.211-1.152,0.421-1.722,0.649
			c-1.07,0.43-1.769,1.492-1.735,2.645l0.062,2.241c0.278,9.732,1.393,48.847,2.061,73.067c-0.002,0.028-0.002,0.06,0,0.09
			l0.008,0.171c0,0.065,0.01,0.13,0.028,0.191c0.087,0.699,0.377,2.173,1.276,3.07c1.237,1.242,2.204,1.349,3.087,1.349h56.16
			c1.526,0,2.768-1.242,2.768-2.768S429.259,134.375,427.732,134.375z"/>
		<path d="M78.067,134.267H2.849c-1.571,0-2.849,1.279-2.849,2.848c0,1.571,1.277,2.85,2.849,2.85h75.219
			c1.571,0,2.851-1.278,2.851-2.85C80.918,135.546,79.639,134.267,78.067,134.267z"/>
	</g>
	<path d="M99.946,163.811l1.02,0.563l0.309,0.613c0.029,0.062,0.073,0.117,0.127,0.16l1.503,1.241
		c0.091,0.077,0.202,0.114,0.313,0.114c0.095,0,0.188-0.025,0.271-0.08l0.398-0.261l0.354-0.232c0.139-0.09,0.223-0.245,0.223-0.411
		v-0.637c0-0.142-0.063-0.277-0.171-0.372c-0.56-0.483-1.046-0.971-1.45-1.449c-0.21-0.247-0.445-0.486-0.694-0.716
		c-0.286-0.263-0.592-0.517-0.926-0.755c-0.072-0.051-0.155-0.08-0.239-0.088c-0.085-0.01-0.171,0.004-0.251,0.04l-0.838,0.375
		c-0.191,0.086-0.308,0.284-0.289,0.494l0,0c0,0.002,0,0.002,0,0.002l0.087,1.009C99.707,163.585,99.802,163.73,99.946,163.811z"/>
	<path d="M113.145,162.497c-0.064-0.234-0.292-0.392-0.531-0.358l-1.011,0.114c-0.2,0.021-0.366,0.164-0.419,0.357l-0.492,1.764
		c-0.012,0.042-0.02,0.087-0.02,0.132c0,0.421,0.022,0.834,0.062,1.233c0.05,0.509,0.25,0.827,0.458,1.023
		c0.07,0.065,0.142,0.118,0.206,0.157c0.079,0.05,0.17,0.075,0.26,0.075c0.049,0,0.097-0.009,0.146-0.022l0.752-0.23
		c0.083-0.028,0.159-0.076,0.217-0.14c0.037-0.039,0.055-0.095,0.076-0.145c0.013-0.028,0.035-0.05,0.044-0.084l0,0c0,0,0,0,0-0.001
		c0.021-0.097,0.024-0.201,0.039-0.299c0.023-0.156,0.052-0.307,0.062-0.473c0.014-0.27,0.007-0.55-0.021-0.838
		c-0.034-0.376,0.062-0.684,0.278-0.939c0.008-0.008,0.011-0.021,0.018-0.031c0.017-0.017,0.021-0.041,0.032-0.061
		c0.033-0.05,0.067-0.097,0.081-0.152c0.02-0.082,0.019-0.165-0.006-0.245L113.145,162.497z"/>
	<path d="M136.797,176.854c-0.105-0.178-0.312-0.271-0.512-0.232l-0.009,0.002c-0.01,0.001-0.015-0.003-0.021-0.003l-0.535,0.098
		c-0.407-0.069-0.83-0.123-1.27-0.16c-0.319-0.027-0.625-0.091-0.912-0.19l-0.565-2.8l0.052-0.36l0.191-0.041
		c0.205-0.045,0.361-0.221,0.382-0.432l0.061-0.587l2.051,0.395h0.028h0.491h0.019h0.011c0.04,0,0.078-0.016,0.118-0.026
		c0.021-0.007,0.046-0.007,0.065-0.016c0.056-0.021,0.103-0.057,0.147-0.097c0.003-0.003,0.006-0.006,0.008-0.009
		c0.012-0.008,0.026-0.014,0.035-0.024c0.032-0.037,0.049-0.082,0.068-0.125c0-0.003,0.003-0.004,0.003-0.006
		c0.024-0.06,0.036-0.121,0.038-0.187c0-0.002,0.001-0.003,0.001-0.006c0,0,0,0,0-0.001c-0.001-0.023,0.007-0.049,0.003-0.072
		l-0.115-0.753c-0.024-0.153-0.118-0.286-0.256-0.358c-1.177-0.628-2.486-0.988-3.888-1.071c-1.286-0.071-2.508-0.313-3.665-0.73
		c-0.143-0.042-0.271-0.056-0.388-0.056c-0.341-0.01-0.583,0.117-0.705,0.239l-0.462,0.462c-0.092,0.091-0.146,0.217-0.146,0.348
		v0.348c0,0.13,0.054,0.255,0.146,0.349c0.486,0.487,1.083,0.814,1.771,0.971c0.501,0.112,1.002,0.207,1.491,0.278
		c0.108,0.535,0.177,1.074,0.209,1.608c0.036,0.684,0.189,1.368,0.451,2.036l-0.073,0.633l-0.967-0.149
		c-0.007,0-0.013,0.003-0.017,0.002l-0.015-0.002c-0.075-0.014-0.155-0.005-0.229,0.017l-1.154,0.379
		c-0.243,0.077-0.387,0.331-0.328,0.578l0.145,0.636c0.025,0.111,0.089,0.209,0.179,0.279c0.501,0.387,1.094,0.61,1.763,0.665
		c0.573,0.049,1.152,0.11,1.744,0.186c0.02,0.003,0.041,0.004,0.062,0.004c0.034,0,0.069-0.008,0.104-0.015
		c0.023-0.004,0.046,0,0.069-0.006l0.282-0.085l1.532,0.104c0.005,0,0.011-0.001,0.019-0.001l0.012,0.001
		c0.012,0,0.022,0.001,0.033,0.001c0.03,0,0.059-0.002,0.087-0.007c0.397-0.072,0.814-0.108,1.242-0.108
		c0.546,0,1.034-0.116,1.453-0.351c0.118-0.064,0.204-0.175,0.239-0.303c0.032-0.13,0.014-0.267-0.053-0.382L136.797,176.854z"/>
	<path d="M165.611,168.038c-0.037-0.038-0.08-0.069-0.128-0.096c-1.298-0.689-2.678-1.231-4.104-1.615
		c-1.372-0.367-2.742-0.806-4.074-1.301c-0.065-0.023-0.132-0.028-0.198-0.026c-0.065-0.005-0.131,0-0.191,0.021
		c-0.121,0.04-0.26,0.063-0.406,0.063c-0.198,0-0.679,0.069-0.912,0.732c-0.035,0.097-0.039,0.202-0.01,0.303l0.26,0.895
		c0.053,0.18,0.2,0.315,0.384,0.348c1.229,0.226,2.47,0.515,3.686,0.857c1.175,0.328,2.347,0.739,3.484,1.221
		c0.217,0.193,0.354,0.411,0.42,0.665c0.087,0.345,0.165,0.673,0.237,0.992l-0.106,1.046c-0.005,0.066,0,0.132,0.02,0.194
		l0.076,0.251c-0.257,1.118-0.585,2.208-0.978,3.246c-0.396,1.051-0.924,2.021-1.519,2.831l-0.784,0.78
		c-0.067,0.069-0.147,0.11-0.242,0.129c-0.082,0.011-0.168,0.014-0.27-0.004c-0.004-0.001-0.008,0.001-0.015,0.001
		c-0.016-0.002-0.027,0.003-0.045,0c-0.186-0.039-0.374,0.039-0.485,0.19l-0.492,0.666c-0.115,0.158-0.129,0.373-0.028,0.543
		l0.493,0.837c0.063,0.106,0.164,0.188,0.285,0.222c0.146,0.045,0.292,0.067,0.431,0.067c0,0,0,0,0.001,0
		c0.008,0,0.017-0.006,0.025-0.006c0.011,0,0.022,0.006,0.033,0.006c0.328,0,0.629-0.122,0.873-0.356
		c0.167-0.158,0.337-0.264,0.509-0.316c0.083-0.025,0.159-0.071,0.218-0.134c1.309-1.388,2.303-2.912,2.959-4.533
		c0.645-1.591,1.141-3.27,1.475-4.989c0.009-0.056,0.011-0.114,0.002-0.171c-0.093-0.571-0.14-1.145-0.14-1.701
		C166.354,169.181,166.104,168.555,165.611,168.038z"/>
	<path d="M196.957,170.24c-0.05-0.119-0.147-0.217-0.269-0.266l-0.635-0.26c-0.071-0.031-0.149-0.039-0.228-0.036l-0.056,0.005
		c-0.011,0-0.022-0.005-0.033-0.005l-4.133,0.334l-0.242-0.061c-0.061-0.015-0.126-0.018-0.186-0.009l-0.026,0.002
		c-0.021,0-0.042-0.005-0.066-0.002l-0.542,0.071l-0.784-0.074c-0.025-0.003-0.048,0-0.072,0.003l-0.018-0.003
		c-0.038-0.004-0.08-0.003-0.118,0.003l-3.216,0.467l-0.763-0.223c-0.083-0.021-0.169-0.024-0.25-0.006l-0.006,0.003
		c-0.027,0-0.057-0.011-0.084-0.003l-0.397,0.096l-1.597-0.104l-0.026,0.003l-0.063-0.006l-2.084,0.239l-0.209-0.088
		c-0.062-0.026-0.125-0.038-0.19-0.038h-1.07c-0.004,0-0.005,0.001-0.008,0.001h-0.082c-0.578,0-1.025,0.289-1.259,0.812
		c-0.044,0.098-0.056,0.206-0.029,0.312l0.229,1.012c0.053,0.227,0.254,0.382,0.481,0.382c0.014,0,0.024,0,0.038,0l0.028-0.003
		c0.009,0,0.014,0.003,0.022,0.003c0.014,0,0.025,0,0.039,0l3.188-0.257l1.829,0.112c0.006,0.002,0.014-0.003,0.02-0.003
		l0.067,0.003c0.086,0.006,0.175-0.011,0.253-0.052l0.104-0.051l1.633,0.103c0.008-0.003,0.016-0.003,0.027-0.005l0.058,0.005
		c0.764-0.081,1.539-0.184,2.301-0.309c0.685-0.113,1.41-0.171,2.16-0.179l0.442,0.123c0.062,0.017,0.127,0.022,0.192,0.014
		l0.032-0.002c0.021,0,0.039,0.005,0.059,0.002l1.011-0.137l2.568,0.14c0.013,0.002,0.023-0.003,0.035-0.003l0.055,0.003
		c0.047,0.003,0.089,0,0.136-0.011l1.155-0.259c0.146-0.033,0.271-0.134,0.337-0.267l0.375-0.782
		c0.061-0.128,0.063-0.275,0.011-0.404L196.957,170.24z"/>
	<path d="M221.726,170.135l-0.782-0.519c-0.091-0.063-0.2-0.076-0.309-0.068c-0.092-0.015-0.184-0.013-0.272,0.025l-0.174,0.072
		c-0.983-0.173-1.943-0.448-2.856-0.827c-0.878-0.363-1.737-0.796-2.558-1.287c0.232-1.152,0.504-2.295,0.808-3.4
		c0.327-1.188,0.786-2.368,1.367-3.505c0.089-0.174,0.065-0.384-0.058-0.534l-0.636-0.781c-0.125-0.154-0.333-0.217-0.521-0.161
		h-0.004c-0.041,0.002-0.077-0.012-0.116,0l-0.492,0.145c-0.154,0.045-0.277,0.165-0.327,0.319
		c-0.771,2.364-1.481,4.765-2.119,7.135c-0.637,2.375-1.128,4.866-1.458,7.431c-0.101,1.308-0.041,2.589,0.178,3.81
		c0.218,1.201,0.461,2.409,0.726,3.591c0.024,0.104,0.081,0.198,0.16,0.266l0.867,0.75c0.091,0.077,0.205,0.122,0.323,0.122
		c0.021,0,0.04-0.011,0.062-0.011c0.019,0.003,0.037,0.011,0.057,0.011c0.208,0,0.409-0.035,0.601-0.104
		c0.25-0.088,0.455-0.276,0.61-0.556c0.071-0.125,0.082-0.275,0.032-0.412c-0.272-0.736-0.579-1.517-0.918-2.343
		c-0.316-0.767-0.514-1.551-0.584-2.31c-0.076-1.329-0.033-2.626,0.127-3.854c0.138-1.062,0.367-2.103,0.683-3.104
		c0.817,0.205,1.618,0.461,2.384,0.768c0.988,0.396,2.065,0.688,3.275,0.873h0.12h0.734h0.116c0.406,0,0.773-0.12,1.091-0.357
		c0.167-0.125,0.236-0.341,0.177-0.539l-0.116-0.377C221.89,170.293,221.819,170.198,221.726,170.135z"/>
	<path d="M105.004,170.656c0.03,0.005,0.061,0.008,0.092,0.008h0.001l0,0c0.04,0,0.077-0.01,0.115-0.021
		c0.017-0.003,0.033-0.003,0.05-0.008h0.001h0.001l0.12-0.044l0.283-0.102c0.196-0.069,0.328-0.255,0.328-0.464v-0.751
		c0-0.192-0.11-0.364-0.283-0.446c-0.365-0.172-0.735-0.318-1.109-0.439c-0.373-0.12-0.75-0.213-1.125-0.28
		c-0.688-0.12-1.347-0.303-1.961-0.537c-0.057-0.023-0.117-0.034-0.177-0.034c-0.362,0-0.74,0.021-1.135,0.06
		c-0.652,0.068-1.001,0.387-1.179,0.646c-0.057,0.08-0.088,0.179-0.088,0.28v0.606c0,0.233,0.164,0.434,0.393,0.48
		c0.931,0.195,1.88,0.375,2.852,0.542C103.144,170.315,104.084,170.483,105.004,170.656z"/>
	<path d="M109.61,162.64c0.017-0.05,0.025-0.103,0.025-0.156l0,0v-0.492c0-0.094-0.026-0.184-0.073-0.26
		c-0.005-0.004-0.012-0.007-0.015-0.012c-0.047-0.07-0.107-0.132-0.185-0.17l-0.521-0.26c-0.068-0.034-0.145-0.053-0.221-0.053
		h-0.635c-0.08,0-0.161,0.021-0.231,0.059c-0.232,0.122-0.411,0.285-0.538,0.476c-0.006,0.009-0.016,0.015-0.021,0.022
		c-0.128,0.201-0.195,0.434-0.195,0.689c0,0.03-0.01,0.062-0.01,0.092c-0.007,0.259-0.032,0.519-0.093,0.776
		c-0.015,0.062-0.015,0.125-0.006,0.187c0.001,0.004-0.001,0.008,0,0.011l0,0c0,0.001,0,0.003,0,0.003
		c0.071,0.412,0.108,0.856,0.108,1.315c0,0.286,0.052,0.542,0.141,0.774c0.012,0.029,0.017,0.063,0.028,0.091
		c0.009,0.019,0.021,0.033,0.029,0.051c0.111,0.232,0.267,0.438,0.474,0.607c0.089,0.073,0.199,0.111,0.313,0.111
		c0.036,0,0.072-0.003,0.108-0.011l1.156-0.261c0.167-0.038,0.299-0.159,0.355-0.315c0.019-0.053,0.028-0.108,0.028-0.167
		c0-0.262-0.01-0.505-0.024-0.737c-0.01-0.154-0.02-0.308-0.037-0.448c-0.023-0.204-0.078-0.412-0.146-0.621
		c-0.039-0.121-0.076-0.241-0.129-0.361l0.208-0.628L109.61,162.64z"/>
	<path d="M111.769,170.296l-0.49-0.114c-0.129-0.029-0.265-0.008-0.376,0.064l-0.637,0.403c-0.05,0.033-0.095,0.073-0.131,0.122
		l-0.206,0.275l-3.453,2.235c-0.037,0.022-0.069,0.053-0.099,0.084c-0.2,0.225-0.418,0.423-0.632,0.63
		c-0.129,0.125-0.25,0.264-0.385,0.383c-0.352,0.313-0.717,0.602-1.094,0.865c-0.835,0.578-1.575,1.312-2.199,2.181
		c-0.027,0.038-0.049,0.08-0.066,0.125c-0.034,0.097-0.039,0.175-0.054,0.26c-0.076,0.457,0.11,0.733,0.258,0.859
		c0.12,0.102,0.247,0.229,0.385,0.386c0.093,0.104,0.228,0.164,0.368,0.164h0.664l0,0c0.205,0,0.388-0.126,0.461-0.315
		c0.112-0.289,0.281-0.569,0.497-0.836c0.169-0.212,0.361-0.418,0.591-0.612c0.17-0.146,0.319-0.278,0.477-0.417
		c0.228-0.201,0.44-0.39,0.637-0.572c0.143-0.13,0.294-0.267,0.419-0.387l5.26-4.132c0.118-0.094,0.188-0.236,0.188-0.389l0,0
		v-0.781C112.151,170.547,111.992,170.349,111.769,170.296z"/>
	<path d="M156.128,162.017c1.007,0.158,1.931,0.573,2.745,1.227c0.935,0.754,1.95,1.279,3.015,1.565
		c0.042,0.011,0.084,0.018,0.128,0.018c0.008,0,0.018-0.004,0.028-0.004s0.021,0.004,0.029,0.004c0.048,0,0.096-0.007,0.14-0.021
		l0.492-0.144c0.133-0.041,0.244-0.135,0.303-0.26c0.062-0.125,0.066-0.27,0.017-0.397l-0.347-0.866
		c-0.048-0.118-0.14-0.216-0.257-0.267c-0.897-0.403-1.72-0.914-2.444-1.521c-0.792-0.661-1.681-1.218-2.64-1.657
		c-0.063-0.029-0.133-0.044-0.205-0.044c-0.015,0-0.028,0.002-0.042,0.002c-0.005,0-0.011-0.002-0.017-0.002
		c-0.317,0-0.614,0.056-0.878,0.164c-0.236,0.094-0.554,0.308-0.737,0.786c-0.045,0.114-0.045,0.239,0,0.354l0.288,0.753
		C155.809,161.872,155.954,161.99,156.128,162.017z"/>
	<path d="M247.066,173.228c-0.57-0.32-1.106-0.738-1.59-1.241c-0.122-0.127-0.302-0.178-0.474-0.136l-0.939,0.233
		c-0.061,0.017-0.114,0.042-0.163,0.075c-0.145,0.102-0.229,0.277-0.207,0.462l0.117,1.007l-0.623,1.766
		c-0.637-0.397-1.23-0.888-1.77-1.463c-0.57-0.609-1.198-1.195-1.87-1.749c0.11-0.248,0.224-0.485,0.344-0.715
		c0.145-0.272,0.339-0.483,0.596-0.646c0.049-0.029,0.093-0.069,0.128-0.116l0.848-1.104c0.354-0.313,0.724-0.601,1.104-0.862
		c0.009-0.005,0.018-0.008,0.027-0.015c0.371-0.254,0.755-0.482,1.147-0.681c0.39-0.195,0.792-0.369,1.203-0.522
		c0.012-0.006,0.025-0.013,0.039-0.018c0.427-0.157,0.858-0.288,1.297-0.396c0.063-0.016,0.119-0.045,0.173-0.084
		c0.046-0.033,0.087-0.072,0.119-0.122l0.313-0.469c0.035-0.055,0.042-0.115,0.055-0.177c0.007-0.03,0.027-0.056,0.027-0.086
		c0.002-0.092-0.021-0.185-0.07-0.268l-0.384-0.631l-0.293-0.486c-0.024-0.041-0.055-0.076-0.088-0.108
		c-0.979-0.904-2.068-1.508-3.237-1.797c-1.108-0.272-2.305-0.481-3.553-0.623c-0.042-0.006-0.085-0.003-0.126,0.003
		c-0.001,0-0.004,0-0.006,0l-0.095,0.016l-0.531,0.082l-1.795-0.102c-0.035-0.002-0.069-0.002-0.104,0.004l-0.079,0.014l-0.522,0.08
		l-0.521-0.08l-0.079-0.014c0,0,0,0-0.001,0c-0.094-0.014-0.188,0-0.275,0.038l-2.058,0.909c-0.094,0.042-0.175,0.114-0.228,0.207
		L232.01,165c-0.043,0.076-0.065,0.159-0.065,0.246c0,0.333,0.02,0.658,0.057,0.979c0.028,0.256,0.108,0.482,0.21,0.692
		c0.055,0.11,0.107,0.225,0.18,0.319c0.605,0.925,1.324,1.831,2.138,2.687c0.728,0.766,1.489,1.544,2.27,2.313
		c-0.213,0.657-0.432,1.302-0.657,1.934c-0.132,0.372-0.254,0.751-0.361,1.137c-0.067,0.245-0.122,0.494-0.179,0.745
		c-0.034,0.142-0.074,0.281-0.104,0.424c-0.007,0.032-0.011,0.065-0.011,0.099c0,0.171,0.011,0.338,0.033,0.502
		c0.015,0.102,0.039,0.2,0.061,0.301c0.015,0.06,0.023,0.122,0.039,0.182c0.037,0.131,0.087,0.256,0.137,0.381
		c0.012,0.027,0.017,0.055,0.028,0.081c0.066,0.149,0.144,0.298,0.231,0.439c0.294,0.48,0.56,0.981,0.79,1.496
		c0.032,0.067,0.078,0.129,0.137,0.178c0.342,0.281,0.696,0.484,1.051,0.605c0.319,0.11,0.681,0.209,1.081,0.302
		c0.036,0.008,0.072,0.011,0.108,0.011l0,0c0.024,0,0.048,0,0.07-0.004c0.305-0.044,0.602-0.118,0.894-0.211
		c0.026-0.008,0.051-0.009,0.076-0.019c0.315-0.104,0.62-0.238,0.917-0.399c0.543-0.298,1.077-0.604,1.605-0.922
		c0.047-0.027,0.09-0.064,0.126-0.108l0.905-1.091l2.289,1.019c0.064,0.029,0.132,0.045,0.2,0.045h0.676h0.003
		c0.006-0.002,0.014-0.003,0.02,0c0.272,0,0.492-0.223,0.492-0.496c0-0.053-0.027-0.094-0.042-0.141
		c-0.002-0.003,0-0.006-0.002-0.009l-0.022-0.073c-0.008-0.016-0.005-0.035-0.018-0.05l-0.099-0.313l-0.096-0.292
		c0-0.002-0.001-0.003-0.002-0.005c-0.033-0.104-0.104-0.192-0.194-0.254c-0.003-0.001-0.003-0.004-0.005-0.005l-1.935-1.255
		l0.219-0.488l0.284-0.631l0.237,0.263c0.046,0.058,0.104,0.103,0.171,0.133l1.224,0.573c0.118,0.056,0.252,0.063,0.376,0.019
		l0.938-0.338c0.194-0.069,0.324-0.257,0.324-0.465v-0.442c0-0.094-0.024-0.184-0.074-0.264
		C248.316,174.153,247.754,173.613,247.066,173.228z M235.786,168.221c-0.668-0.734-1.231-1.508-1.684-2.306l0.352-0.874
		c0.095-0.104,0.191-0.18,0.291-0.249c0.111-0.077,0.228-0.13,0.348-0.164c0.024-0.008,0.049-0.024,0.073-0.031
		c0.365-0.074,0.728-0.152,1.091-0.234l2.324,0.127h0.002c0.061,0.003,0.112-0.004,0.165-0.02l0.19-0.056l0.186-0.055
		c0.928,0.004,1.855,0.102,2.76,0.291c0.271,0.056,0.528,0.153,0.783,0.253c0.411,0.161,0.807,0.359,1.168,0.629l-1.009,0.427
		c-1.033,0.563-1.978,1.306-2.81,2.209c-0.345,0.376-0.679,0.76-1.004,1.149c-0.028,0.03-0.056,0.061-0.082,0.092
		c-0.13,0.155-0.249,0.313-0.374,0.472c-0.217,0.27-0.438,0.537-0.646,0.812l-0.032-0.015c-0.282-0.351-0.574-0.703-0.871-1.055
		C236.609,169.15,236.202,168.682,235.786,168.221z M241.528,177.602l-1.104,0.83l-0.926,0.356l-1.032-0.294
		c-0.188-0.149-0.33-0.339-0.431-0.577c-0.136-0.318-0.275-0.614-0.417-0.889c0-0.027,0.006-0.052,0.009-0.08
		c0.015-0.575,0.101-1.134,0.258-1.666c0.125-0.42,0.273-0.838,0.445-1.251l1.771,1.442l1.771,1.442L241.528,177.602z"/>
	<path d="M265.787,172.153c0.005,0,0.01,0,0.015,0c0.273,0,0.494-0.22,0.494-0.491c0-0.073-0.015-0.14-0.042-0.201
		c-0.03-0.191-0.088-0.373-0.14-0.557c-0.028-0.094-0.041-0.192-0.072-0.282c-0.104-0.295-0.233-0.579-0.397-0.848
		c-0.276-0.446-0.479-0.961-0.604-1.527c-0.034-0.156-0.143-0.287-0.29-0.348l-0.495-0.209c-0.131-0.056-0.283-0.051-0.411,0.014
		l-0.677,0.339c-0.167,0.083-0.273,0.253-0.273,0.44c0,0.353,0.093,0.687,0.229,1.009c0.046,0.108,0.076,0.22,0.138,0.323
		c0.139,0.236,0.176,0.52,0.109,0.87c-0.011,0.06-0.011,0.118,0,0.176c0.015,0.085,0.059,0.161,0.112,0.227
		c0.019,0.021,0.032,0.046,0.055,0.063c0.003,0.005,0.008,0.005,0.015,0.008c0.038,0.034,0.084,0.062,0.136,0.08l0.261,0.095
		c0.03,0.121,0.104,0.229,0.209,0.298l0.678,0.444c0.08,0.051,0.175,0.08,0.271,0.08h0.676
		C265.784,172.155,265.785,172.153,265.787,172.153z"/>
	<path d="M285.268,179.56c-0.087-0.149-0.249-0.241-0.424-0.241c-0.406,0-0.754,0.089-1.07,0.224
		c-0.108,0.046-0.228,0.076-0.325,0.138c-0.232,0.147-0.499,0.259-0.789,0.334c-0.564-0.082-1.095-0.173-1.586-0.269
		c-0.43-0.085-0.837-0.327-1.219-0.725c-0.278-0.278-0.548-0.587-0.805-0.918c-0.191-0.247-0.322-0.497-0.389-0.745l0.432-0.306
		c0.038-0.024,0.073-0.053,0.103-0.087l0.679-0.756c0.094-0.104,0.137-0.245,0.122-0.384l-0.104-0.937
		c-0.016-0.14-0.091-0.268-0.205-0.349c-0.095-0.068-0.213-0.103-0.325-0.089c0.02-0.017,0.039-0.034,0.058-0.053
		c0.471-0.496,0.71-1.074,0.71-1.722c0-0.378,0.04-0.737,0.12-1.07l0.678-0.222l0.522,0.079c0.445,0.105,0.862,0.011,1.205-0.267
		c0.179-0.145,0.359-0.254,0.537-0.322c0,0,0.003-0.003,0.006-0.003h0.001c0.014-0.006,0.021-0.017,0.035-0.022
		c0.209-0.103,0.325-0.336,0.264-0.565l-0.209-0.782c-0.065-0.243-0.296-0.402-0.55-0.36l-1.324,0.201l-0.831-0.065
		c-0.045-0.191-0.144-0.321-0.224-0.401l-0.375-0.375c-0.063-0.064-0.141-0.107-0.226-0.129c-0.03-0.009-0.065,0.002-0.101,0.001
		c-0.053-0.001-0.104-0.013-0.16,0.001l-0.365,0.106c-0.111,0.031-0.208,0.102-0.273,0.199l-0.531,0.798
		c-0.375,0.005-0.753,0.022-1.126,0.051c-0.093,0.009-0.181,0.003-0.27-0.004c-0.133-0.011-0.261-0.032-0.38-0.075l0.417-0.341
		c0.153-0.118,0.216-0.314,0.174-0.498c-0.002-0.002,0.001-0.008,0.001-0.014c0.09,0.04,0.191,0.041,0.289,0.022
		c0.034-0.006,0.069-0.006,0.104-0.02l1.043-0.442c0.212-0.092,0.333-0.317,0.291-0.546l-0.348-1.835l0.164-0.874l0.623-0.208
		c0.38,0.064,0.748,0.159,1.098,0.284c0.466,0.165,0.961,0.25,1.466,0.25c0.073,0,0.146-0.017,0.211-0.047l0.937-0.443
		c0.235-0.11,0.344-0.383,0.25-0.625l-0.063-0.168l-0.066-0.169c-0.041-0.108-0.117-0.196-0.218-0.252
		c-0.749-0.423-1.575-0.638-2.456-0.638c-0.601,0-1.147-0.116-1.665-0.353l0.069-0.398c0.007-0.044,0.008-0.089,0.004-0.134
		l-0.129-1.276c-0.018-0.152-0.102-0.289-0.233-0.369l-0.296-0.183l-0.041-0.026l0,0h-0.001c-0.01-0.006-0.021-0.006-0.03-0.012
		c-0.04-0.021-0.08-0.042-0.125-0.05c-0.052-0.013-0.105-0.014-0.158-0.007c-0.005,0.001-0.007-0.001-0.012-0.001l0,0
		c-0.769,0.103-1.21,0.586-1.21,1.323c0,0.26-0.04,0.496-0.125,0.715l-2.786-0.799c-0.045-0.014-0.091-0.019-0.137-0.019h-1.119
		c-0.105,0-0.202,0.043-0.285,0.104c-0.039,0.029-0.084,0.057-0.114,0.099l-0.339,0.47c-0.081,0.11-0.11,0.247-0.085,0.382
		l0.052,0.269l0.053,0.276c0.03,0.164,0.142,0.303,0.298,0.363c0.16,0.067,0.338,0.104,0.504,0.16
		c0.675,0.228,1.384,0.393,2.146,0.451c0.704,0.055,1.343,0.243,1.903,0.566l-0.324,2.524c-0.013,0.098,0.004,0.198,0.052,0.286
		l0.088,0.176c-0.053-0.01-0.108-0.011-0.163-0.003l-0.912,0.13c-0.139,0.021-0.262,0.099-0.34,0.215
		c-0.153,0.229-0.297,0.495-0.43,0.787c-0.056,0.123-0.121,0.242-0.199,0.359l-1.127-0.515c-0.069-0.032-0.145-0.048-0.222-0.045
		c-0.02,0.001-0.036,0.015-0.056,0.018c-0.056,0.008-0.111,0.016-0.162,0.043h-0.002l-0.05,0.028l-0.576,0.317l-0.063-0.103
		c-0.049-0.119-0.145-0.215-0.265-0.265l-0.311-0.131c-0.121-0.05-0.254-0.053-0.378,0l-0.571,0.234
		c-0.139,0.057-0.243,0.172-0.287,0.313c-0.022,0.076-0.059,0.147-0.086,0.222c-0.142,0.395-0.332,0.787-0.593,1.166
		c-0.014,0.023-0.028,0.048-0.043,0.07c-0.319,0.468-0.63,0.96-0.949,1.509c-0.045,0.076-0.068,0.16-0.068,0.249v0.442
		c0,0.271,0.221,0.493,0.493,0.493c0.191,0,0.364-0.013,0.521-0.037c0.007-0.004,0.011-0.007,0.018-0.007
		c0.148-0.024,0.282-0.061,0.403-0.111c0.206-0.083,0.417-0.202,0.629-0.34c0.021-0.013,0.039-0.019,0.057-0.03
		c0.093-0.062,0.16-0.152,0.194-0.255c0.136-0.405,0.341-0.777,0.614-1.103c0.105-0.127,0.176-0.269,0.266-0.401
		c0.084-0.135,0.188-0.257,0.258-0.396c0.007,0.003,0.013,0.006,0.021,0.009l2.006,0.87c0.108,0.232,0.143,0.487,0.099,0.775
		c-0.008,0.059-0.015,0.12-0.018,0.182c-0.019,0.374,0.086,0.831,0.539,1.234c0.003,0.003,0.006,0.006,0.009,0.008
		c0.011,0.012,0.029,0.022,0.043,0.034c0.066,0.056,0.135,0.111,0.216,0.163c0.08,0.053,0.176,0.081,0.272,0.081h0.663
		c0.283,0,0.686-0.103,1-0.59c0.121-0.188,0.102-0.431-0.048-0.598l-0.501-0.56l0.077-0.311h1.495l-0.21,0.593
		c-0.018,0.052-0.029,0.107-0.029,0.163l0,0v1.095c0,0.391,0.135,0.735,0.389,1.01c-0.257-0.046-0.516-0.092-0.782-0.141
		c-0.368-0.069-0.702-0.205-1.017-0.375c-0.105-0.056-0.216-0.104-0.313-0.17c-0.056-0.039-0.121-0.066-0.188-0.077
		c-0.067-0.015-0.137-0.014-0.204,0.002l-1.015,0.234c-0.153,0.035-0.281,0.141-0.343,0.286l-0.237,0.546
		c-0.024,0.062-0.038,0.127-0.038,0.194v0.002v0.259c0,0.194,0.111,0.368,0.287,0.449c0.334,0.152,0.682,0.277,1.034,0.385
		c0.158,0.049,0.314,0.102,0.476,0.143c0.146,0.035,0.29,0.063,0.435,0.091c0.094,0.021,0.188,0.043,0.278,0.062l-0.761,1.124
		l-0.481,0.344l-1.502,1.063c-0.065,0.048-0.121,0.111-0.158,0.184l-0.214,0.438l-0.037,0.074c-0.038,0.098-0.043,0.179-0.057,0.264
		c-0.006,0.043-0.028,0.097-0.028,0.135c-0.003,0.066,0.014,0.116,0.025,0.172c0.007,0.045,0.005,0.097,0.019,0.135
		s0.034,0.063,0.051,0.097c0.06,0.111,0.13,0.2,0.184,0.247c0.105,0.09,0.22,0.203,0.339,0.34c0.111,0.128,0.278,0.186,0.447,0.161
		l0.676-0.104c0.045-0.007,0.084-0.026,0.123-0.042c0.015-0.007,0.03-0.01,0.043-0.015c0.008-0.006,0.015-0.014,0.024-0.02
		c0.136-0.09,0.228-0.239,0.228-0.411c0-0.051,0.012-0.097,0.027-0.145c0.017-0.049,0.045-0.105,0.097-0.171
		c0.136-0.166,0.265-0.319,0.39-0.459l1.035-0.733l0.407,0.632c0.028,0.042,0.063,0.08,0.104,0.113l0.922,0.738l0.181,0.221
		l0.183,0.222c0.04,0.049,0.09,0.091,0.147,0.121c0.463,0.251,0.933,0.476,1.396,0.671c0.488,0.205,1.022,0.35,1.585,0.425
		c0.021,0.003,0.042,0.004,0.064,0.004c0.475,0,0.928-0.073,1.372-0.179c0.194-0.045,0.39-0.082,0.575-0.147
		c0.318-0.112,0.618-0.262,0.904-0.442c0.287-0.184,0.556-0.4,0.806-0.65c0.159-0.16,0.188-0.406,0.075-0.602L285.268,179.56z"/>
	<path d="M270.854,174.857l-1.68-0.754l-0.536-0.729l-0.487-0.502c0.267-1.04,0.509-2.104,0.719-3.16
		c0.213-1.071,0.618-2.077,1.207-2.992c0.051-0.078,0.079-0.173,0.079-0.267v-0.572v-0.001c0-0.156-0.074-0.304-0.2-0.396
		l-0.229-0.169l-0.369-0.275c-0.108-0.081-0.247-0.111-0.385-0.089l-0.286,0.052l-0.286,0.053c-0.124,0.023-0.22,0.102-0.294,0.201
		c-0.028,0.038-0.065,0.072-0.081,0.119c-0.596,1.675-1.074,3.415-1.425,5.171c-0.199,0.995-0.372,2.008-0.526,3.022
		c-0.116,0.749-0.225,1.5-0.313,2.251c-0.012,0.083,0,0.167,0.029,0.244l0.549,1.354c0.056,0.14,0.173,0.246,0.316,0.29
		c0.048,0.015,0.094,0.02,0.142,0.02c0.098,0,0.196-0.031,0.28-0.088v-0.001c0.002,0,0.002,0,0.002,0l0.094-0.064l0.241-0.17
		c0.062-0.042,0.111-0.095,0.148-0.158l0.331-0.573l0.136-0.233c0.068-0.117,0.087-0.257,0.048-0.386l-0.014-0.045l0.814,0.584
		c0.085,0.061,0.185,0.092,0.288,0.092c0.222,0,0.466,0.022,0.735,0.062c0.006,0,0.012,0,0.017,0
		c0.245,0.032,0.465,0.005,0.656-0.084c0.081-0.036,0.152-0.089,0.22-0.145c0.017-0.011,0.037-0.02,0.052-0.033
		c0.017-0.014,0.027-0.034,0.043-0.051c0.064-0.063,0.125-0.129,0.179-0.209c0.05-0.08,0.076-0.173,0.076-0.266v-0.003v-0.648
		C271.146,175.112,271.032,174.937,270.854,174.857z"/>
	<path d="M314.853,180.7c-0.063-0.161-0.205-0.278-0.378-0.307c-1.363-0.226-2.696-0.491-3.965-0.789
		c-1.206-0.282-2.356-0.706-3.428-1.263l-0.589-0.917l0.098-0.217l1.736,0.258c0.004,0,0.013,0,0.017,0l0.01,0.001
		c0.374,0,0.763-0.015,1.165-0.04c0.459-0.03,0.87-0.142,1.225-0.328c0.198-0.105,0.302-0.328,0.253-0.545l-0.128-0.573
		c-0.056-0.254-0.307-0.42-0.557-0.381l-0.011,0.003c-0.006,0-0.013-0.003-0.018-0.001l-0.595,0.09l-3.049-0.403l-0.206-0.27
		l0.094-2.01l1.782,0.33l0.646,0.689c0.102,0.109,0.244,0.164,0.395,0.155c0.003,0,0.008-0.003,0.01-0.003
		c0.007,0,0.013,0.003,0.018,0.003c0.149-0.011,0.284-0.087,0.369-0.208l0.729-1.043c0.069-0.099,0.1-0.22,0.086-0.339l-0.492-4.124
		l0.131-1.72c0.003-0.058-0.003-0.119-0.02-0.175l-0.131-0.442c-0.044-0.15-0.154-0.271-0.301-0.324l-1.921-0.718l-0.228-0.85
		l0.021-0.041c0.067-0.133,0.07-0.286,0.011-0.424l-0.042-0.091l0.169-0.901l0.38-0.262c0.32,0.003,0.632,0.02,0.938,0.047
		c0.274,0.025,0.514,0.125,0.733,0.307c0.088,0.072,0.198,0.111,0.313,0.111h0.021c0.001,0,0.003,0.002,0.005,0.002h0.598
		c0.18,0,0.341-0.096,0.43-0.249l0.209-0.365c0.056-0.098,0.077-0.21,0.061-0.321l-0.105-0.677c-0.034-0.214-0.205-0.381-0.42-0.411
		l-2.995-0.427c-0.031-0.122-0.055-0.258-0.072-0.404c-0.052-0.443-0.257-0.803-0.598-1.039c-0.063-0.046-0.137-0.069-0.213-0.08
		c-0.066-0.012-0.135-0.011-0.201,0.003l-0.599,0.129c-0.162,0.035-0.296,0.149-0.357,0.305l-0.304,0.793l-1.626-0.167
		c-0.039-0.111-0.057-0.245-0.057-0.396c0-0.5-0.222-0.935-0.637-1.251c-0.086-0.065-0.19-0.101-0.299-0.101h-0.025
		c0,0-0.002-0.002-0.003-0.002h-0.676c-0.126,0-0.245,0.047-0.336,0.133c-0.375,0.348-0.51,0.807-0.395,1.328
		c0.003,0.011,0.005,0.02,0.007,0.029l-1.473-0.548c-0.082-0.029-0.167-0.037-0.253-0.023l-0.01,0.001
		c-0.005,0-0.011-0.002-0.016-0.001l-0.807,0.129c-0.12,0.02-0.229,0.083-0.307,0.178l-0.441,0.546
		c-0.089,0.109-0.125,0.25-0.105,0.389l0.079,0.494c0.031,0.195,0.179,0.354,0.371,0.402l2.999,0.73
		c0.142,0.27,0.229,0.56,0.259,0.866c0.023,0.252,0.089,0.494,0.189,0.727c-0.087-0.073-0.194-0.118-0.311-0.118
		c-0.006,0-0.01,0-0.017,0c-0.003,0-0.006,0-0.008,0c-0.309,0-0.574,0.059-0.793,0.175c-0.231,0.122-0.417,0.306-0.552,0.545
		c-0.061,0.108-0.077,0.233-0.049,0.356l0.11,0.462l-0.25,2.205c-0.008,0.075,0,0.15,0.024,0.223l0.09,0.25
		c-0.078,0.573-0.117,1.205-0.117,1.874c0,0.652-0.073,1.258-0.219,1.802c-0.018,0.065-0.021,0.135-0.009,0.201l0.233,1.511
		c0.02,0.13,0.092,0.247,0.199,0.325l0.371,0.267c-0.123,0.012-0.245,0.025-0.367,0.045c-0.4,0.061-0.703,0.311-0.854,0.7
		c-0.04,0.106-0.044,0.225-0.007,0.331l0.234,0.704c0.052,0.157,0.178,0.278,0.338,0.32c0.854,0.23,1.695,0.422,2.502,0.568
		c0.635,0.117,1.263,0.314,1.864,0.59l-0.018,0.093l-4.129,2.103l-0.466,0.002c0-0.002-0.034-0.019-0.086-0.104
		c-0.09-0.146-0.25-0.236-0.423-0.236c-0.006,0-0.011,0.002-0.018,0.002c-0.002,0-0.007-0.002-0.009-0.002
		c-0.427,0-0.785,0.116-1.069,0.348c-0.196,0.161-0.376,0.311-0.534,0.453c-0.105,0.094-0.167,0.229-0.167,0.369v0.599
		c0,0.165,0.084,0.319,0.22,0.412l0.468,0.311c0.092,0.062,0.204,0.087,0.306,0.084c0.007,0,0.014-0.002,0.02-0.002
		c0.002,0,0.005,0.002,0.008,0.002c1.121-0.072,2.193-0.312,3.188-0.712c0.893-0.361,1.778-0.784,2.634-1.259l0.236,1.384
		l-0.095,0.734c-0.009,0.063-0.006,0.13,0.015,0.194l0.47,1.692c0.059,0.214,0.253,0.361,0.474,0.361h0.026h0.418h0.024
		c0.146,0,0.284-0.063,0.379-0.174l0.573-0.679c0.104-0.128,0.141-0.299,0.094-0.457l-0.539-1.843l0.008-0.045
		c0.983,0.353,1.985,0.63,2.987,0.82c1.179,0.225,2.378,0.45,3.596,0.677c0.006,0,0.011-0.003,0.02-0.001
		c0.001,0,0.003,0.001,0.005,0.001c0.084,0.014,0.169,0.009,0.25-0.019l1.382-0.469c0.127-0.042,0.232-0.136,0.288-0.258
		c0.059-0.122,0.063-0.262,0.013-0.387L314.853,180.7z M306.995,166.947c0.219,0.049,0.43,0.144,0.626,0.281l0.298,1.401
		l-0.97-0.453l-0.124-0.194l0.026-0.109c0.018-0.071,0.019-0.145,0.004-0.218c-0.045-0.218-0.066-0.416-0.066-0.602
		c0-0.054-0.003-0.104-0.008-0.153C306.852,166.917,306.924,166.931,306.995,166.947z M306.769,170.451
		c0.063,0.045,0.14,0.07,0.218,0.078c0.043,0.009,0.088,0,0.133-0.002c0.018-0.003,0.035,0.002,0.056-0.003h0.001
		c0.007-0.002,0.015,0.001,0.023,0l0.909-0.233c0.055-0.014,0.104-0.042,0.147-0.069l0.02,0.996
		c-0.251-0.024-0.498-0.065-0.739-0.126c-0.316-0.079-0.612-0.194-0.887-0.342c-0.007-0.123-0.018-0.259-0.03-0.403L306.769,170.451
		z M304.401,174.443l0.069,0.178l-0.036,0.116c-0.492-0.07-0.951-0.176-1.369-0.317c-0.52-0.171-1.052-0.358-1.6-0.56l0.188-0.074
		c0.138-0.052,0.245-0.165,0.291-0.306l0.303-0.924c0.226,0.04,0.454,0.062,0.686,0.064c0.238,0.005,0.478-0.009,0.721-0.041
		c0.009-0.002,0.017,0,0.026,0c0.153-0.021,0.298-0.023,0.438-0.01c0.155,0.02,0.305,0.058,0.445,0.117l-0.191,1.517
		C304.362,174.284,304.373,174.366,304.401,174.443z M304.596,170.413c-0.014,0.008-0.024,0.017-0.038,0.026h-0.513
		c-0.18,0-0.336-0.044-0.483-0.135c-0.078-0.051-0.17-0.075-0.26-0.075c-0.008,0-0.015,0.003-0.021,0.003
		c-0.002,0-0.003-0.002-0.006-0.002c-0.043,0-0.085,0.005-0.127,0.016l-0.666,0.179l-0.241-0.042l-0.107-0.195l0.173-0.689h1.256
		c0.39,0,0.735,0.078,1.051,0.238c0.011,0.18,0.032,0.364,0.063,0.548C304.683,170.333,304.688,170.354,304.596,170.413z
		 M304.599,167.526l-2.077-0.311l0.2-0.871l0.24-0.153l1.912,0.292L304.599,167.526z M305.363,164.313
		c-0.18-0.017-0.386-0.011-0.573-0.027c0.03-0.064,0.045-0.134,0.045-0.204v-0.703c0-0.271-0.22-0.492-0.492-0.492l-0.443-0.394
		v-0.271c0.152,0.018,0.299,0.024,0.446,0.028c0.148,0.006,0.295,0.009,0.438,0.014c0.282,0.013,0.557,0.045,0.822,0.15
		L305.363,164.313z"/>
	<path d="M345.878,168.808c-0.096-0.105-0.229-0.167-0.371-0.167h-0.053h-0.312h-0.053c-0.148,0-0.289,0.069-0.384,0.185
		l-0.389,0.482l-2.306-0.091l-0.019,0.003l-0.031-0.002l-0.751,0.088l-0.257-0.071c-0.072-0.023-0.149-0.026-0.223-0.013
		l-0.014,0.003c-0.014,0-0.024-0.005-0.039-0.003l-0.437,0.082l-0.526-0.138c-0.094-0.285-0.169-0.557-0.223-0.822
		c-0.079-0.375-0.222-0.726-0.424-1.046l0.046-0.351l0.512-0.281c0.501-0.366,0.803-0.812,0.896-1.323l0.208-1.139
		c0.105-0.555,0.063-1.041-0.133-1.442c-0.162-0.334-0.378-0.667-0.68-1.031c-0.417-0.417-0.881-0.755-1.375-1.004
		c-0.47-0.234-0.998-0.439-1.569-0.606c-0.044-0.014-0.092-0.02-0.139-0.02h-0.663c-0.002,0-0.004,0-0.005,0h-0.05
		c-0.362,0-0.686,0.131-0.934,0.378c-0.093,0.094-0.145,0.22-0.145,0.351v0.676c0,0.153,0.071,0.298,0.19,0.393l0.573,0.441
		c0.072,0.056,0.16,0.081,0.248,0.092c0.072,0.016,0.146,0.017,0.216-0.001l0.427-0.098l1.061,0.285l1.03,1.224
		c-0.02,0.251-0.078,0.49-0.178,0.728c-0.09,0.213-0.219,0.418-0.382,0.611l-0.934-0.176c-0.011-0.001-0.02,0.007-0.03,0.006
		l-0.022-0.007c-0.106-0.019-0.218-0.003-0.312,0.045l-0.678,0.339c-0.228,0.114-0.331,0.382-0.24,0.619
		c0.223,0.572,0.521,1.143,0.882,1.692c0.311,0.476,0.572,0.95,0.777,1.41v0.025l-6.17-0.857h-0.678c-0.001,0-0.004,0-0.004,0
		h-0.051c-0.151,0-0.294,0.071-0.39,0.192l-0.363,0.467c-0.109,0.14-0.134,0.326-0.067,0.49l0.234,0.573
		c0.063,0.155,0.203,0.27,0.372,0.3c1.291,0.226,2.645,0.399,4.027,0.512c1.252,0.104,2.48,0.256,3.655,0.453l0.476,1.365
		c-0.001,1.021-0.023,2.02-0.063,2.969c-0.04,0.874-0.229,1.707-0.561,2.475c-0.392,0.406-0.712,0.872-0.955,1.386
		c-0.171,0.358-0.424,0.647-0.771,0.881l-0.533-0.06c-0.1-0.129-0.166-0.271-0.205-0.433c-0.087-0.396-0.289-0.751-0.6-1.06
		c-0.119-0.122-0.296-0.173-0.457-0.133l-0.006,0.001c-0.018,0.001-0.032-0.004-0.049-0.001l-0.572,0.13
		c-0.14,0.03-0.26,0.122-0.326,0.247c-0.068,0.128-0.076,0.277-0.024,0.412l0.573,1.483c0.021,0.058,0.054,0.11,0.095,0.155
		l0.807,0.885c0.095,0.104,0.226,0.162,0.365,0.162h0.053h1.12h0.054c0.537,0,1.026-0.19,1.447-0.569
		c0.025-0.022,0.052-0.05,0.072-0.08c0.68-0.951,1.242-1.961,1.67-3.004c0.435-1.06,0.7-2.199,0.79-3.393
		c0.003-0.04,0.001-0.078-0.006-0.116l-0.111-0.696l0.097-0.334c0.021-0.068,0.026-0.139,0.018-0.209l-0.327-2.291l0.038-0.206
		l3.248,0.091c0.006,0,0.009-0.002,0.014-0.002l0.041,0.002c0.037-0.002,0.076-0.002,0.115-0.01l0.409-0.087l1.14,0.095
		c0.009,0,0.014-0.002,0.021-0.002l0.032,0.002c0.066,0.009,0.132-0.002,0.194-0.023l0.313-0.104
		c0.125-0.042,0.227-0.132,0.284-0.249l0.251-0.497c0.146-0.353,0.116-0.728-0.093-1.055
		C346.179,169.179,346.032,168.983,345.878,168.808z"/>
</g>
</svg>
