<?xml version="1.0" encoding="utf-8"?>
<!-- Generator: Adobe Illustrator 15.0.0, SVG Export Plug-In . SVG Version: 6.00 Build 0)  -->
<!DOCTYPE svg PUBLIC "-//W3C//DTD SVG 1.1//EN" "http://www.w3.org/Graphics/SVG/1.1/DTD/svg11.dtd">
<svg version="1.1" xmlns="http://www.w3.org/2000/svg" xmlns:xlink="http://www.w3.org/1999/xlink" x="0px" y="0px"
	 width="48.331px" height="22.466px" viewBox="275.733 412.873 48.331 22.466"
	 enable-background="new 275.733 412.873 48.331 22.466" xml:space="preserve">
<g id="レイヤー_1">
</g>
<g id="_x32_">
	<g>
		<g>
			<path fill="#A3CD7E" d="M277.633,427.7c-0.452-0.131-0.814-0.302-1.089-0.512l0.481-1.067c0.262,0.192,0.574,0.347,0.936,0.464
				c0.361,0.116,0.724,0.175,1.085,0.175c0.402,0,0.7-0.06,0.893-0.18c0.192-0.119,0.289-0.278,0.289-0.477
				c0-0.146-0.058-0.267-0.171-0.363c-0.114-0.096-0.26-0.174-0.438-0.231c-0.178-0.059-0.419-0.123-0.722-0.192
				c-0.467-0.111-0.849-0.222-1.146-0.333c-0.297-0.11-0.553-0.289-0.766-0.533c-0.213-0.245-0.319-0.572-0.319-0.98
				c0-0.355,0.097-0.678,0.289-0.967c0.192-0.288,0.482-0.518,0.87-0.687s0.862-0.254,1.422-0.254c0.391,0,0.773,0.047,1.146,0.14
				c0.373,0.094,0.7,0.228,0.979,0.403l-0.438,1.076c-0.565-0.321-1.131-0.481-1.697-0.481c-0.396,0-0.689,0.064-0.879,0.192
				s-0.284,0.298-0.284,0.508s0.109,0.365,0.328,0.468c0.219,0.102,0.552,0.202,1.001,0.302c0.467,0.11,0.849,0.222,1.146,0.332
				c0.298,0.111,0.553,0.286,0.766,0.525s0.319,0.563,0.319,0.971c0,0.351-0.098,0.67-0.293,0.958
				c-0.195,0.289-0.488,0.519-0.879,0.688c-0.392,0.169-0.866,0.254-1.427,0.254C278.553,427.897,278.085,427.831,277.633,427.7z"/>
			<path fill="#A3CD7E" d="M283.963,422.822h-1.96v-1.154h5.337v1.154h-1.96v4.97h-1.417V422.822z"/>
			<path fill="#A3CD7E" d="M293.018,426.654v1.138h-4.741v-6.124h4.628v1.137h-3.22v1.33h2.844v1.103h-2.844v1.417H293.018z"/>
			<path fill="#A3CD7E" d="M298.386,421.938c0.399,0.182,0.707,0.438,0.923,0.771c0.216,0.332,0.324,0.726,0.324,1.181
				c0,0.449-0.108,0.842-0.324,1.177c-0.216,0.336-0.523,0.593-0.923,0.771s-0.87,0.267-1.413,0.267h-1.233v1.688h-1.417v-6.124
				h2.65C297.516,421.668,297.986,421.758,298.386,421.938z M297.865,424.673c0.222-0.184,0.332-0.444,0.332-0.783
				c0-0.344-0.11-0.607-0.332-0.792c-0.222-0.184-0.546-0.275-0.971-0.275h-1.155v2.126h1.155
				C297.319,424.948,297.644,424.856,297.865,424.673z"/>
		</g>
		<g>
			<path fill="#A3CD7E" d="M301.298,417.459c0.259-0.96,0.772-1.683,1.54-2.169c0.656-0.414,1.448-0.621,2.376-0.621
				c1.247,0,2.231,0.348,2.955,1.044c0.618,0.59,0.927,1.327,0.927,2.21c0,0.822-0.245,1.498-0.736,2.028
				c-0.437,0.464-1.016,0.759-1.738,0.886v0.116c0.933,0.198,1.636,0.612,2.11,1.241c0.414,0.547,0.621,1.22,0.621,2.021
				c0,1.225-0.431,2.196-1.291,2.914c-0.745,0.624-1.694,0.936-2.848,0.936c-2.191,0-3.563-0.955-4.115-2.864l2.078-0.613
				c0.154,0.69,0.411,1.176,0.77,1.457c0.31,0.249,0.727,0.373,1.251,0.373c0.656,0,1.161-0.218,1.515-0.654
				c0.314-0.386,0.472-0.896,0.472-1.531c0-1.563-0.836-2.343-2.509-2.343h-0.984v-1.73h0.894c1.584,0,2.376-0.679,2.376-2.037
				c0-0.623-0.182-1.093-0.546-1.407c-0.31-0.271-0.721-0.405-1.233-0.405c-0.503,0-0.914,0.165-1.234,0.497
				c-0.298,0.309-0.485,0.736-0.563,1.283L301.298,417.459z"/>
		</g>
		<rect x="275.733" y="430.245" fill="#A3CD7E" width="38.915" height="5.094"/>
		<g>
			<path fill="#A3CD7E" d="M312.672,423.268c0-0.468,0.258-0.568,0.573-0.223l10.646,11.666c0.315,0.346,0.19,0.628-0.277,0.628
				h-10.091c-0.468,0-0.851-0.383-0.851-0.851V423.268z"/>
		</g>
	</g>
</g>
</svg>
